<?xml version="1.0" encoding="UTF-8" standalone="no"?>
<!-- Created with Inkscape (http://www.inkscape.org/) -->

<svg
   xmlns:dc="http://purl.org/dc/elements/1.1/"
   xmlns:cc="http://creativecommons.org/ns#"
   xmlns:rdf="http://www.w3.org/1999/02/22-rdf-syntax-ns#"
   xmlns:svg="http://www.w3.org/2000/svg"
   xmlns="http://www.w3.org/2000/svg"
   xmlns:xlink="http://www.w3.org/1999/xlink"
   xmlns:sodipodi="http://sodipodi.sourceforge.net/DTD/sodipodi-0.dtd"
   xmlns:inkscape="http://www.inkscape.org/namespaces/inkscape"
   width="200"
   height="300"
   id="svg5382"
   version="1.1"
   inkscape:version="0.48.3.1 r9886"
   sodipodi:docname="abomination.svg">
  <defs
     id="defs5384">
    <linearGradient
       id="linearGradient3977">
      <stop
         style="stop-color:#ff0000;stop-opacity:1;"
         offset="0"
         id="stop3979" />
      <stop
         id="stop3985"
         offset="0.81774765"
         style="stop-color:#ff0000;stop-opacity:0.49803922;" />
      <stop
         style="stop-color:#ff0000;stop-opacity:0;"
         offset="1"
         id="stop3981" />
    </linearGradient>
    <linearGradient
       inkscape:collect="always"
       id="linearGradient4882">
      <stop
         style="stop-color:#000000;stop-opacity:1;"
         offset="0"
         id="stop4884" />
      <stop
         style="stop-color:#000000;stop-opacity:0;"
         offset="1"
         id="stop4886" />
    </linearGradient>
    <filter
       inkscape:collect="always"
       id="filter4872">
      <feGaussianBlur
         inkscape:collect="always"
         stdDeviation="2.3709733"
         id="feGaussianBlur4874" />
    </filter>
    <filter
       inkscape:collect="always"
       id="filter4876">
      <feGaussianBlur
         inkscape:collect="always"
         stdDeviation="1.3022774"
         id="feGaussianBlur4878" />
    </filter>
    <radialGradient
       inkscape:collect="always"
       xlink:href="#linearGradient4882"
       id="radialGradient4896"
       cx="119.40064"
       cy="141.48932"
       fx="119.40064"
       fy="141.48932"
       r="81.710846"
       gradientTransform="matrix(1,0,0,1.005631,0,-0.79672592)"
       gradientUnits="userSpaceOnUse" />
    <radialGradient
       inkscape:collect="always"
       xlink:href="#linearGradient4882"
       id="radialGradient3967"
       cx="100.07568"
       cy="127.68578"
       fx="100.07568"
       fy="127.68578"
       r="36.579388"
       gradientTransform="matrix(1,0,0,0.96226421,0,4.8183237)"
       gradientUnits="userSpaceOnUse" />
    <radialGradient
       inkscape:collect="always"
       xlink:href="#linearGradient4882"
       id="radialGradient3971"
       gradientUnits="userSpaceOnUse"
       gradientTransform="matrix(1,0,0,0.96226421,0,4.8183237)"
       cx="100.07568"
       cy="127.68578"
       fx="100.07568"
       fy="127.68578"
       r="36.579388" />
    <radialGradient
       inkscape:collect="always"
       xlink:href="#linearGradient3977"
       id="radialGradient4003"
       gradientUnits="userSpaceOnUse"
       gradientTransform="matrix(1,0,0,0.86363639,0,10.886383)"
       cx="52.913582"
       cy="79.833496"
       fx="52.913582"
       fy="79.833496"
       r="5.0612988" />
    <radialGradient
       inkscape:collect="always"
       xlink:href="#linearGradient3977"
       id="radialGradient4007"
       gradientUnits="userSpaceOnUse"
       gradientTransform="matrix(1,0,0,0.86363639,0,10.886383)"
       cx="52.913582"
       cy="79.833496"
       fx="52.913582"
       fy="79.833496"
       r="5.0612988" />
    <radialGradient
       inkscape:collect="always"
       xlink:href="#linearGradient3977"
       id="radialGradient4011"
       gradientUnits="userSpaceOnUse"
       gradientTransform="matrix(1,0,0,0.86363639,0,10.886383)"
       cx="52.913582"
       cy="79.833496"
       fx="52.913582"
       fy="79.833496"
       r="5.0612988" />
    <radialGradient
       inkscape:collect="always"
       xlink:href="#linearGradient3977"
       id="radialGradient4015"
       gradientUnits="userSpaceOnUse"
       gradientTransform="matrix(1,0,0,0.86363639,0,10.886383)"
       cx="52.913582"
       cy="79.833496"
       fx="52.913582"
       fy="79.833496"
       r="5.0612988" />
    <radialGradient
       inkscape:collect="always"
       xlink:href="#linearGradient3977"
       id="radialGradient4019"
       gradientUnits="userSpaceOnUse"
       gradientTransform="matrix(1,0,0,0.86363639,0,10.886383)"
       cx="52.913582"
       cy="79.833496"
       fx="52.913582"
       fy="79.833496"
       r="5.0612988" />
    <radialGradient
       inkscape:collect="always"
       xlink:href="#linearGradient3977"
       id="radialGradient4023"
       gradientUnits="userSpaceOnUse"
       gradientTransform="matrix(1,0,0,0.86363639,0,10.886383)"
       cx="52.913582"
       cy="79.833496"
       fx="52.913582"
       fy="79.833496"
       r="5.0612988" />
    <radialGradient
       inkscape:collect="always"
       xlink:href="#linearGradient3977"
       id="radialGradient4027"
       gradientUnits="userSpaceOnUse"
       gradientTransform="matrix(1,0,0,0.86363639,0,10.886383)"
       cx="52.913582"
       cy="79.833496"
       fx="52.913582"
       fy="79.833496"
       r="5.0612988" />
  </defs>
  <sodipodi:namedview
     id="base"
     pagecolor="#ffffff"
     bordercolor="#666666"
     borderopacity="1.0"
     inkscape:pageopacity="0"
     inkscape:pageshadow="2"
     inkscape:zoom="2.200022"
     inkscape:cx="99.978461"
     inkscape:cy="149.99905"
     inkscape:document-units="px"
     inkscape:current-layer="layer1"
     showgrid="false"
     inkscape:showpageshadow="false"
     inkscape:window-width="921"
     inkscape:window-height="871"
     inkscape:window-x="172"
     inkscape:window-y="39"
     inkscape:window-maximized="0"
     borderlayer="true" />
  <metadata
     id="metadata5387">
    <rdf:RDF>
      <cc:Work
         rdf:about="">
        <dc:format>image/svg+xml</dc:format>
        <dc:type
           rdf:resource="http://purl.org/dc/dcmitype/StillImage" />
        <dc:title></dc:title>
      </cc:Work>
    </rdf:RDF>
  </metadata>
  <g
     inkscape:label="Layer 1"
     inkscape:groupmode="layer"
     id="layer1"
     transform="translate(0,-752.36218)">
    <rect
       style="fill:#ffffff;stroke:#000000;stroke-width:3.92711401"
       id="rect5598"
       width="198.74867"
       height="296.06989"
       x="0.60412431"
       y="754.32819" />
    <text
       xml:space="preserve"
       style="font-size:24px;font-style:normal;font-variant:normal;font-weight:normal;font-stretch:normal;text-align:start;line-height:125%;letter-spacing:0px;word-spacing:0px;writing-mode:lr-tb;text-anchor:start;fill:#ff0000;fill-opacity:1;stroke:none;font-family:Sans;-inkscape-font-specification:Sans"
       x="22.873837"
       y="1045.1903"
       id="text5494"
       sodipodi:linespacing="125%"
       transform="scale(1.0637976,0.94002845)"><tspan
         sodipodi:role="line"
         id="tspan5496"
         x="22.873837"
         y="1045.1903">Abomination</tspan></text>
    <g
       id="g4773"
       transform="matrix(0.29965369,0,0,0.29965369,4.840269,529.26179)">
      <path
         sodipodi:nodetypes="cccccccccc"
         inkscape:connector-curvature="0"
         id="path5305"
         d="m 36.680435,883.17926 -1.14669,-11.08468 c -3.058709,-8.27212 -4.445972,-14.67194 -11.466906,-25.60943 -5.190684,-6.48917 -7.648876,-14.41431 -4.204532,-27.52056 2.582894,-31.72234 26.927315,-32.82007 44.338701,-32.48957 25.580442,0.16559 47.305632,8.88755 45.867622,31.34288 4.59667,26.52111 -1.00175,26.53636 -6.49792,32.87179 -8.56235,10.44961 -13.7303,19.21647 -16.43589,28.28503 l -2.67561,7.26238 z"
         style="fill:#1a1a1a;stroke:none" />
      <path
         sodipodi:nodetypes="ccccc"
         inkscape:connector-curvature="0"
         id="path5307"
         d="m 42.796118,815.90675 c -5.97188,-0.0888 -9.060468,2.129 -9.937985,6.11568 0.256811,11.46093 6.939867,14.34558 13.760287,16.05367 8.47367,-0.82727 15.284795,-3.31708 15.671438,-12.23137 -1.230646,-4.93336 -5.123894,-9.04745 -19.49374,-9.93798 z"
         style="fill:#ffffff;stroke:none" />
      <path
         inkscape:transform-center-y="20.64043"
         inkscape:transform-center-x="-14.715867"
         sodipodi:nodetypes="ccccc"
         inkscape:connector-curvature="0"
         id="path5307-9"
         d="m 90.38378,817.05472 c 5.97188,-0.0888 9.06047,2.129 9.93798,6.11568 -0.25681,11.46093 -6.93986,14.34558 -13.76028,16.05367 -8.47367,-0.82727 -15.2848,-3.31708 -15.67144,-12.23137 1.23065,-4.93336 5.1239,-9.04745 19.49374,-9.93798 z"
         style="fill:#ffffff;stroke:none" />
      <path
         sodipodi:nodetypes="cccc"
         inkscape:connector-curvature="0"
         id="path5338"
         d="m 56.556405,856.80538 c -2.915813,-3.53824 7.890145,-18.23819 9.555755,-14.90698 8.80879,1.37081 6.71645,10.52815 9.17352,16.4359 -9.25562,-7.13719 -14.530072,-5.51584 -18.729275,-1.52892 z"
         style="fill:#ffffff;stroke:none" />
      <g
         style="fill:#ffffff;stroke:#ffffff"
         transform="translate(-35.56107,-39.224656)"
         id="g5350">
        <path
           style="fill:#ffffff;stroke:#ffffff;stroke-width:1px;stroke-linecap:butt;stroke-linejoin:miter;stroke-opacity:1"
           d="m 78.357188,160.10375 -0.764461,14.90698"
           id="path5340"
           inkscape:connector-curvature="0"
           transform="translate(0,752.36218)" />
        <path
           style="fill:#ffffff;stroke:#ffffff;stroke-width:1px;stroke-linecap:butt;stroke-linejoin:miter;stroke-opacity:1"
           d="m 85.619561,161.63267 1.146691,13.76029"
           id="path5342"
           inkscape:connector-curvature="0"
           transform="translate(0,752.36218)" />
        <path
           style="fill:#ffffff;stroke:#ffffff;stroke-width:1px;stroke-linecap:butt;stroke-linejoin:miter;stroke-opacity:1"
           d="m 94.793086,162.77936 -0.38223,14.52475"
           id="path5344"
           inkscape:connector-curvature="0"
           transform="translate(0,752.36218)" />
        <path
           style="fill:#ffffff;stroke:#ffffff;stroke-width:1px;stroke-linecap:butt;stroke-linejoin:miter;stroke-opacity:1"
           d="m 104.73107,163.16159 0,12.23137"
           id="path5346"
           inkscape:connector-curvature="0"
           transform="translate(0,752.36218)" />
        <path
           style="fill:#ffffff;stroke:#ffffff;stroke-width:1px;stroke-linecap:butt;stroke-linejoin:miter;stroke-opacity:1"
           d="m 113.52236,164.30828 -1.14669,13.76029"
           id="path5348"
           inkscape:connector-curvature="0"
           transform="translate(0,752.36218)" />
      </g>
    </g>
    <use
       x="0"
       y="0"
       xlink:href="#g4773"
       id="use4785"
       transform="matrix(-0.99841403,0.05629759,-0.05629759,-0.99841403,246.44528,1804.3429)"
       width="200"
       height="300" />
    <path
       sodipodi:type="arc"
       style="fill:url(#radialGradient3967);stroke:none;fill-opacity:1.0"
       id="path3191"
       sodipodi:cx="100.07568"
       sodipodi:cy="127.68578"
       sodipodi:rx="36.579388"
       sodipodi:ry="35.199036"
       d="m 136.65507,127.68578 a 36.579388,35.199036 0 1 1 -73.158774,0 36.579388,35.199036 0 1 1 73.158774,0 z"
       transform="translate(0,752.36218)" />
    <path
       style="fill:#808000;stroke:none"
       d="M 82.821256,123.77477 C 71.373004,121.45272 60.841624,113.62945 50.61299,103.98969 33.434998,96.166685 30.23017,161.2607 19.785078,163.34493 c 1.320214,14.48321 39.263411,13.49679 58.895116,20.24519 l 10.582716,24.38626 c -1.137755,-9.85935 1.546428,-18.95432 -5.061299,-29.90767 -14.723779,-6.4302 -38.806554,2.47217 -44.171337,-19.32496 2.711119,-11.22749 -8.608257,-28.59332 11.502952,-32.20827 l 29.907676,12.88331 c 2.950202,-2.92309 12.852228,-1.67508 28.067208,2.7607 L 97.084922,126.07537 z"
       id="path3187"
       inkscape:connector-curvature="0"
       transform="translate(0,752.36218)"
       sodipodi:nodetypes="cccccccccccc" />
    <path
       style="fill:#808000;stroke:none"
       d="m 104.4468,125.61525 c 27.94696,-26.855929 43.31167,-36.096703 52.91359,-37.269572 4.16791,41.029512 0.76686,92.637112 -7.82201,86.502202 l -50.152872,13.80354 39.110042,-20.70531 c 7.06568,4.91997 13.40639,-26.48342 7.36188,-54.29394 l -34.96897,19.32497 z"
       id="path3189"
       inkscape:connector-curvature="0"
       transform="translate(0,752.36218)"
       sodipodi:nodetypes="cccccccc" />
    <path
       style="fill:#808000;stroke:none"
       d="m 116.40988,139.8789 c 6.16233,4.74672 16.79161,8.21717 15.18389,15.1839 -2.82964,8.24134 -6.90862,14.8169 -17.02437,13.34343 12.24291,5.70823 15.90315,15.09475 19.78508,24.38625 -4.02604,11.77135 -11.71376,14.99876 -19.32496,18.40473 4.24972,-6.28828 12.20713,-12.57656 7.36189,-18.86484 -3.13008,-8.54567 -18.38651,-14.11393 -22.545784,-23.00591 -1.15937,-8.82801 5.035374,-10.3019 11.042834,-11.96307 15.63706,-4.41411 -8.29125,-11.0263 -12.883307,-16.56425 z"
       id="path3973"
       inkscape:connector-curvature="0"
       transform="translate(0,752.36218)"
       sodipodi:nodetypes="cccccccccc" />
    <path
       transform="translate(-4.1410631,753.28242)"
       d="m 136.65507,127.68578 a 36.579388,35.199036 0 1 1 -73.158774,0 36.579388,35.199036 0 1 1 73.158774,0 z"
       sodipodi:ry="35.199036"
       sodipodi:rx="36.579388"
       sodipodi:cy="127.68578"
       sodipodi:cx="100.07568"
       id="path3969"
       style="fill:url(#radialGradient3971);fill-opacity:1;stroke:none"
       sodipodi:type="arc" />
  </g>
</svg>
