<?xml version="1.0" encoding="UTF-8" standalone="no"?>
<!-- Created with Inkscape (http://www.inkscape.org/) -->

<svg
   xmlns:dc="http://purl.org/dc/elements/1.1/"
   xmlns:cc="http://creativecommons.org/ns#"
   xmlns:rdf="http://www.w3.org/1999/02/22-rdf-syntax-ns#"
   xmlns:svg="http://www.w3.org/2000/svg"
   xmlns="http://www.w3.org/2000/svg"
   xmlns:xlink="http://www.w3.org/1999/xlink"
   xmlns:sodipodi="http://sodipodi.sourceforge.net/DTD/sodipodi-0.dtd"
   xmlns:inkscape="http://www.inkscape.org/namespaces/inkscape"
   width="200"
   height="300"
   id="svg2"
   version="1.1"
   inkscape:version="0.48.3.1 r9886"
   sodipodi:docname="animal_back.svg">
  <defs
     id="defs4">
    <pattern
       inkscape:collect="always"
       xlink:href="#Strips1_10white"
       id="pattern5201"
       patternTransform="matrix(1.3476986,0,0,25.329768,0,751.88041)" />
    <pattern
       inkscape:stockid="Stripes 1:10 white"
       id="Strips1_10white"
       patternTransform="translate(0,0) scale(10,10)"
       height="1"
       width="11"
       patternUnits="userSpaceOnUse"
       inkscape:collect="always">
      <rect
         id="rect4523"
         height="2"
         width="1"
         y="-0.5"
         x="0"
         style="fill:white;stroke:none" />
    </pattern>
  </defs>
  <sodipodi:namedview
     id="base"
     pagecolor="#ffffff"
     bordercolor="#666666"
     borderopacity="1.0"
     inkscape:pageopacity="0.0"
     inkscape:pageshadow="2"
     inkscape:zoom="2.6162246"
     inkscape:cx="100"
     inkscape:cy="149.53789"
     inkscape:document-units="px"
     inkscape:current-layer="layer1"
     showgrid="false"
     inkscape:showpageshadow="false"
     inkscape:window-width="787"
     inkscape:window-height="998"
     inkscape:window-x="134"
     inkscape:window-y="0"
     inkscape:window-maximized="0" />
  <metadata
     id="metadata7">
    <rdf:RDF>
      <cc:Work
         rdf:about="">
        <dc:format>image/svg+xml</dc:format>
        <dc:type
           rdf:resource="http://purl.org/dc/dcmitype/StillImage" />
        <dc:title></dc:title>
      </cc:Work>
    </rdf:RDF>
  </metadata>
  <g
     inkscape:label="Layer 1"
     inkscape:groupmode="layer"
     id="layer1"
     transform="translate(0,-752.36218)">
    <rect
       style="fill:#deaa87;fill-rule:evenodd;stroke:none"
       id="rect2985"
       width="200"
       height="300.29602"
       x="0"
       y="752.43585" />
    <rect
       style="fill:url(#pattern5201);fill-opacity:1;stroke:#ffffff;stroke-width:1.00080168"
       id="rect2987"
       width="189.20393"
       height="290.19516"
       x="4.5867624"
       y="757.18945"
       ry="15.696573" />
    <path
       style="fill:#deaa87;stroke:#ffffff;stroke-width:1.00080167999999992px;stroke-linecap:butt;stroke-linejoin:miter;stroke-opacity:1"
       d="M 98.233157,755.66236 C 37.449906,755.51198 3.7198512,834.81582 2.2933811,904.96694 1.8881446,972.87893 39.268139,1051.1845 102.81992,1050.8247 c 61.91417,-0.5778 94.16896,-91.42558 94.02862,-148.15666 -0.0884,-56.3611 -31.64357,-147.41709 -98.615383,-147.00568 z"
       id="path2989"
       inkscape:connector-curvature="0"
       sodipodi:nodetypes="ccccc" />
    <g
       id="g5249"
       transform="translate(-2.6756113,11.849136)">
      <path
         sodipodi:nodetypes="cccccccccccccccccccccccc"
         transform="translate(0,752.36218)"
         inkscape:connector-curvature="0"
         id="path5245"
         d="m 53.894456,143.66785 c 5.633202,5.58308 8.022968,6.301 11.849136,9.17353 -2.639575,-4.20453 -5.65506,-8.40907 -5.351223,-12.6136 15.031181,-3.73114 23.549114,-4.41968 31.725105,1.14669 L 77.592727,162.0149 c -4.029352,1.85543 -5.062583,-3.77944 -7.262373,-6.49791 l 1.528921,10.70245 -4.968993,2.67561 c 2.040416,6.16405 8.272488,9.59407 15.289208,8.79129 l 32.48957,-8.79129 c 9.0215,-1.76779 18.37118,-3.70554 26.75611,9.55575 l 3.05784,-15.67144 c 0.77218,-8.14652 13.2747,-4.5627 21.40489,-5.35122 l -17.58259,-16.81813 c -0.51006,-7.89985 11.89525,-5.55992 17.96482,-6.88014 l -25.22719,-14.52475 c -1.36204,-3.73078 6.18092,-5.9774 10.32021,-8.79129 l -30.57842,-8.7913 c 3.72994,-3.689885 0.98955,-8.304101 -2.29337,-12.995822 -5.74916,4.966749 -10.4736,10.079887 -9.17353,16.053672 -12.025375,-4.35215 -29.006833,13.8021 -46.632079,18.72928 -16.290043,8.80974 -19.344889,-0.87044 -24.080502,12.23136 1.452592,3.98972 4.86336,8.23903 12.995826,10.32022 z"
         style="fill:#ffffff;stroke:none" />
      <path
         transform="translate(-4.204532,750.0688)"
         d="m 106.64222,121.88074 c 0,2.7443 -2.13913,4.96899 -4.77788,4.96899 -2.638747,0 -4.777876,-2.22469 -4.777876,-4.96899 0,-2.7443 2.139129,-4.96899 4.777876,-4.96899 2.63875,0 4.77788,2.22469 4.77788,4.96899 z"
         sodipodi:ry="4.9689922"
         sodipodi:rx="4.7778773"
         sodipodi:cy="121.88074"
         sodipodi:cx="101.86434"
         id="path5247"
         style="fill:#deaa87;stroke:none"
         sodipodi:type="arc" />
    </g>
  </g>
</svg>
