<?xml version="1.0" encoding="UTF-8" standalone="no"?>
<!-- Created with Inkscape (http://www.inkscape.org/) -->

<svg
   xmlns:dc="http://purl.org/dc/elements/1.1/"
   xmlns:cc="http://creativecommons.org/ns#"
   xmlns:rdf="http://www.w3.org/1999/02/22-rdf-syntax-ns#"
   xmlns:svg="http://www.w3.org/2000/svg"
   xmlns="http://www.w3.org/2000/svg"
   xmlns:xlink="http://www.w3.org/1999/xlink"
   xmlns:sodipodi="http://sodipodi.sourceforge.net/DTD/sodipodi-0.dtd"
   xmlns:inkscape="http://www.inkscape.org/namespaces/inkscape"
   width="200"
   height="300"
   id="svg5382"
   version="1.1"
   inkscape:version="0.48.3.1 r9886"
   sodipodi:docname="antibiotics.svg">
  <defs
     id="defs5384" />
  <sodipodi:namedview
     id="base"
     pagecolor="#ffffff"
     bordercolor="#666666"
     borderopacity="1.0"
     inkscape:pageopacity="0"
     inkscape:pageshadow="2"
     inkscape:zoom="2.3218276"
     inkscape:cx="99.502513"
     inkscape:cy="147.4583"
     inkscape:document-units="px"
     inkscape:current-layer="layer1"
     showgrid="false"
     inkscape:showpageshadow="false"
     inkscape:window-width="733"
     inkscape:window-height="945"
     inkscape:window-x="267"
     inkscape:window-y="0"
     inkscape:window-maximized="0"
     borderlayer="true" />
  <metadata
     id="metadata5387">
    <rdf:RDF>
      <cc:Work
         rdf:about="">
        <dc:format>image/svg+xml</dc:format>
        <dc:type
           rdf:resource="http://purl.org/dc/dcmitype/StillImage" />
        <dc:title />
      </cc:Work>
    </rdf:RDF>
  </metadata>
  <g
     inkscape:label="Layer 1"
     inkscape:groupmode="layer"
     id="layer1"
     transform="translate(0,-752.36218)">
    <rect
       style="fill:#ffffff;stroke:none"
       id="rect5598"
       width="204.38741"
       height="316.13028"
       x="-2.6911893"
       y="746.83875" />
    <text
       xml:space="preserve"
       style="font-size:33.21516418px;font-style:normal;font-weight:normal;line-height:125%;letter-spacing:0px;word-spacing:0px;fill:#000000;fill-opacity:1;stroke:none;font-family:Sans"
       x="6.8688507"
       y="1047.2317"
       id="text5494"
       sodipodi:linespacing="125%"
       transform="scale(1.0637976,0.94002845)"><tspan
         sodipodi:role="line"
         id="tspan5496"
         x="6.8688507"
         y="1047.2317">Antibiotics</tspan></text>
    <path
       sodipodi:type="star"
       style="fill:#afdde9;stroke:#afdde9"
       id="path3826"
       sodipodi:sides="5"
       sodipodi:cx="11.62877"
       sodipodi:cy="11.003522"
       sodipodi:r1="11.912441"
       sodipodi:r2="5.9562201"
       sodipodi:arg1="0.70862627"
       sodipodi:arg2="1.3369448"
       inkscape:flatsided="false"
       inkscape:rounded="0"
       inkscape:randomized="0"
       d="M 20.67337,18.756036 13.008981,16.79762 7.0506259,22.001106 6.5447633,14.106655 -0.24527837,10.047889 7.1064704,7.1272652 8.8683484,-0.58467595 13.917842,5.5047303 21.796784,4.797255 l -4.23099,6.684084 z"
       transform="translate(10.336685,763.12956)"
       inkscape:transform-center-x="0.85301709"
       inkscape:transform-center-y="-0.29530691" />
    <use
       x="0"
       y="0"
       xlink:href="#path3826"
       inkscape:transform-center-x="6.4283571"
       inkscape:transform-center-y="-14.89743"
       id="use3828"
       transform="matrix(0.88745042,0.46090319,-0.46090319,0.88745042,516.04566,334.56013)"
       width="200"
       height="300" />
    <g
       id="g3050">
      <path
         sodipodi:nodetypes="ccccc"
         inkscape:connector-curvature="0"
         id="path3040"
         d="m 69.772622,873.19298 0.86139,55.55968 c 19.45737,14.11245 37.087238,9.94991 54.267588,1.29209 l 0.8614,-56.85177 c 1.8353,-10.16207 -53.190808,-12.4907 -55.990378,0 z"
         style="fill:#a05a2c;stroke:none" />
      <path
         sodipodi:nodetypes="ccccc"
         inkscape:connector-curvature="0"
         id="path3038"
         d="m 72.787489,851.22752 0.08756,20.57869 c 19.503922,10.08053 42.882328,7.25882 51.595858,0.0947 l -0.43069,-19.81198 z"
         style="fill:#ececec;stroke:none" />
      <path
         transform="matrix(1.0191304,0,0,1,-2.3582969,762.77931)"
         d="m 124.01886,88.313309 a 25.174313,8.8292513 0 1 1 -50.348622,0 25.174313,8.8292513 0 1 1 50.348622,0 z"
         sodipodi:ry="8.8292513"
         sodipodi:rx="25.174313"
         sodipodi:cy="88.313309"
         sodipodi:cx="98.844551"
         id="path3036"
         style="fill:#f9f9f9;stroke:none"
         sodipodi:type="arc" />
      <path
         sodipodi:nodetypes="ccccc"
         transform="translate(0,752.36218)"
         inkscape:connector-curvature="0"
         id="path3046"
         d="m 79.75336,131.71208 -0.505443,32.61894 c 15.192535,6.07285 38.183353,7.11044 45.913533,-3.16437 l 0.48765,-29.81052 c -5.87249,3.14406 -31.310984,8.34136 -45.89574,0.35595 z"
         style="fill:#f2f2f2;stroke:none" />
    </g>
    <g
       id="g3060">
      <path
         sodipodi:nodetypes="ccccc"
         transform="translate(0,752.36218)"
         inkscape:connector-curvature="0"
         id="path3056"
         d="m 149.20967,163.80077 7.56338,-3.34602 6.02974,12.05947 -7.96422,2.92527 c -8.69291,4.25221 -15.27216,-6.14607 -5.6289,-11.63872 z"
         style="fill:#ff00ff;stroke:none" />
      <path
         sodipodi:nodetypes="cccc"
         transform="translate(0,752.36218)"
         inkscape:connector-curvature="0"
         id="path3058"
         d="m 156.66289,160.43484 c 4.67714,-1.83642 15.70991,-7.53154 17.86822,-0.67092 3.07772,7.77344 -7.99593,10.71676 -11.80862,12.76025 z"
         style="fill:#ffeeaa;stroke:none" />
    </g>
  </g>
</svg>
