<?xml version="1.0" encoding="UTF-8" standalone="no"?>
<!-- Created with Inkscape (http://www.inkscape.org/) -->

<svg
   xmlns:dc="http://purl.org/dc/elements/1.1/"
   xmlns:cc="http://creativecommons.org/ns#"
   xmlns:rdf="http://www.w3.org/1999/02/22-rdf-syntax-ns#"
   xmlns:svg="http://www.w3.org/2000/svg"
   xmlns="http://www.w3.org/2000/svg"
   xmlns:xlink="http://www.w3.org/1999/xlink"
   xmlns:sodipodi="http://sodipodi.sourceforge.net/DTD/sodipodi-0.dtd"
   xmlns:inkscape="http://www.inkscape.org/namespaces/inkscape"
   width="200"
   height="300"
   id="svg5382"
   version="1.1"
   inkscape:version="0.48.3.1 r9886"
   sodipodi:docname="ash.svg">
  <defs
     id="defs5384" />
  <sodipodi:namedview
     id="base"
     pagecolor="#ffffff"
     bordercolor="#666666"
     borderopacity="1.0"
     inkscape:pageopacity="0"
     inkscape:pageshadow="2"
     inkscape:zoom="2.2173352"
     inkscape:cx="99.978465"
     inkscape:cy="150.71064"
     inkscape:document-units="px"
     inkscape:current-layer="layer1"
     showgrid="false"
     inkscape:showpageshadow="false"
     inkscape:window-width="674"
     inkscape:window-height="885"
     inkscape:window-x="205"
     inkscape:window-y="16"
     inkscape:window-maximized="0"
     borderlayer="true" />
  <metadata
     id="metadata5387">
    <rdf:RDF>
      <cc:Work
         rdf:about="">
        <dc:format>image/svg+xml</dc:format>
        <dc:type
           rdf:resource="http://purl.org/dc/dcmitype/StillImage" />
        <dc:title></dc:title>
      </cc:Work>
    </rdf:RDF>
  </metadata>
  <g
     inkscape:label="Layer 1"
     inkscape:groupmode="layer"
     id="layer1"
     transform="translate(0,-752.36218)">
    <rect
       style="fill:#ffffff;stroke:none"
       id="rect5598"
       width="203.35323"
       height="303.96848"
       x="-1.698148"
       y="749.6673" />
    <text
       xml:space="preserve"
       style="font-size:33.21516418px;font-style:normal;font-weight:normal;line-height:125%;letter-spacing:0px;word-spacing:0px;fill:#000000;fill-opacity:1;stroke:none;font-family:Sans"
       x="103.20121"
       y="1058.1544"
       id="text5494"
       sodipodi:linespacing="125%"
       transform="scale(1.0637976,0.94002845)"><tspan
         sodipodi:role="line"
         id="tspan5496"
         x="103.20121"
         y="1058.1544">Ash</tspan></text>
    <g
       id="g5280"
       transform="matrix(0.3658131,0,0,0.36284405,-18.689034,452.89915)"
       style="fill:#ffe680;stroke:#ffffff">
      <path
         sodipodi:nodetypes="cccccc"
         transform="translate(0,752.36218)"
         inkscape:connector-curvature="0"
         id="path5272"
         d="M 65.743592,166.21944 71.859275,105.82707 110.46452,86.715557 105.1133,118.82289 87.530712,185.33094 z"
         style="fill:#ffe680;stroke:#ffffff;stroke-width:1px;stroke-linecap:butt;stroke-linejoin:miter;stroke-opacity:1" />
      <path
         transform="translate(0,752.36218)"
         inkscape:connector-curvature="0"
         id="path5274"
         d="m 110.08229,87.862248 -6.11568,32.107332 18.34705,-9.93798 z"
         style="fill:#ffe680;stroke:#ffffff;stroke-width:1px;stroke-linecap:butt;stroke-linejoin:miter;stroke-opacity:1" />
      <path
         sodipodi:nodetypes="ccccc"
         transform="translate(0,752.36218)"
         inkscape:connector-curvature="0"
         id="path5276"
         d="m 104.34884,118.82289 16.81813,-7.6446 -16.05367,59.62791 -16.818127,13.76028 z"
         style="fill:#ffe680;stroke:#ffffff;stroke-width:1px;stroke-linecap:butt;stroke-linejoin:miter;stroke-opacity:1" />
      <path
         sodipodi:nodetypes="cc"
         transform="translate(0,752.36218)"
         inkscape:connector-curvature="0"
         id="path5278"
         d="m 73.388195,105.82707 30.578415,12.61359"
         style="fill:#ffe680;stroke:#ffffff;stroke-width:1px;stroke-linecap:butt;stroke-linejoin:miter;stroke-opacity:1" />
    </g>
    <use
       x="0"
       y="0"
       xlink:href="#g5280"
       id="use5571"
       transform="matrix(-1,0,0,-1,198.25878,1803.0886)"
       width="200"
       height="300" />
    <g
       id="g3891"
       transform="translate(-2.7059509,16.686697)">
      <path
         sodipodi:nodetypes="cccc"
         transform="translate(0,752.36218)"
         inkscape:connector-curvature="0"
         id="path3885"
         d="M 88.3037,128.06251 C 79.047215,128.55312 55.61435,162.3085 41.180091,178.15788 37.864273,188.36483 186.52639,197.29829 177.45647,176.45973 147.73888,160.32732 104.19921,127.10476 88.3037,128.06251 z"
         style="fill:#b3b3b3;stroke:none" />
      <path
         sodipodi:nodetypes="cccccc"
         style="fill:#333333;stroke:none"
         d="m 81.785807,901.22701 c -4.232056,1.70006 -8.371872,3.09961 -14.284422,10.27467 1.301604,5.0683 3.571946,9.53544 7.466857,12.99443 10.768763,7.27975 12.705557,2.22768 18.829465,3.02196 2.76303,-3.96903 4.91678,-9.63951 6.817563,-16.01639 -3.813607,-5.33537 -9.824342,-8.9664 -18.829463,-10.27467 z"
         id="path3879"
         inkscape:connector-curvature="0" />
      <path
         sodipodi:nodetypes="cccccc"
         inkscape:connector-curvature="0"
         id="path3881"
         d="m 131.57286,909.71775 c -5.66891,0.17937 -9.33701,3.2287 -11.00434,9.14797 l 5.75227,11.5695 c 3.32433,4.14777 7.85269,5.70491 14.50572,2.69058 2.72441,-3.91534 5.75036,-7.57115 5.25208,-14.26008 z"
         style="fill:#333333;stroke:none" />
      <path
         sodipodi:nodetypes="cccccc"
         style="fill:#333333;stroke:none"
         d="m 108.54536,884.17677 c -4.65917,3.23029 -6.6001,9.14799 -8.10857,15.49326 3.16269,4.15715 5.45257,9.40532 11.92625,9.42369 l 17.62301,-4.61735 c 1.49898,-6.40927 1.80064,-12.53938 -0.7817,-17.99709 -6.22892,-4.76958 -13.47589,-3.34165 -20.65899,-2.30251 z"
         id="path3883"
         inkscape:connector-curvature="0" />
      <path
         sodipodi:nodetypes="cccc"
         inkscape:connector-curvature="0"
         id="path3887"
         d="m 71.450712,909.02488 c 0.217755,3.82238 0.625254,9.12615 1.849768,10.12824 1.615303,1.58368 7.773071,3.88148 12.159953,5.15509 -6.500849,-3.17182 -11.933897,-6.69264 -14.009721,-15.28333 z"
         style="fill:#ff0000;stroke:none" />
      <path
         sodipodi:nodetypes="ccccccccc"
         transform="translate(0,752.36218)"
         inkscape:connector-curvature="0"
         id="path3889"
         d="M 110.042,68.641205 C 117.73483,65.111581 131.83311,53.708599 126.2777,36.620787 116.39627,28.857254 108.93015,16.061821 85.237451,37.071779 72.311261,52.961948 63.027261,70.07322 70.354721,87.131869 76.991104,107.75319 91.910185,104.10106 98.316216,124.1132 99.593356,106.22385 79.558927,97.35435 78.021582,88.033853 78.046329,75.428916 75.726333,63.250295 88.394393,48.346574 106.23358,28.74522 114.04568,35.257636 117.70886,45.189632 c 1.58968,7.817191 -0.32082,13.830415 -7.66686,23.451573 z"
         style="fill:#f2f2f2;stroke:none" />
    </g>
  </g>
</svg>
