<?xml version="1.0" encoding="UTF-8" standalone="no"?>
<!-- Created with Inkscape (http://www.inkscape.org/) -->

<svg
   xmlns:dc="http://purl.org/dc/elements/1.1/"
   xmlns:cc="http://creativecommons.org/ns#"
   xmlns:rdf="http://www.w3.org/1999/02/22-rdf-syntax-ns#"
   xmlns:svg="http://www.w3.org/2000/svg"
   xmlns="http://www.w3.org/2000/svg"
   xmlns:xlink="http://www.w3.org/1999/xlink"
   xmlns:sodipodi="http://sodipodi.sourceforge.net/DTD/sodipodi-0.dtd"
   xmlns:inkscape="http://www.inkscape.org/namespaces/inkscape"
   width="200"
   height="300"
   id="svg5382"
   version="1.1"
   inkscape:version="0.48.3.1 r9886"
   sodipodi:docname="balrog.svg">
  <defs
     id="defs5384">
    <linearGradient
       inkscape:collect="always"
       id="linearGradient4882">
      <stop
         style="stop-color:#000000;stop-opacity:1;"
         offset="0"
         id="stop4884" />
      <stop
         style="stop-color:#000000;stop-opacity:0;"
         offset="1"
         id="stop4886" />
    </linearGradient>
    <filter
       inkscape:collect="always"
       id="filter4799"
       x="-0.12776067"
       width="1.2555213"
       y="-0.11312816"
       height="1.2262563">
      <feGaussianBlur
         inkscape:collect="always"
         stdDeviation="5.4017306"
         id="feGaussianBlur4801" />
    </filter>
    <filter
       inkscape:collect="always"
       id="filter4803">
      <feGaussianBlur
         inkscape:collect="always"
         stdDeviation="1.0547592"
         id="feGaussianBlur4805" />
    </filter>
    <filter
       inkscape:collect="always"
       id="filter4807">
      <feGaussianBlur
         inkscape:collect="always"
         stdDeviation="3.6815683"
         id="feGaussianBlur4809" />
    </filter>
    <filter
       inkscape:collect="always"
       id="filter4872">
      <feGaussianBlur
         inkscape:collect="always"
         stdDeviation="2.3709733"
         id="feGaussianBlur4874" />
    </filter>
    <filter
       inkscape:collect="always"
       id="filter4876">
      <feGaussianBlur
         inkscape:collect="always"
         stdDeviation="1.3022774"
         id="feGaussianBlur4878" />
    </filter>
    <radialGradient
       inkscape:collect="always"
       xlink:href="#linearGradient4882"
       id="radialGradient4896"
       cx="119.40064"
       cy="141.48932"
       fx="119.40064"
       fy="141.48932"
       r="81.710846"
       gradientTransform="matrix(1,0,0,1.005631,0,-0.79672592)"
       gradientUnits="userSpaceOnUse" />
  </defs>
  <sodipodi:namedview
     id="base"
     pagecolor="#ffffff"
     bordercolor="#666666"
     borderopacity="1.0"
     inkscape:pageopacity="0"
     inkscape:pageshadow="2"
     inkscape:zoom="2.1733551"
     inkscape:cx="99.978461"
     inkscape:cy="149.99905"
     inkscape:document-units="px"
     inkscape:current-layer="layer1"
     showgrid="false"
     inkscape:showpageshadow="false"
     inkscape:window-width="727"
     inkscape:window-height="863"
     inkscape:window-x="318"
     inkscape:window-y="40"
     inkscape:window-maximized="0"
     borderlayer="true" />
  <metadata
     id="metadata5387">
    <rdf:RDF>
      <cc:Work
         rdf:about="">
        <dc:format>image/svg+xml</dc:format>
        <dc:type
           rdf:resource="http://purl.org/dc/dcmitype/StillImage" />
        <dc:title></dc:title>
      </cc:Work>
    </rdf:RDF>
  </metadata>
  <g
     inkscape:label="Layer 1"
     inkscape:groupmode="layer"
     id="layer1"
     transform="translate(0,-752.36218)">
    <rect
       style="fill:#ffffff;stroke:#000000;stroke-width:3.92711401"
       id="rect5598"
       width="198.74867"
       height="296.06989"
       x="0.60412431"
       y="754.32819" />
    <text
       xml:space="preserve"
       style="font-size:33.21516418px;font-style:normal;font-weight:normal;line-height:125%;letter-spacing:0px;word-spacing:0px;fill:#ff0000;fill-opacity:1;stroke:none;font-family:Sans"
       x="44.500042"
       y="1058.406"
       id="text5494"
       sodipodi:linespacing="125%"
       transform="scale(1.0637976,0.94002845)"><tspan
         sodipodi:role="line"
         id="tspan5496"
         x="44.500042"
         y="1058.406">Balrog</tspan></text>
    <g
       id="g4773"
       transform="matrix(0.29965369,0,0,0.29965369,4.840269,529.26179)">
      <path
         sodipodi:nodetypes="cccccccccc"
         inkscape:connector-curvature="0"
         id="path5305"
         d="m 36.680435,883.17926 -1.14669,-11.08468 c -3.058709,-8.27212 -4.445972,-14.67194 -11.466906,-25.60943 -5.190684,-6.48917 -7.648876,-14.41431 -4.204532,-27.52056 2.582894,-31.72234 26.927315,-32.82007 44.338701,-32.48957 25.580442,0.16559 47.305632,8.88755 45.867622,31.34288 4.59667,26.52111 -1.00175,26.53636 -6.49792,32.87179 -8.56235,10.44961 -13.7303,19.21647 -16.43589,28.28503 l -2.67561,7.26238 z"
         style="fill:#1a1a1a;stroke:none" />
      <path
         sodipodi:nodetypes="ccccc"
         inkscape:connector-curvature="0"
         id="path5307"
         d="m 42.796118,815.90675 c -5.97188,-0.0888 -9.060468,2.129 -9.937985,6.11568 0.256811,11.46093 6.939867,14.34558 13.760287,16.05367 8.47367,-0.82727 15.284795,-3.31708 15.671438,-12.23137 -1.230646,-4.93336 -5.123894,-9.04745 -19.49374,-9.93798 z"
         style="fill:#ffffff;stroke:none" />
      <path
         inkscape:transform-center-y="20.64043"
         inkscape:transform-center-x="-14.715867"
         sodipodi:nodetypes="ccccc"
         inkscape:connector-curvature="0"
         id="path5307-9"
         d="m 90.38378,817.05472 c 5.97188,-0.0888 9.06047,2.129 9.93798,6.11568 -0.25681,11.46093 -6.93986,14.34558 -13.76028,16.05367 -8.47367,-0.82727 -15.2848,-3.31708 -15.67144,-12.23137 1.23065,-4.93336 5.1239,-9.04745 19.49374,-9.93798 z"
         style="fill:#ffffff;stroke:none" />
      <path
         sodipodi:nodetypes="cccc"
         inkscape:connector-curvature="0"
         id="path5338"
         d="m 56.556405,856.80538 c -2.915813,-3.53824 7.890145,-18.23819 9.555755,-14.90698 8.80879,1.37081 6.71645,10.52815 9.17352,16.4359 -9.25562,-7.13719 -14.530072,-5.51584 -18.729275,-1.52892 z"
         style="fill:#ffffff;stroke:none" />
      <g
         style="fill:#ffffff;stroke:#ffffff"
         transform="translate(-35.56107,-39.224656)"
         id="g5350">
        <path
           style="fill:#ffffff;stroke:#ffffff;stroke-width:1px;stroke-linecap:butt;stroke-linejoin:miter;stroke-opacity:1"
           d="m 78.357188,160.10375 -0.764461,14.90698"
           id="path5340"
           inkscape:connector-curvature="0"
           transform="translate(0,752.36218)" />
        <path
           style="fill:#ffffff;stroke:#ffffff;stroke-width:1px;stroke-linecap:butt;stroke-linejoin:miter;stroke-opacity:1"
           d="m 85.619561,161.63267 1.146691,13.76029"
           id="path5342"
           inkscape:connector-curvature="0"
           transform="translate(0,752.36218)" />
        <path
           style="fill:#ffffff;stroke:#ffffff;stroke-width:1px;stroke-linecap:butt;stroke-linejoin:miter;stroke-opacity:1"
           d="m 94.793086,162.77936 -0.38223,14.52475"
           id="path5344"
           inkscape:connector-curvature="0"
           transform="translate(0,752.36218)" />
        <path
           style="fill:#ffffff;stroke:#ffffff;stroke-width:1px;stroke-linecap:butt;stroke-linejoin:miter;stroke-opacity:1"
           d="m 104.73107,163.16159 0,12.23137"
           id="path5346"
           inkscape:connector-curvature="0"
           transform="translate(0,752.36218)" />
        <path
           style="fill:#ffffff;stroke:#ffffff;stroke-width:1px;stroke-linecap:butt;stroke-linejoin:miter;stroke-opacity:1"
           d="m 113.52236,164.30828 -1.14669,13.76029"
           id="path5348"
           inkscape:connector-curvature="0"
           transform="translate(0,752.36218)" />
      </g>
    </g>
    <use
       x="0"
       y="0"
       xlink:href="#g4773"
       id="use4785"
       transform="matrix(-0.99841403,0.05629759,-0.05629759,-0.99841403,246.44528,1804.3429)"
       width="200"
       height="300" />
    <g
       id="g4898">
      <path
         transform="translate(-21.165432,742.23958)"
         d="m 200.61149,141.48932 a 81.210846,81.670959 0 1 1 -162.421694,0 81.210846,81.670959 0 1 1 162.421694,0 z"
         sodipodi:ry="81.670959"
         sodipodi:rx="81.210846"
         sodipodi:cy="141.48932"
         sodipodi:cx="119.40064"
         id="path4880"
         style="fill:url(#radialGradient4896);stroke:none;fill-opacity:1"
         sodipodi:type="arc" />
      <path
         sodipodi:nodetypes="ccccccccccccccc"
         transform="translate(0,752.36218)"
         inkscape:connector-curvature="0"
         id="path4863"
         d="m 52.453463,191.87225 c -16.400087,-9.11781 -20.317023,-21.80223 -28.98744,-33.12851 -10.555732,-24.07951 0.541018,-50.45962 6.441653,-72.238537 3.228681,21.763217 14.034765,28.371627 21.625551,41.410627 6.934062,-20.88129 15.829411,-39.409029 17.024369,-67.17724 2.480562,8.444695 4.130732,17.200788 16.104134,22.085668 14.081832,-8.185664 22.3096,-28.079458 33.1285,-42.790983 1.42154,15.872938 -0.91645,33.249687 5.98154,46.932046 12.71887,4.179044 21.67245,-4.820463 32.20826,-8.282126 -10.42934,19.631705 -0.29928,51.256395 -31.28803,58.895115 28.02777,2.36107 34.04874,-12.88331 51.07311,-19.32496 -11.04283,19.93845 -12.76064,39.8769 -33.1285,59.81535 l 24.84638,2.3006 c -28.08074,23.24953 -57.78485,18.68455 -87.422441,18.86484 z"
         style="fill:#ff7f2a;stroke:none;filter:url(#filter4872)" />
      <path
         style="fill:#ffcc00;stroke:none;filter:url(#filter4876)"
         d="M 61.992442,928.85644 C 48.819231,921.1594 45.67299,910.45151 38.708561,900.89014 c -8.47879,-20.32735 0.434567,-42.59682 5.174195,-60.98206 2.593407,18.37199 11.27329,23.95065 17.370515,34.95787 5.569718,-17.62749 12.714822,-33.26817 13.67466,-56.70943 1.992488,7.12881 3.317971,14.5205 12.93549,18.64419 11.311095,-6.91014 17.919969,-23.70401 26.610149,-36.12313 1.14184,13.39956 -0.73613,28.0686 4.80461,39.61892 10.21631,3.52785 17.40819,-4.06932 25.87097,-6.99157 -8.37726,16.57262 -0.24039,43.26943 -25.1318,49.71785 22.51303,1.99316 27.34932,-10.87578 41.02398,-16.31367 -8.87005,16.83157 -10.24986,33.66313 -26.61015,50.4947 l 19.95761,1.94211 c -22.55558,19.6267 -46.41511,15.77305 -70.221223,15.92525 z"
         id="path4865"
         inkscape:connector-curvature="0"
         sodipodi:nodetypes="ccccccccccccccc" />
      <g
         transform="translate(3.2208267,4.601181)"
         id="g4867">
        <path
           style="fill:#4d4d4d;stroke:none"
           d="m 55.214172,95.247447 c -13.494447,3.835101 -18.88229,10.372403 -25.306496,16.564253 -1.550421,8.73891 -6.2991,16.83816 -2.30059,26.68685 1.857993,16.62474 12.904957,16.70933 20.245196,23.46602 -2.841085,-7.20114 -6.769488,-12.22764 -7.361889,-23.92614 l 3.680944,-16.56425 c 4.754554,-0.87465 9.509107,-8.19967 14.263661,3.22083 l 2.300591,20.24519 7.822007,11.04284 3.220827,-10.58272 19.785079,0.46012 5.061298,12.42319 17.02437,-12.42319 1.84047,-24.84638 c 5.24595,-2.11291 12.00645,4.86142 18.40473,9.66248 1.00999,8.60383 3.97647,16.0767 -2.30059,23.46602 l -20.2452,17.02437 c 14.55854,-2.48166 29.89334,-3.15203 40.95051,-13.80354 2.78663,-12.99564 5.50821,-26.01729 2.30059,-41.41063 -7.65219,-7.56913 -14.67634,-15.24293 -29.44756,-21.625549 -10.70104,-2.453963 -15.275,-4.907927 -33.588619,-7.36189 -21.237254,0.936546 -25.56271,3.691051 -36.349329,8.282126 z"
           id="path4855"
           inkscape:connector-curvature="0"
           transform="translate(0,752.36218)"
           sodipodi:nodetypes="cccccccccccccccccccccc" />
        <path
           style="fill:#ff0000;stroke:none"
           d="m 59.355234,868.77506 20.705315,3.68095 -8.742244,6.44165 z"
           id="path4857"
           inkscape:connector-curvature="0" />
        <path
           style="fill:#ff0000;stroke:none"
           d="m 89.474493,873.47851 7.859484,5.77865 13.655043,-12.53506 z"
           id="path4859"
           inkscape:connector-curvature="0"
           sodipodi:nodetypes="cccc" />
      </g>
    </g>
  </g>
</svg>
