<?xml version="1.0" encoding="UTF-8" standalone="no"?>
<!-- Created with Inkscape (http://www.inkscape.org/) -->

<svg
   xmlns:dc="http://purl.org/dc/elements/1.1/"
   xmlns:cc="http://creativecommons.org/ns#"
   xmlns:rdf="http://www.w3.org/1999/02/22-rdf-syntax-ns#"
   xmlns:svg="http://www.w3.org/2000/svg"
   xmlns="http://www.w3.org/2000/svg"
   xmlns:xlink="http://www.w3.org/1999/xlink"
   xmlns:sodipodi="http://sodipodi.sourceforge.net/DTD/sodipodi-0.dtd"
   xmlns:inkscape="http://www.inkscape.org/namespaces/inkscape"
   width="200"
   height="300"
   id="svg5382"
   version="1.1"
   inkscape:version="0.48.3.1 r9886"
   sodipodi:docname="brex.svg">
  <defs
     id="defs5384" />
  <sodipodi:namedview
     id="base"
     pagecolor="#ffffff"
     bordercolor="#666666"
     borderopacity="1.0"
     inkscape:pageopacity="0"
     inkscape:pageshadow="2"
     inkscape:zoom="2.2585625"
     inkscape:cx="99.502513"
     inkscape:cy="147.4583"
     inkscape:document-units="px"
     inkscape:current-layer="layer1"
     showgrid="false"
     inkscape:showpageshadow="false"
     inkscape:window-width="1017"
     inkscape:window-height="925"
     inkscape:window-x="267"
     inkscape:window-y="0"
     inkscape:window-maximized="0"
     borderlayer="true" />
  <metadata
     id="metadata5387">
    <rdf:RDF>
      <cc:Work
         rdf:about="">
        <dc:format>image/svg+xml</dc:format>
        <dc:type
           rdf:resource="http://purl.org/dc/dcmitype/StillImage" />
        <dc:title />
      </cc:Work>
    </rdf:RDF>
  </metadata>
  <g
     inkscape:label="Layer 1"
     inkscape:groupmode="layer"
     id="layer1"
     transform="translate(0,-752.36218)">
    <rect
       style="fill:#ffffff;stroke:none"
       id="rect5598"
       width="204.38741"
       height="316.13028"
       x="-2.6911893"
       y="746.83875" />
    <text
       xml:space="preserve"
       style="font-size:24px;font-style:normal;font-variant:normal;font-weight:normal;font-stretch:normal;text-align:start;line-height:125%;letter-spacing:0px;word-spacing:0px;writing-mode:lr-tb;text-anchor:start;fill:#000000;fill-opacity:1;stroke:none;font-family:URW Bookman L;-inkscape-font-specification:URW Bookman L"
       x="21.039152"
       y="1060.9769"
       id="text5494"
       sodipodi:linespacing="125%"
       transform="scale(1.0637976,0.94002845)"><tspan
         sodipodi:role="line"
         id="tspan5496"
         x="21.039152"
         y="1060.9769">Blastosaurus</tspan><tspan
         sodipodi:role="line"
         x="21.039152"
         y="1090.9769"
         id="tspan7073">rex</tspan></text>
    <path
       sodipodi:type="star"
       style="fill:#ffff00;stroke:#ffd42a"
       id="path3826"
       sodipodi:sides="5"
       sodipodi:cx="11.62877"
       sodipodi:cy="11.003522"
       sodipodi:r1="11.912441"
       sodipodi:r2="5.9562201"
       sodipodi:arg1="0.70862627"
       sodipodi:arg2="1.3369448"
       inkscape:flatsided="false"
       inkscape:rounded="0"
       inkscape:randomized="0"
       d="M 20.67337,18.756036 13.008981,16.79762 7.0506259,22.001106 6.5447633,14.106655 -0.24527837,10.047889 7.1064704,7.1272652 8.8683484,-0.58467595 13.917842,5.5047303 21.796784,4.797255 l -4.23099,6.684084 z"
       transform="translate(10.336685,763.12956)"
       inkscape:transform-center-x="0.85301709"
       inkscape:transform-center-y="-0.29530691" />
    <use
       x="0"
       y="0"
       xlink:href="#path3826"
       inkscape:transform-center-x="6.4283571"
       inkscape:transform-center-y="-14.89743"
       id="use3828"
       transform="matrix(0.88745042,0.46090319,-0.46090319,0.88745042,516.04566,334.56013)"
       width="200"
       height="300" />
    <g
       id="g7300">
      <g
         id="g7261">
        <path
           style="fill:#ffeeaa;stroke:none;stroke-width:1px;stroke-linecap:butt;stroke-linejoin:miter;stroke-opacity:1"
           d="m 31.871445,136.76652 8.183208,15.50503 -0.430695,-15.93573 z"
           id="path7247"
           inkscape:connector-curvature="0"
           transform="translate(0,752.36218)" />
        <path
           style="fill:#ffeeaa;stroke:none;stroke-width:1px;stroke-linecap:butt;stroke-linejoin:miter;stroke-opacity:1"
           d="m 49.099253,137.19721 2.584171,12.05947 5.168342,-12.05947 z"
           id="path7249"
           inkscape:connector-curvature="0"
           transform="translate(0,752.36218)" />
        <path
           style="fill:#ffeeaa;stroke:none;stroke-width:1px;stroke-linecap:butt;stroke-linejoin:miter;stroke-opacity:1"
           d="m 63.742889,137.19721 2.153476,9.4753 2.153476,-11.19808 z"
           id="path7251"
           inkscape:connector-curvature="0"
           transform="translate(0,752.36218)" />
        <path
           style="fill:#ffeeaa;stroke:none;stroke-width:1px;stroke-linecap:butt;stroke-linejoin:miter;stroke-opacity:1"
           d="m 46.515081,162.60823 -3.876256,-8.6139 9.905989,6.46043 z"
           id="path7253"
           inkscape:connector-curvature="0"
           transform="translate(0,752.36218)" />
        <path
           style="fill:#ffeeaa;stroke:none;stroke-width:1px;stroke-linecap:butt;stroke-linejoin:miter;stroke-opacity:1"
           d="m 60.297328,158.73197 -2.153476,-11.62877 7.321818,9.4753 z"
           id="path7255"
           inkscape:connector-curvature="0"
           transform="translate(0,752.36218)" />
        <path
           style="fill:#ffeeaa;stroke:none;stroke-width:1px;stroke-linecap:butt;stroke-linejoin:miter;stroke-opacity:1"
           d="m 73.218184,151.41016 -1.722781,-8.18321 6.891123,7.32182 z"
           id="path7257"
           inkscape:connector-curvature="0"
           transform="translate(0,752.36218)" />
        <path
           style="fill:#ffeeaa;stroke:none;stroke-width:1px;stroke-linecap:butt;stroke-linejoin:miter;stroke-opacity:1"
           d="m 78.386526,133.75165 0.861391,8.18321 3.445561,-8.18321 z"
           id="path7259"
           inkscape:connector-curvature="0"
           transform="translate(0,752.36218)" />
      </g>
      <g
         transform="translate(8.613904,-0.8613904)"
         id="g7270">
        <path
           transform="translate(0,752.36218)"
           inkscape:connector-curvature="0"
           id="path7272"
           d="m 31.871445,136.76652 8.183208,15.50503 -0.430695,-15.93573 z"
           style="fill:#ffeeaa;stroke:none" />
        <path
           transform="translate(0,752.36218)"
           inkscape:connector-curvature="0"
           id="path7274"
           d="m 49.099253,137.19721 2.584171,12.05947 5.168342,-12.05947 z"
           style="fill:#ffeeaa;stroke:none" />
        <path
           transform="translate(0,752.36218)"
           inkscape:connector-curvature="0"
           id="path7276"
           d="m 63.742889,137.19721 2.153476,9.4753 2.153476,-11.19808 z"
           style="fill:#ffeeaa;stroke:none" />
        <path
           transform="translate(0,752.36218)"
           inkscape:connector-curvature="0"
           id="path7278"
           d="m 46.515081,162.60823 -3.876256,-8.6139 9.905989,6.46043 z"
           style="fill:#ffeeaa;stroke:none" />
        <path
           transform="translate(0,752.36218)"
           inkscape:connector-curvature="0"
           id="path7280"
           d="m 60.297328,158.73197 -2.153476,-11.62877 7.321818,9.4753 z"
           style="fill:#ffeeaa;stroke:none" />
        <path
           transform="translate(0,752.36218)"
           inkscape:connector-curvature="0"
           id="path7282"
           d="m 73.218184,151.41016 -1.722781,-8.18321 6.891123,7.32182 z"
           style="fill:#ffeeaa;stroke:none" />
        <path
           transform="translate(0,752.36218)"
           inkscape:connector-curvature="0"
           id="path7284"
           d="m 78.386526,133.75165 0.861391,8.18321 3.445561,-8.18321 z"
           style="fill:#ffeeaa;stroke:none" />
      </g>
      <path
         sodipodi:nodetypes="ccccccccccccccc"
         transform="translate(0,752.36218)"
         inkscape:connector-curvature="0"
         id="path7243"
         d="m 20.242674,131.16748 6.029733,-16.36642 C 39.729963,98.766009 53.631097,93.003233 65.034975,87.236572 85.722532,70.537546 91.594512,75.894931 105.08963,68.285983 c 17.85703,-12.104822 21.74261,-6.49991 31.87145,-6.460428 25.54599,4.828986 24.32862,12.038093 31.87144,20.242674 14.72139,18.497961 19.55673,25.948051 24.98032,41.346741 l 1.29208,83.55487 c -13.39259,2.24378 -23.69399,-8.04941 -32.73283,-17.22781 -9.0446,-9.90599 -25.66817,-19.97215 -50.82203,-25.84172 -20.960504,2.15348 -34.209175,5.59227 -62.881503,6.46044 l -8.613904,-4.73765 c 10.574779,-7.62844 44.505171,-23.8318 66.757757,-35.7477 -27.40211,11.49218 -63.168184,18.09275 -85.708345,6.46042 z"
         style="fill:#c83737;stroke:none" />
      <path
         sodipodi:nodetypes="cccc"
         transform="translate(0,752.36218)"
         inkscape:connector-curvature="0"
         id="path7286"
         d="m 89.584601,94.989085 c 8.271035,-7.887637 18.267799,-7.146629 27.564489,-9.905989 -4.19672,5.108239 -0.85314,9.378665 -14.21294,15.505024 -5.560094,0.72267 -11.151421,1.51822 -13.351549,-5.599035 z"
         style="fill:#ffff00;stroke:none;stroke-width:1px;stroke-linecap:butt;stroke-linejoin:miter;stroke-opacity:1" />
      <path
         sodipodi:nodetypes="cccc"
         transform="translate(0,752.36218)"
         inkscape:connector-curvature="0"
         id="path7288"
         d="m 140.5589,62.356272 -4.45922,43.400198 18.7722,-37.822804 C 152.11034,65.404715 146.967,63.669702 140.5589,62.356272 z"
         style="fill:#ff6600;stroke:none;stroke-width:1px;stroke-linecap:butt;stroke-linejoin:miter;stroke-opacity:1" />
      <path
         sodipodi:nodetypes="cccc"
         transform="translate(0,752.36218)"
         inkscape:connector-curvature="0"
         id="path7290"
         d="M 161.41067,72.719083 149.88193,105.32577 171.44281,85.135348 C 169.46095,81.219302 164.99738,74.932746 161.41067,72.719083 z"
         style="fill:#ff6600;stroke:none" />
      <path
         sodipodi:nodetypes="cccc"
         transform="translate(0,752.36218)"
         inkscape:connector-curvature="0"
         id="path7292"
         d="m 175.3452,90.503734 -11.68102,18.267596 18.39374,-8.813947 c -1.48836,-3.100458 -2.87384,-6.353191 -6.71272,-9.453649 z"
         style="fill:#ff6600;stroke:none" />
      <path
         sodipodi:nodetypes="cccc"
         transform="translate(0,752.36218)"
         inkscape:connector-curvature="0"
         id="path7294"
         d="m 185.35122,104.69055 -11.35036,17.00164 16.39254,-6.76498 c -0.99256,-3.3107 -2.42562,-6.92596 -5.04218,-10.23666 z"
         style="fill:#ff6600;stroke:none" />
      <path
         sodipodi:nodetypes="cccc"
         transform="translate(0,752.36218)"
         inkscape:connector-curvature="0"
         id="path7296"
         d="m 191.81164,118.95576 -13.93452,13.50381 15.68342,-5.42064 c 1.33617,-3.75427 0.1151,-6.32901 -1.7489,-8.08317 z"
         style="fill:#ff6600;stroke:none" />
      <path
         sodipodi:nodetypes="cccc"
         transform="translate(0,752.36218)"
         inkscape:connector-curvature="0"
         id="path7298"
         d="m 95.636051,92.345797 c -0.579659,1.24486 1.031639,7.530791 1.771038,7.526911 0.853705,-0.114085 2.730841,-7.127636 2.213797,-7.969671 -1.463374,-2.304679 -2.951002,-1.417963 -3.984835,0.44276 z"
         style="fill:#000000;stroke:#000000;stroke-width:1px;stroke-linecap:butt;stroke-linejoin:miter;stroke-opacity:1" />
    </g>
  </g>
</svg>
