<?xml version="1.0" encoding="UTF-8" standalone="no"?>
<!-- Created with Inkscape (http://www.inkscape.org/) -->

<svg
   xmlns:dc="http://purl.org/dc/elements/1.1/"
   xmlns:cc="http://creativecommons.org/ns#"
   xmlns:rdf="http://www.w3.org/1999/02/22-rdf-syntax-ns#"
   xmlns:svg="http://www.w3.org/2000/svg"
   xmlns="http://www.w3.org/2000/svg"
   xmlns:xlink="http://www.w3.org/1999/xlink"
   xmlns:sodipodi="http://sodipodi.sourceforge.net/DTD/sodipodi-0.dtd"
   xmlns:inkscape="http://www.inkscape.org/namespaces/inkscape"
   width="200"
   height="300"
   id="svg5382"
   version="1.1"
   inkscape:version="0.48.3.1 r9886"
   sodipodi:docname="DNA.svg">
  <defs
     id="defs5384">
    <filter
       inkscape:collect="always"
       id="filter6342"
       x="-0.089813667"
       width="1.1796273"
       y="-0.18075004"
       height="1.3615001">
      <feGaussianBlur
         inkscape:collect="always"
         stdDeviation="2.5949387"
         id="feGaussianBlur6344" />
    </filter>
    <filter
       inkscape:collect="always"
       id="filter6350"
       x="-0.036501306"
       width="1.0730026"
       y="-0.16843373"
       height="1.3368675">
      <feGaussianBlur
         inkscape:collect="always"
         stdDeviation="0.87727096"
         id="feGaussianBlur6352" />
    </filter>
  </defs>
  <sodipodi:namedview
     id="base"
     pagecolor="#ffffff"
     bordercolor="#666666"
     borderopacity="1.0"
     inkscape:pageopacity="0"
     inkscape:pageshadow="2"
     inkscape:zoom="2.3218276"
     inkscape:cx="99.502513"
     inkscape:cy="147.4583"
     inkscape:document-units="px"
     inkscape:current-layer="layer1"
     showgrid="false"
     inkscape:showpageshadow="false"
     inkscape:window-width="733"
     inkscape:window-height="945"
     inkscape:window-x="249"
     inkscape:window-y="0"
     inkscape:window-maximized="0"
     borderlayer="true" />
  <metadata
     id="metadata5387">
    <rdf:RDF>
      <cc:Work
         rdf:about="">
        <dc:format>image/svg+xml</dc:format>
        <dc:type
           rdf:resource="http://purl.org/dc/dcmitype/StillImage" />
        <dc:title></dc:title>
      </cc:Work>
    </rdf:RDF>
  </metadata>
  <g
     inkscape:label="Layer 1"
     inkscape:groupmode="layer"
     id="layer1"
     transform="translate(0,-752.36218)">
    <rect
       style="fill:#ffffff;stroke:none"
       id="rect5598"
       width="204.38741"
       height="316.13028"
       x="-2.6911893"
       y="746.83875" />
    <text
       xml:space="preserve"
       style="font-size:33.21516418px;font-style:normal;font-weight:normal;line-height:125%;letter-spacing:0px;word-spacing:0px;fill:#000000;fill-opacity:1;stroke:none;font-family:Sans"
       x="99.178238"
       y="1060.5187"
       id="text5494"
       sodipodi:linespacing="125%"
       transform="scale(1.0637976,0.94002845)"><tspan
         sodipodi:role="line"
         id="tspan5496"
         x="99.178238"
         y="1060.5187">DNA</tspan></text>
    <g
       id="g3960">
      <path
         sodipodi:nodetypes="cccccccccccccccccccccccc"
         inkscape:connector-curvature="0"
         id="path5245"
         d="m 10.654447,774.96282 c 1.419565,1.40693 2.021785,1.58785 2.985978,2.31173 -0.665172,-1.05954 -1.425073,-2.11909 -1.348506,-3.17863 3.787852,-0.94024 5.934369,-1.11375 7.994716,0.28897 l -3.660232,5.20138 c -1.015395,0.46757 -1.275769,-0.95242 -1.830115,-1.63747 l 0.385287,2.69701 -1.252184,0.67426 c 0.514184,1.55333 2.084664,2.4177 3.852875,2.2154 l 8.187361,-2.2154 c 2.273415,-0.44549 4.629531,-0.9338 6.74253,2.40804 l 0.770575,-3.9492 c 0.194589,-2.05292 3.34522,-1.1498 5.394025,-1.3485 l -4.430807,-4.23817 c -0.128535,-1.99075 2.997599,-1.40109 4.527129,-1.73379 l -6.357244,-3.66023 c -0.343233,-0.94016 1.55759,-1.5063 2.60069,-2.2154 l -7.705752,-2.21541 c 0.939944,-0.92985 0.249367,-2.09263 -0.577928,-3.27494 -1.448786,1.25162 -2.639344,2.54013 -2.311727,4.04552 -3.03039,-1.09674 -7.309712,3.47812 -11.751268,4.71977 -4.1050849,2.22005 -4.874905,-0.21935 -6.0682779,3.0823 0.3660527,1.00541 1.2255651,2.07623 3.2749439,2.60069 z"
         style="fill:#d38d5f;stroke:none" />
      <path
         transform="matrix(0.25199966,0,0,0.25199966,-3.9864781,738.18064)"
         d="m 106.64222,121.88074 c 0,2.7443 -2.13913,4.96899 -4.77788,4.96899 -2.638747,0 -4.777876,-2.22469 -4.777876,-4.96899 0,-2.7443 2.139129,-4.96899 4.777876,-4.96899 2.63875,0 4.77788,2.22469 4.77788,4.96899 z"
         sodipodi:ry="4.9689922"
         sodipodi:rx="4.7778773"
         sodipodi:cy="121.88074"
         sodipodi:cx="101.86434"
         id="path5247"
         style="fill:#ffffff;stroke:none"
         sodipodi:type="arc" />
    </g>
    <use
       x="0"
       y="0"
       xlink:href="#g3960"
       id="use3964"
       transform="matrix(-0.99689071,-0.07879671,0.07879671,-0.99689071,138.16759,1801.3474)"
       width="200"
       height="300" />
    <path
       style="fill:none;stroke:#808080;stroke-width:3;stroke-linecap:butt;stroke-linejoin:miter;stroke-opacity:1"
       d="M 63.312194,52.350261 C 61.431974,119.91116 134.96733,151.62484 134.8076,201.3708"
       id="path3106"
       inkscape:connector-curvature="0"
       transform="translate(0,752.36218)"
       sodipodi:nodetypes="cc" />
    <path
       style="fill:none;stroke:#000000;stroke-width:3;stroke-linecap:butt;stroke-linejoin:miter;stroke-opacity:1"
       d="M 136.53038,54.073041 C 136.33838,112.52791 59.224658,145.01366 55.990376,201.80149"
       id="path3108"
       inkscape:connector-curvature="0"
       transform="translate(0,752.36218)"
       sodipodi:nodetypes="cc" />
    <path
       style="fill:none;stroke:#008000;stroke-width:3;stroke-linecap:butt;stroke-linejoin:miter;stroke-opacity:1"
       d="M 65.896365,61.39486 96.90642,66.132507"
       id="path3110"
       inkscape:connector-curvature="0"
       transform="translate(0,752.36218)" />
    <path
       style="fill:none;stroke:#0000ff;stroke-width:3;stroke-linecap:butt;stroke-linejoin:miter;stroke-opacity:1"
       d="m 101.21337,66.563202 27.99519,4.737647"
       id="path3112"
       inkscape:connector-curvature="0"
       transform="translate(0,752.36218)" />
    <path
       inkscape:connector-curvature="0"
       id="path3114"
       d="m 100.49764,935.16205 25.98108,0.10207"
       style="fill:none;stroke:#008000;stroke-width:3;stroke-linecap:butt;stroke-linejoin:miter;stroke-opacity:1"
       inkscape:transform-center-x="-9.4752944"
       inkscape:transform-center-y="7.3218184"
       sodipodi:nodetypes="cc" />
    <path
       inkscape:connector-curvature="0"
       id="path3116"
       d="m 64.118498,934.43004 31.120227,0.7047"
       style="fill:none;stroke:#0000ff;stroke-width:3;stroke-linecap:butt;stroke-linejoin:miter;stroke-opacity:1"
       sodipodi:nodetypes="cc" />
    <path
       style="fill:none;stroke:#800080;stroke-width:3;stroke-linecap:butt;stroke-linejoin:miter;stroke-opacity:1"
       d="m 72.787489,89.820743 22.39615,0"
       id="path3118"
       inkscape:connector-curvature="0"
       transform="translate(0,752.36218)" />
    <path
       style="fill:none;stroke:#d40000;stroke-width:3;stroke-linecap:butt;stroke-linejoin:miter;stroke-opacity:1"
       d="m 100.35198,90.251438 21.96546,-0.86139"
       id="path3120"
       inkscape:connector-curvature="0"
       transform="translate(0,752.36218)" />
    <path
       inkscape:connector-curvature="0"
       id="path3122"
       d="m 78.386526,906.7872 16.797113,2.58417"
       style="fill:none;stroke:#800080;stroke-width:3;stroke-linecap:butt;stroke-linejoin:miter;stroke-opacity:1"
       sodipodi:nodetypes="cc" />
    <path
       inkscape:connector-curvature="0"
       id="path3124"
       d="m 97.767809,909.37137 19.381291,3.01487"
       style="fill:none;stroke:#d40000;stroke-width:3;stroke-linecap:butt;stroke-linejoin:miter;stroke-opacity:1"
       sodipodi:nodetypes="cc" />
  </g>
</svg>
