<?xml version="1.0" encoding="UTF-8" standalone="no"?>
<!-- Created with Inkscape (http://www.inkscape.org/) -->

<svg
   xmlns:dc="http://purl.org/dc/elements/1.1/"
   xmlns:cc="http://creativecommons.org/ns#"
   xmlns:rdf="http://www.w3.org/1999/02/22-rdf-syntax-ns#"
   xmlns:svg="http://www.w3.org/2000/svg"
   xmlns="http://www.w3.org/2000/svg"
   xmlns:xlink="http://www.w3.org/1999/xlink"
   xmlns:sodipodi="http://sodipodi.sourceforge.net/DTD/sodipodi-0.dtd"
   xmlns:inkscape="http://www.inkscape.org/namespaces/inkscape"
   width="200"
   height="300"
   id="svg5382"
   version="1.1"
   inkscape:version="0.48.3.1 r9886"
   sodipodi:docname="explosives.svg">
  <defs
     id="defs5384" />
  <sodipodi:namedview
     id="base"
     pagecolor="#ffffff"
     bordercolor="#666666"
     borderopacity="1.0"
     inkscape:pageopacity="0"
     inkscape:pageshadow="2"
     inkscape:zoom="2.2173352"
     inkscape:cx="99.978465"
     inkscape:cy="150.71064"
     inkscape:document-units="px"
     inkscape:current-layer="layer1"
     showgrid="false"
     inkscape:showpageshadow="false"
     inkscape:window-width="674"
     inkscape:window-height="885"
     inkscape:window-x="220"
     inkscape:window-y="42"
     inkscape:window-maximized="0"
     borderlayer="true" />
  <metadata
     id="metadata5387">
    <rdf:RDF>
      <cc:Work
         rdf:about="">
        <dc:format>image/svg+xml</dc:format>
        <dc:type
           rdf:resource="http://purl.org/dc/dcmitype/StillImage" />
        <dc:title />
      </cc:Work>
    </rdf:RDF>
  </metadata>
  <g
     inkscape:label="Layer 1"
     inkscape:groupmode="layer"
     id="layer1"
     transform="translate(0,-752.36218)">
    <rect
       style="fill:#ffffff;stroke:none"
       id="rect5598"
       width="203.35323"
       height="303.96848"
       x="-1.698148"
       y="749.6673" />
    <text
       xml:space="preserve"
       style="font-size:33.21516418px;font-style:normal;font-weight:normal;line-height:125%;letter-spacing:0px;word-spacing:0px;fill:#000000;fill-opacity:1;stroke:none;font-family:Sans"
       x="9.8669558"
       y="1041.9536"
       id="text5494"
       sodipodi:linespacing="125%"
       transform="scale(1.0637976,0.94002845)"><tspan
         sodipodi:role="line"
         id="tspan5496"
         x="9.8669558"
         y="1041.9536">Explosives</tspan></text>
    <g
       id="g5280"
       transform="matrix(0.3658131,0,0,0.36284405,-18.689034,452.89915)"
       style="fill:#ffe680;stroke:#ffffff">
      <path
         sodipodi:nodetypes="cccccc"
         transform="translate(0,752.36218)"
         inkscape:connector-curvature="0"
         id="path5272"
         d="M 65.743592,166.21944 71.859275,105.82707 110.46452,86.715557 105.1133,118.82289 87.530712,185.33094 z"
         style="fill:#ffe680;stroke:#ffffff;stroke-width:1px;stroke-linecap:butt;stroke-linejoin:miter;stroke-opacity:1" />
      <path
         transform="translate(0,752.36218)"
         inkscape:connector-curvature="0"
         id="path5274"
         d="m 110.08229,87.862248 -6.11568,32.107332 18.34705,-9.93798 z"
         style="fill:#ffe680;stroke:#ffffff;stroke-width:1px;stroke-linecap:butt;stroke-linejoin:miter;stroke-opacity:1" />
      <path
         sodipodi:nodetypes="ccccc"
         transform="translate(0,752.36218)"
         inkscape:connector-curvature="0"
         id="path5276"
         d="m 104.34884,118.82289 16.81813,-7.6446 -16.05367,59.62791 -16.818127,13.76028 z"
         style="fill:#ffe680;stroke:#ffffff;stroke-width:1px;stroke-linecap:butt;stroke-linejoin:miter;stroke-opacity:1" />
      <path
         sodipodi:nodetypes="cc"
         transform="translate(0,752.36218)"
         inkscape:connector-curvature="0"
         id="path5278"
         d="m 73.388195,105.82707 30.578415,12.61359"
         style="fill:#ffe680;stroke:#ffffff;stroke-width:1px;stroke-linecap:butt;stroke-linejoin:miter;stroke-opacity:1" />
    </g>
    <use
       x="0"
       y="0"
       xlink:href="#g5280"
       id="use5571"
       transform="matrix(-1,0,0,-1,198.25878,1803.0886)"
       width="200"
       height="300" />
    <path
       style="fill:#ff7f2a;stroke:none"
       d="M 98.917125,69.900937 40.331017,159.05371 c -14.407628,20.11337 18.890811,36.46984 29.293054,22.07593 L 127.78564,87.306955 z"
       id="path11988"
       inkscape:connector-curvature="0"
       transform="translate(0,752.36218)"
       sodipodi:nodetypes="ccccc" />
    <path
       sodipodi:type="arc"
       style="fill:#ff9955;fill-opacity:1;stroke:none"
       id="path11990"
       sodipodi:cx="117.38448"
       sodipodi:cy="84.972"
       sodipodi:rx="17.618286"
       sodipodi:ry="12.948379"
       d="m 135.00277,84.972 a 17.618286,12.948379 0 1 1 -35.236573,0 17.618286,12.948379 0 1 1 35.236573,0 z"
       transform="matrix(0.82764808,0.44678919,-0.4381991,0.8438726,53.432994,707.02673)" />
    <path
       style="fill:#c8b7b7;stroke:none"
       d="m 112.92685,74.995381 c 8.97015,-7.607975 20.33681,-14.718525 32.68935,-9.339814 10.48221,5.86067 12.07498,19.962526 16.1324,28.019443 l -4.24537,0.424537 c -3.23157,-8.047187 -5.10013,-19.016982 -14.43425,-24.19861 -8.91528,-2.989005 -18.25509,2.901284 -27.17037,8.915277 -4.68555,0.07001 -3.27631,-2.076264 -2.97176,-3.820833 z"
       id="path11992"
       inkscape:connector-curvature="0"
       transform="translate(0,752.36218)"
       sodipodi:nodetypes="ccccccc" />
  </g>
</svg>
