<?xml version="1.0" encoding="UTF-8" standalone="no"?>
<!-- Created with Inkscape (http://www.inkscape.org/) -->

<svg
   xmlns:dc="http://purl.org/dc/elements/1.1/"
   xmlns:cc="http://creativecommons.org/ns#"
   xmlns:rdf="http://www.w3.org/1999/02/22-rdf-syntax-ns#"
   xmlns:svg="http://www.w3.org/2000/svg"
   xmlns="http://www.w3.org/2000/svg"
   xmlns:xlink="http://www.w3.org/1999/xlink"
   xmlns:sodipodi="http://sodipodi.sourceforge.net/DTD/sodipodi-0.dtd"
   xmlns:inkscape="http://www.inkscape.org/namespaces/inkscape"
   width="200"
   height="300"
   id="svg5382"
   version="1.1"
   inkscape:version="0.48.3.1 r9886"
   sodipodi:docname="flint.svg">
  <defs
     id="defs5384" />
  <sodipodi:namedview
     id="base"
     pagecolor="#ffffff"
     bordercolor="#666666"
     borderopacity="1.0"
     inkscape:pageopacity="0"
     inkscape:pageshadow="2"
     inkscape:zoom="2.3555072"
     inkscape:cx="101.35173"
     inkscape:cy="210.92882"
     inkscape:document-units="px"
     inkscape:current-layer="layer1"
     showgrid="false"
     inkscape:showpageshadow="false"
     inkscape:window-width="674"
     inkscape:window-height="885"
     inkscape:window-x="285"
     inkscape:window-y="74"
     inkscape:window-maximized="0"
     borderlayer="true" />
  <metadata
     id="metadata5387">
    <rdf:RDF>
      <cc:Work
         rdf:about="">
        <dc:format>image/svg+xml</dc:format>
        <dc:type
           rdf:resource="http://purl.org/dc/dcmitype/StillImage" />
        <dc:title></dc:title>
      </cc:Work>
    </rdf:RDF>
  </metadata>
  <g
     inkscape:label="Layer 1"
     inkscape:groupmode="layer"
     id="layer1"
     transform="translate(0,-752.36218)">
    <rect
       style="fill:#ffffff;stroke:none"
       id="rect5598"
       width="203.35323"
       height="303.96848"
       x="-1.698148"
       y="749.6673" />
    <text
       xml:space="preserve"
       style="font-size:33.21516418px;font-style:normal;font-weight:normal;line-height:125%;letter-spacing:0px;word-spacing:0px;fill:#000000;fill-opacity:1;stroke:none;font-family:Sans"
       x="98.861099"
       y="1064.9863"
       id="text5494"
       sodipodi:linespacing="125%"
       transform="scale(1.0637976,0.94002845)"><tspan
         sodipodi:role="line"
         id="tspan5496"
         x="98.861099"
         y="1064.9863">Flint</tspan></text>
    <g
       id="g5280"
       transform="matrix(0.3658131,0,0,0.36284405,-18.689034,452.89915)"
       style="fill:#ffe680;stroke:#ffffff">
      <path
         sodipodi:nodetypes="cccccc"
         transform="translate(0,752.36218)"
         inkscape:connector-curvature="0"
         id="path5272"
         d="M 65.743592,166.21944 71.859275,105.82707 110.46452,86.715557 105.1133,118.82289 87.530712,185.33094 z"
         style="fill:#ffe680;stroke:#ffffff;stroke-width:1px;stroke-linecap:butt;stroke-linejoin:miter;stroke-opacity:1" />
      <path
         transform="translate(0,752.36218)"
         inkscape:connector-curvature="0"
         id="path5274"
         d="m 110.08229,87.862248 -6.11568,32.107332 18.34705,-9.93798 z"
         style="fill:#ffe680;stroke:#ffffff;stroke-width:1px;stroke-linecap:butt;stroke-linejoin:miter;stroke-opacity:1" />
      <path
         sodipodi:nodetypes="ccccc"
         transform="translate(0,752.36218)"
         inkscape:connector-curvature="0"
         id="path5276"
         d="m 104.34884,118.82289 16.81813,-7.6446 -16.05367,59.62791 -16.818127,13.76028 z"
         style="fill:#ffe680;stroke:#ffffff;stroke-width:1px;stroke-linecap:butt;stroke-linejoin:miter;stroke-opacity:1" />
      <path
         sodipodi:nodetypes="cc"
         transform="translate(0,752.36218)"
         inkscape:connector-curvature="0"
         id="path5278"
         d="m 73.388195,105.82707 30.578415,12.61359"
         style="fill:#ffe680;stroke:#ffffff;stroke-width:1px;stroke-linecap:butt;stroke-linejoin:miter;stroke-opacity:1" />
    </g>
    <use
       x="0"
       y="0"
       xlink:href="#g5280"
       id="use5571"
       transform="matrix(-1,0,0,-1,198.25878,1803.0886)"
       width="200"
       height="300" />
    <g
       id="g5577"
       transform="translate(5.0944441,20.377777)">
      <path
         sodipodi:nodetypes="cccccccccc"
         transform="translate(0,752.36218)"
         inkscape:connector-curvature="0"
         id="path5573"
         d="M 103.16249,63.532885 C 94.265144,73.634051 84.600991,81.434796 73.444903,84.759735 66.510798,103.06874 59.576694,119.94055 52.642589,134.8551 c 2.337229,16.85214 1.058416,33.10161 -3.396296,48.82176 18.604749,-1.85637 32.97464,3.34535 48.39722,6.79259 10.531257,-7.77329 21.830087,-15.41864 39.057407,-22.07592 -5.4554,-17.14863 0.36242,-35.70641 3.39629,-53.9162 -3.71383,-12.84311 -7.72415,-25.389736 -5.94351,-43.727316 -9.563,-5.240709 -9.83898,-13.964049 -10.61343,-22.500462 -3.89746,8.56861 -10.82045,13.506574 -20.37778,15.283333 z"
         style="fill:#808080;stroke:none" />
      <path
         sodipodi:nodetypes="cccccccccc"
         transform="translate(0,752.36218)"
         inkscape:connector-curvature="0"
         id="path5575"
         d="m 73.86944,109.38288 c -10.172522,12.24157 -9.362517,18.20742 -12.311573,26.3213 1.389236,13.43044 1.984504,25.00828 0,30.56666 l -4.669907,11.4625 c 23.109894,2.54722 27.490826,5.09445 39.481942,7.64167 9.977898,-12.30645 22.203828,-15.62081 34.387498,-19.10417 -4.63113,-7.99409 -2.40559,-13.2455 -1.69815,-19.10416 -26.46945,2.81315 -35.593926,-8.06711 -40.755552,-22.07593 0.0025,-18.32543 10.519384,-34.898464 16.556942,-52.218051 -11.513458,10.277168 -29.623195,10.000289 -30.9912,36.510181 z"
         style="fill:#918a6f;stroke:none" />
    </g>
  </g>
</svg>
