<?xml version="1.0" encoding="UTF-8" standalone="no"?>
<!-- Created with Inkscape (http://www.inkscape.org/) -->

<svg
   xmlns:dc="http://purl.org/dc/elements/1.1/"
   xmlns:cc="http://creativecommons.org/ns#"
   xmlns:rdf="http://www.w3.org/1999/02/22-rdf-syntax-ns#"
   xmlns:svg="http://www.w3.org/2000/svg"
   xmlns="http://www.w3.org/2000/svg"
   xmlns:xlink="http://www.w3.org/1999/xlink"
   xmlns:sodipodi="http://sodipodi.sourceforge.net/DTD/sodipodi-0.dtd"
   xmlns:inkscape="http://www.inkscape.org/namespaces/inkscape"
   width="200"
   height="300"
   id="svg5382"
   version="1.1"
   inkscape:version="0.48.3.1 r9886"
   sodipodi:docname="gear.svg">
  <sodipodi:namedview
     id="base"
     pagecolor="#ffffff"
     bordercolor="#666666"
     borderopacity="1.0"
     inkscape:pageopacity="0"
     inkscape:pageshadow="2"
     inkscape:zoom="2.3555072"
     inkscape:cx="101.35173"
     inkscape:cy="142.29636"
     inkscape:document-units="px"
     inkscape:current-layer="layer1"
     showgrid="false"
     inkscape:showpageshadow="false"
     inkscape:window-width="674"
     inkscape:window-height="885"
     inkscape:window-x="220"
     inkscape:window-y="42"
     inkscape:window-maximized="0"
     borderlayer="true" />
  <defs
     id="defs5384" />
  <metadata
     id="metadata5387">
    <rdf:RDF>
      <cc:Work
         rdf:about="">
        <dc:format>image/svg+xml</dc:format>
        <dc:type
           rdf:resource="http://purl.org/dc/dcmitype/StillImage" />
        <dc:title />
      </cc:Work>
    </rdf:RDF>
  </metadata>
  <g
     inkscape:label="Layer 1"
     inkscape:groupmode="layer"
     id="layer1"
     transform="translate(0,-752.36218)">
    <rect
       style="fill:#ffffff;stroke:none"
       id="rect5598"
       width="203.35323"
       height="303.96848"
       x="-1.698148"
       y="749.6673" />
    <text
       xml:space="preserve"
       style="font-size:33.21516418px;font-style:normal;font-weight:normal;line-height:125%;letter-spacing:0px;word-spacing:0px;fill:#000000;fill-opacity:1;stroke:none;font-family:Sans"
       x="79.306328"
       y="1057.7604"
       id="text5494"
       sodipodi:linespacing="125%"
       transform="scale(1.0637976,0.94002845)"><tspan
         sodipodi:role="line"
         id="tspan5496"
         x="79.306328"
         y="1057.7604">Gear</tspan></text>
    <g
       id="g5280"
       transform="matrix(0.3658131,0,0,0.36284405,-18.689034,452.89915)"
       style="fill:#ffe680;stroke:#ffffff">
      <path
         sodipodi:nodetypes="cccccc"
         transform="translate(0,752.36218)"
         inkscape:connector-curvature="0"
         id="path5272"
         d="M 65.743592,166.21944 71.859275,105.82707 110.46452,86.715557 105.1133,118.82289 87.530712,185.33094 z"
         style="fill:#ffe680;stroke:#ffffff;stroke-width:1px;stroke-linecap:butt;stroke-linejoin:miter;stroke-opacity:1" />
      <path
         transform="translate(0,752.36218)"
         inkscape:connector-curvature="0"
         id="path5274"
         d="m 110.08229,87.862248 -6.11568,32.107332 18.34705,-9.93798 z"
         style="fill:#ffe680;stroke:#ffffff;stroke-width:1px;stroke-linecap:butt;stroke-linejoin:miter;stroke-opacity:1" />
      <path
         sodipodi:nodetypes="ccccc"
         transform="translate(0,752.36218)"
         inkscape:connector-curvature="0"
         id="path5276"
         d="m 104.34884,118.82289 16.81813,-7.6446 -16.05367,59.62791 -16.818127,13.76028 z"
         style="fill:#ffe680;stroke:#ffffff;stroke-width:1px;stroke-linecap:butt;stroke-linejoin:miter;stroke-opacity:1" />
      <path
         sodipodi:nodetypes="cc"
         transform="translate(0,752.36218)"
         inkscape:connector-curvature="0"
         id="path5278"
         d="m 73.388195,105.82707 30.578415,12.61359"
         style="fill:#ffe680;stroke:#ffffff;stroke-width:1px;stroke-linecap:butt;stroke-linejoin:miter;stroke-opacity:1" />
    </g>
    <use
       x="0"
       y="0"
       xlink:href="#g5280"
       id="use5571"
       transform="matrix(-1,0,0,-1,198.25878,1803.0886)"
       width="200"
       height="300" />
    <g
       id="g3223"
       transform="translate(101.35173,157.70364)"
       inkscape:label="Gear18">
      <path
         id="path3225"
         d="M50.664,-5.194L53.560,-5.491L57.078,-4.994L63.625,-2.169L63.625,2.169L57.078,4.994L53.560,5.491L50.664,5.194L49.385,12.447L52.208,13.158L55.343,14.829L60.530,19.722L59.046,23.800L51.928,24.214L48.451,23.479L45.832,22.209L42.150,28.587L44.559,30.221L46.934,32.864L50.134,39.236L47.345,42.559L40.514,40.514L37.499,38.634L35.472,36.545L29.831,41.279L31.535,43.638L32.864,46.934L33.691,54.016L29.934,56.186L24.214,51.928L22.024,49.130L20.833,46.474L13.913,48.992L14.708,51.792L14.829,55.343L13.185,62.282L8.912,63.035L4.994,57.078L3.893,53.700L3.682,50.796L-3.682,50.796L-3.893,53.700L-4.994,57.078L-8.912,63.035L-13.185,62.282L-14.829,55.343L-14.708,51.792L-13.913,48.992L-20.833,46.474L-22.024,49.130L-24.214,51.928L-29.934,56.186L-33.691,54.016L-32.864,46.934L-31.535,43.638L-29.831,41.279L-35.472,36.545L-37.499,38.634L-40.514,40.514L-47.345,42.559L-50.134,39.236L-46.934,32.864L-44.559,30.221L-42.150,28.587L-45.832,22.209L-48.451,23.479L-51.928,24.214L-59.046,23.800L-60.530,19.722L-55.343,14.829L-52.208,13.158L-49.385,12.447L-50.664,5.194L-53.560,5.491L-57.078,4.994L-63.625,2.169L-63.625,-2.169L-57.078,-4.994L-53.560,-5.491L-50.664,-5.194L-49.385,-12.447L-52.208,-13.158L-55.343,-14.829L-60.530,-19.722L-59.046,-23.800L-51.928,-24.214L-48.451,-23.479L-45.832,-22.209L-42.150,-28.587L-44.559,-30.221L-46.934,-32.864L-50.134,-39.236L-47.345,-42.559L-40.514,-40.514L-37.499,-38.634L-35.472,-36.545L-29.831,-41.279L-31.535,-43.638L-32.864,-46.934L-33.691,-54.016L-29.934,-56.186L-24.214,-51.928L-22.024,-49.130L-20.833,-46.474L-13.913,-48.992L-14.708,-51.792L-14.829,-55.343L-13.185,-62.282L-8.912,-63.035L-4.994,-57.078L-3.893,-53.700L-3.682,-50.796L3.682,-50.796L3.893,-53.700L4.994,-57.078L8.912,-63.035L13.185,-62.282L14.829,-55.343L14.708,-51.792L13.913,-48.992L20.833,-46.474L22.024,-49.130L24.214,-51.928L29.934,-56.186L33.691,-54.016L32.864,-46.934L31.535,-43.638L29.831,-41.279L35.472,-36.545L37.499,-38.634L40.514,-40.514L47.345,-42.559L50.134,-39.236L46.934,-32.864L44.559,-30.221L42.150,-28.587L45.832,-22.209L48.451,-23.479L51.928,-24.214L59.046,-23.800L60.530,-19.722L55.343,-14.829L52.208,-13.158L49.385,-12.447z"
         style="stroke:#000000;fill:none" />
    </g>
    <g
       id="g3251">
      <path
         id="path3241"
         transform="translate(0,752.36218)"
         d="M 96.6875 60.5625 L 87.59375 79.59375 L 74.71875 86.03125 L 55.25 79.09375 L 44.40625 94.84375 L 56.15625 113.8125 L 56.25 124.03125 L 38.375 140.96875 L 42.75 155.0625 L 65 156.3125 L 72.21875 165.71875 L 71.9375 188.5625 L 87.21875 195.9375 L 103.65625 182.75 L 116 181.53125 L 132.3125 194.78125 L 146.875 186.65625 L 146.84375 165.5625 L 152.5625 153.21875 L 172.25 148.6875 L 176.84375 134.1875 L 157.78125 121.9375 L 154.65625 109.125 L 162.53125 87.90625 L 154.5 78.09375 L 133.96875 82.84375 L 120.8125 80.125 L 114.5625 61.0625 L 96.6875 60.5625 z M 104.875 117.875 L 116.75 128.90625 L 104.875 139.9375 L 93.8125 128.5 L 104.875 117.875 z "
         style="opacity:0.5;fill:#ffe680;fill-opacity:1;stroke:none" />
      <path
         sodipodi:nodetypes="ccccc"
         transform="translate(0,752.36218)"
         inkscape:connector-curvature="0"
         id="path3247"
         d="M 118.44583,65.655567 54.340738,159.05371 70.897682,162.02547 126.08749,78.391677 z"
         style="opacity:0.5;fill:#ffffff;stroke:none" />
      <path
         sodipodi:nodetypes="ccccc"
         style="opacity:0.5;fill:#ffffff;stroke:none"
         d="M 121.41617,831.65789 68.48048,914.80355 72.172098,935.52747 137.32374,831.6134 z"
         id="path3249"
         inkscape:connector-curvature="0" />
    </g>
  </g>
</svg>
