<?xml version="1.0" encoding="UTF-8" standalone="no"?>
<!-- Created with Inkscape (http://www.inkscape.org/) -->

<svg
   xmlns:dc="http://purl.org/dc/elements/1.1/"
   xmlns:cc="http://creativecommons.org/ns#"
   xmlns:rdf="http://www.w3.org/1999/02/22-rdf-syntax-ns#"
   xmlns:svg="http://www.w3.org/2000/svg"
   xmlns="http://www.w3.org/2000/svg"
   xmlns:xlink="http://www.w3.org/1999/xlink"
   xmlns:sodipodi="http://sodipodi.sourceforge.net/DTD/sodipodi-0.dtd"
   xmlns:inkscape="http://www.inkscape.org/namespaces/inkscape"
   width="200"
   height="300"
   id="svg5382"
   version="1.1"
   inkscape:version="0.48.3.1 r9886"
   sodipodi:docname="gear.svg">
  <defs
     id="defs5384" />
  <sodipodi:namedview
     id="base"
     pagecolor="#ffffff"
     bordercolor="#666666"
     borderopacity="1.0"
     inkscape:pageopacity="0"
     inkscape:pageshadow="2"
     inkscape:zoom="2.3555072"
     inkscape:cx="101.35173"
     inkscape:cy="142.29636"
     inkscape:document-units="px"
     inkscape:current-layer="layer1"
     showgrid="false"
     inkscape:showpageshadow="false"
     inkscape:window-width="674"
     inkscape:window-height="885"
     inkscape:window-x="220"
     inkscape:window-y="42"
     inkscape:window-maximized="0"
     borderlayer="true" />
  <metadata
     id="metadata5387">
    <rdf:RDF>
      <cc:Work
         rdf:about="">
        <dc:format>image/svg+xml</dc:format>
        <dc:type
           rdf:resource="http://purl.org/dc/dcmitype/StillImage" />
        <dc:title />
      </cc:Work>
    </rdf:RDF>
  </metadata>
  <g
     inkscape:label="Layer 1"
     inkscape:groupmode="layer"
     id="layer1"
     transform="translate(0,-752.36218)">
    <rect
       style="fill:#ffffff;stroke:none"
       id="rect5598"
       width="203.35323"
       height="303.96848"
       x="-1.698148"
       y="749.6673" />
    <text
       xml:space="preserve"
       style="font-size:33.21516418px;font-style:normal;font-weight:normal;line-height:125%;letter-spacing:0px;word-spacing:0px;fill:#000000;fill-opacity:1;stroke:none;font-family:Sans"
       x="79.306328"
       y="1057.7604"
       id="text5494"
       sodipodi:linespacing="125%"
       transform="scale(1.0637976,0.94002845)"><tspan
         sodipodi:role="line"
         id="tspan5496"
         x="79.306328"
         y="1057.7604">Gear</tspan></text>
    <g
       id="g5280"
       transform="matrix(0.3658131,0,0,0.36284405,-18.689034,452.89915)"
       style="fill:#ffe680;stroke:#ffffff">
      <path
         sodipodi:nodetypes="cccccc"
         transform="translate(0,752.36218)"
         inkscape:connector-curvature="0"
         id="path5272"
         d="M 65.743592,166.21944 71.859275,105.82707 110.46452,86.715557 105.1133,118.82289 87.530712,185.33094 z"
         style="fill:#ffe680;stroke:#ffffff;stroke-width:1px;stroke-linecap:butt;stroke-linejoin:miter;stroke-opacity:1" />
      <path
         transform="translate(0,752.36218)"
         inkscape:connector-curvature="0"
         id="path5274"
         d="m 110.08229,87.862248 -6.11568,32.107332 18.34705,-9.93798 z"
         style="fill:#ffe680;stroke:#ffffff;stroke-width:1px;stroke-linecap:butt;stroke-linejoin:miter;stroke-opacity:1" />
      <path
         sodipodi:nodetypes="ccccc"
         transform="translate(0,752.36218)"
         inkscape:connector-curvature="0"
         id="path5276"
         d="m 104.34884,118.82289 16.81813,-7.6446 -16.05367,59.62791 -16.818127,13.76028 z"
         style="fill:#ffe680;stroke:#ffffff;stroke-width:1px;stroke-linecap:butt;stroke-linejoin:miter;stroke-opacity:1" />
      <path
         sodipodi:nodetypes="cc"
         transform="translate(0,752.36218)"
         inkscape:connector-curvature="0"
         id="path5278"
         d="m 73.388195,105.82707 30.578415,12.61359"
         style="fill:#ffe680;stroke:#ffffff;stroke-width:1px;stroke-linecap:butt;stroke-linejoin:miter;stroke-opacity:1" />
    </g>
    <use
       x="0"
       y="0"
       xlink:href="#g5280"
       id="use5571"
       transform="matrix(-1,0,0,-1,198.25878,1803.0886)"
       width="200"
       height="300" />
    <path
       sodipodi:type="star"
       style="fill:#ffeeaa;fill-opacity:1;stroke:none"
       id="path12658"
       sodipodi:sides="27"
       sodipodi:cx="92.549072"
       sodipodi:cy="125.51529"
       sodipodi:r1="80.367676"
       sodipodi:r2="67.618088"
       sodipodi:arg1="1.0693417"
       sodipodi:arg2="1.1875605"
       inkscape:flatsided="false"
       inkscape:rounded="0"
       inkscape:randomized="0"
       d="m 131.18194,195.98844 -13.34887,-7.76011 -3.94471,14.76985 -11.19945,-10.6294 -7.244536,13.46202 -8.446261,-12.92566 -10.153813,11.42844 -5.237731,-14.52508 -12.515694,8.77876 -1.746833,-15.34146 -14.202852,5.6558 1.838236,-15.33077 -15.12433,2.22794 5.324207,-14.4936 -15.230452,-1.32002 8.523148,-12.87508 L 13.956503,142.31325 25.219106,131.75079 12.2011,123.73576 25.595989,116.05535 14.777278,105.25421 29.58233,100.8699 21.546153,87.864941 36.963225,87.01309 32.142814,72.505411 l 15.197953,2.726532 -1.344776,-15.228286 14.15951,6.157927 2.203357,-15.127932 12.357722,9.257347 5.632707,-14.212027 9.889726,11.857701 8.758396,-12.529949 6.888571,13.818803 11.41192,-10.172378 3.51606,15.03493 13.45021,-7.26641 -0.046,15.440519 14.76342,-3.968709 -3.6056,15.013707 15.28071,-0.457054 -6.97081,13.777501 14.97422,3.079241 -9.96022,11.798546 13.86047,6.44953 -12.41268,9.18354 11.9995,9.47213 -14.19596,6.07342 9.49162,11.98408 -15.21393,2.63591 6.47206,13.84997 -15.41172,-0.94373 3.10357,14.9692 -14.77866,-4.47247 z"
       transform="translate(10.188888,762.97561)"
       inkscape:transform-center-x="0.16834688"
       inkscape:transform-center-y="0.10347028" />
    <path
       sodipodi:type="arc"
       style="fill:#ffeeaa;fill-opacity:1;stroke:none"
       id="path12660"
       sodipodi:cx="118.6581"
       sodipodi:cy="145.46852"
       sodipodi:rx="68.562729"
       sodipodi:ry="67.076851"
       d="m 187.22083,145.46852 a 68.562729,67.076851 0 1 1 -137.125463,0 68.562729,67.076851 0 1 1 137.125463,0 z"
       transform="matrix(1.0152304,0,0,1.0535425,-17.727349,735.44589)" />
    <path
       transform="matrix(0.62489726,0,0,0.64847922,28.572365,795.21892)"
       d="m 187.22083,145.46852 a 68.562729,67.076851 0 1 1 -137.125463,0 68.562729,67.076851 0 1 1 137.125463,0 z"
       sodipodi:ry="67.076851"
       sodipodi:rx="68.562729"
       sodipodi:cy="145.46852"
       sodipodi:cx="118.6581"
       id="path12662"
       style="fill:#ffe680;fill-opacity:1;stroke:#ffd42a;stroke-width:9.42538086000000064"
       sodipodi:type="arc" />
  </g>
</svg>
