<?xml version="1.0" encoding="UTF-8" standalone="no"?>
<!-- Created with Inkscape (http://www.inkscape.org/) -->

<svg
   xmlns:dc="http://purl.org/dc/elements/1.1/"
   xmlns:cc="http://creativecommons.org/ns#"
   xmlns:rdf="http://www.w3.org/1999/02/22-rdf-syntax-ns#"
   xmlns:svg="http://www.w3.org/2000/svg"
   xmlns="http://www.w3.org/2000/svg"
   xmlns:xlink="http://www.w3.org/1999/xlink"
   xmlns:sodipodi="http://sodipodi.sourceforge.net/DTD/sodipodi-0.dtd"
   xmlns:inkscape="http://www.inkscape.org/namespaces/inkscape"
   width="200"
   height="300"
   id="svg5382"
   version="1.1"
   inkscape:version="0.48.3.1 r9886"
   sodipodi:docname="meteorwarning.svg">
  <defs
     id="defs5384" />
  <sodipodi:namedview
     id="base"
     pagecolor="#ffffff"
     bordercolor="#666666"
     borderopacity="1.0"
     inkscape:pageopacity="0"
     inkscape:pageshadow="2"
     inkscape:zoom="2.2173352"
     inkscape:cx="99.978465"
     inkscape:cy="150.71064"
     inkscape:document-units="px"
     inkscape:current-layer="layer1"
     showgrid="false"
     inkscape:showpageshadow="false"
     inkscape:window-width="674"
     inkscape:window-height="885"
     inkscape:window-x="136"
     inkscape:window-y="16"
     inkscape:window-maximized="0"
     borderlayer="true" />
  <metadata
     id="metadata5387">
    <rdf:RDF>
      <cc:Work
         rdf:about="">
        <dc:format>image/svg+xml</dc:format>
        <dc:type
           rdf:resource="http://purl.org/dc/dcmitype/StillImage" />
        <dc:title />
      </cc:Work>
    </rdf:RDF>
  </metadata>
  <g
     inkscape:label="Layer 1"
     inkscape:groupmode="layer"
     id="layer1"
     transform="translate(0,-752.36218)">
    <rect
       style="fill:#ffffff;stroke:none"
       id="rect5598"
       width="203.35323"
       height="303.96848"
       x="-1.698148"
       y="749.6673" />
    <text
       xml:space="preserve"
       style="font-size:33.21516418px;font-style:normal;font-weight:normal;line-height:125%;letter-spacing:0px;word-spacing:0px;fill:#000000;fill-opacity:1;stroke:none;font-family:Sans"
       x="15.054954"
       y="1044.2117"
       id="text5494"
       sodipodi:linespacing="125%"
       transform="scale(1.0637976,0.94002845)"><tspan
         sodipodi:role="line"
         id="tspan5496"
         x="15.054954"
         y="1044.2117">Meteor</tspan><tspan
         sodipodi:role="line"
         x="15.054954"
         y="1085.7306"
         id="tspan3214">warning</tspan></text>
    <g
       id="g5280"
       transform="matrix(0.3658131,0,0,0.36284405,-18.689034,452.89915)"
       style="fill:#ffe680;stroke:#ffffff">
      <path
         sodipodi:nodetypes="cccccc"
         transform="translate(0,752.36218)"
         inkscape:connector-curvature="0"
         id="path5272"
         d="M 65.743592,166.21944 71.859275,105.82707 110.46452,86.715557 105.1133,118.82289 87.530712,185.33094 z"
         style="fill:#ffe680;stroke:#ffffff;stroke-width:1px;stroke-linecap:butt;stroke-linejoin:miter;stroke-opacity:1" />
      <path
         transform="translate(0,752.36218)"
         inkscape:connector-curvature="0"
         id="path5274"
         d="m 110.08229,87.862248 -6.11568,32.107332 18.34705,-9.93798 z"
         style="fill:#ffe680;stroke:#ffffff;stroke-width:1px;stroke-linecap:butt;stroke-linejoin:miter;stroke-opacity:1" />
      <path
         sodipodi:nodetypes="ccccc"
         transform="translate(0,752.36218)"
         inkscape:connector-curvature="0"
         id="path5276"
         d="m 104.34884,118.82289 16.81813,-7.6446 -16.05367,59.62791 -16.818127,13.76028 z"
         style="fill:#ffe680;stroke:#ffffff;stroke-width:1px;stroke-linecap:butt;stroke-linejoin:miter;stroke-opacity:1" />
      <path
         sodipodi:nodetypes="cc"
         transform="translate(0,752.36218)"
         inkscape:connector-curvature="0"
         id="path5278"
         d="m 73.388195,105.82707 30.578415,12.61359"
         style="fill:#ffe680;stroke:#ffffff;stroke-width:1px;stroke-linecap:butt;stroke-linejoin:miter;stroke-opacity:1" />
    </g>
    <use
       x="0"
       y="0"
       xlink:href="#g5280"
       id="use5571"
       transform="matrix(-1,0,0,-1,198.25878,1803.0886)"
       width="200"
       height="300" />
    <g
       id="g3216">
      <path
         sodipodi:nodetypes="ccccc"
         transform="translate(0,752.36218)"
         inkscape:connector-curvature="0"
         id="path3056"
         d="m 59.558979,97.7982 0,36.78094 78.042801,-0.18671 -0.18671,-36.407524 z"
         style="fill:#deaa87;stroke:none" />
      <path
         sodipodi:nodetypes="cccc"
         transform="translate(0,752.36218)"
         inkscape:connector-curvature="0"
         id="path3046"
         d="M 58.161571,98.769454 138.8236,98.344917 C 138.77077,78.126951 130.55214,45.266189 97.643514,48.249549 71.434045,46.856123 58.061128,71.823376 58.161571,98.769454 z"
         style="fill:#e6e6e6;stroke:none;stroke-width:1px;stroke-linecap:butt;stroke-linejoin:miter;stroke-opacity:1" />
      <path
         sodipodi:nodetypes="ccccc"
         transform="translate(0,752.36218)"
         inkscape:connector-curvature="0"
         id="path3050"
         d="m 97.865221,51.503516 c 9.739549,14.996606 14.010439,28.899479 11.725789,41.491246 l 14.43174,-0.901983 C 122.62883,76.392764 115.51699,64.123498 108.23803,51.954508 z"
         style="fill:#666666;stroke:none;stroke-width:1px;stroke-linecap:butt;stroke-linejoin:miter;stroke-opacity:1" />
      <path
         sodipodi:nodetypes="ccccc"
         inkscape:connector-curvature="0"
         id="path3048"
         d="m 104.76775,816.3361 15.28282,-18.67963 10.15002,8.84461 -20.38586,25.9755 c -0.93921,-5.6737 -2.47862,-11.25452 -5.04698,-16.14048 z"
         style="fill:#ffeeaa;stroke:none;stroke-width:1px;stroke-linecap:butt;stroke-linejoin:miter;stroke-opacity:1" />
      <path
         transform="matrix(0.67862493,0.73448499,-0.73448499,0.67862493,55.177554,658.29472)"
         d="m 160.10208,46.768101 a 6.9903731,5.1864057 0 1 1 -13.98074,0 6.9903731,5.1864057 0 1 1 13.98074,0 z"
         sodipodi:ry="5.1864057"
         sodipodi:rx="6.9903731"
         sodipodi:cy="46.768101"
         sodipodi:cx="153.11171"
         id="path3052"
         style="opacity:1;fill:#b7c8b7;fill-opacity:1;stroke:none"
         sodipodi:type="arc" />
      <path
         transform="translate(0,752.36218)"
         inkscape:connector-curvature="0"
         id="path3075"
         d="m 90.649352,134.03502 0.450992,-21.19662 11.725786,0 -0.45099,21.64761 z"
         style="fill:#808080;stroke:none;stroke-width:1px;stroke-linecap:butt;stroke-linejoin:miter;stroke-opacity:1" />
      <path
         transform="translate(0,752.36218)"
         inkscape:connector-curvature="0"
         id="path3077"
         d="m 90.649352,113.74039 -10.372811,3.60793 0,21.19661 10.823803,-4.96091 z"
         style="fill:#decd87;stroke:none;stroke-width:1px;stroke-linecap:butt;stroke-linejoin:miter;stroke-opacity:1" />
    </g>
    <g
       id="g3068">
      <path
         sodipodi:nodetypes="cccccccccccccccc"
         transform="translate(0,752.36218)"
         inkscape:connector-curvature="0"
         id="path3058"
         d="m 121.91854,137.00631 -7.28151,-5.60116 c -2.91307,0.45091 -4.78298,1.55379 -3.7341,4.48092 l 9.52196,5.04105 -0.56011,9.52196 c -0.78414,3.01219 0.0461,6.48562 -3.92081,8.58845 l 6.53468,0.56011 3.3607,-8.96185 5.97457,7.46821 5.22774,-4.29422 c -4.62626,0.0174 -5.2092,-3.33465 -7.0948,-5.60116 l -0.37341,-10.26879 9.33527,-4.10751 c 0.66172,-2.55635 -1.11063,-3.72181 -3.92082,-4.29422 l -7.46821,7.0948 z"
         style="fill:#ffd5d5;stroke:none" />
      <path
         transform="translate(0,752.36218)"
         d="m 129.94686,131.77856 a 5.3210998,5.7878633 0 1 1 -10.6422,0 5.3210998,5.7878633 0 1 1 10.6422,0 z"
         sodipodi:ry="5.7878633"
         sodipodi:rx="5.3210998"
         sodipodi:cy="131.77856"
         sodipodi:cx="124.62576"
         id="path3060"
         style="fill:#ffd5d5;fill-opacity:1;stroke:none"
         sodipodi:type="arc" />
      <path
         transform="translate(0,752.36218)"
         d="m 126.58616,134.57913 a 1.4002894,1.6803473 0 1 1 -2.80058,0 1.4002894,1.6803473 0 1 1 2.80058,0 z"
         sodipodi:ry="1.6803473"
         sodipodi:rx="1.4002894"
         sodipodi:cy="134.57913"
         sodipodi:cx="125.18587"
         id="path3062"
         style="fill:#666666;fill-opacity:1;stroke:none"
         sodipodi:type="arc" />
      <path
         transform="translate(0,752.36218)"
         d="m 123.78558,130.56497 a 0.74682105,0.65346843 0 1 1 -1.49364,0 0.74682105,0.65346843 0 1 1 1.49364,0 z"
         sodipodi:ry="0.65346843"
         sodipodi:rx="0.74682105"
         sodipodi:cy="130.56497"
         sodipodi:cx="123.03876"
         id="path3064"
         style="fill:#666666;fill-opacity:1;stroke:none"
         sodipodi:type="arc" />
      <path
         transform="translate(0,752.36218)"
         d="m 128.07981,130.65833 a 0.65346843,0.56011581 0 1 1 -1.30694,0 0.65346843,0.56011581 0 1 1 1.30694,0 z"
         sodipodi:ry="0.56011581"
         sodipodi:rx="0.65346843"
         sodipodi:cy="130.65833"
         sodipodi:cx="127.42634"
         id="path3066"
         style="fill:#666666;fill-opacity:1;stroke:none"
         sodipodi:type="arc" />
    </g>
  </g>
</svg>
