<?xml version="1.0" encoding="UTF-8" standalone="no"?>
<!-- Created with Inkscape (http://www.inkscape.org/) -->

<svg
   xmlns:dc="http://purl.org/dc/elements/1.1/"
   xmlns:cc="http://creativecommons.org/ns#"
   xmlns:rdf="http://www.w3.org/1999/02/22-rdf-syntax-ns#"
   xmlns:svg="http://www.w3.org/2000/svg"
   xmlns="http://www.w3.org/2000/svg"
   xmlns:xlink="http://www.w3.org/1999/xlink"
   xmlns:sodipodi="http://sodipodi.sourceforge.net/DTD/sodipodi-0.dtd"
   xmlns:inkscape="http://www.inkscape.org/namespaces/inkscape"
   width="200"
   height="300"
   id="svg5382"
   version="1.1"
   inkscape:version="0.48.2 r9819"
   sodipodi:docname="needle.svg">
  <defs
     id="defs5384" />
  <sodipodi:namedview
     id="base"
     pagecolor="#ffffff"
     bordercolor="#666666"
     borderopacity="1.0"
     inkscape:pageopacity="0"
     inkscape:pageshadow="2"
     inkscape:zoom="2.4167252"
     inkscape:cx="99.502513"
     inkscape:cy="147.4583"
     inkscape:document-units="px"
     inkscape:current-layer="layer1"
     showgrid="false"
     inkscape:showpageshadow="false"
     inkscape:window-width="733"
     inkscape:window-height="945"
     inkscape:window-x="249"
     inkscape:window-y="0"
     inkscape:window-maximized="0"
     borderlayer="true"
     showguides="true"
     inkscape:guide-bbox="true" />
  <metadata
     id="metadata5387">
    <rdf:RDF>
      <cc:Work
         rdf:about="">
        <dc:format>image/svg+xml</dc:format>
        <dc:type
           rdf:resource="http://purl.org/dc/dcmitype/StillImage" />
        <dc:title />
      </cc:Work>
    </rdf:RDF>
  </metadata>
  <g
     inkscape:label="Layer 1"
     inkscape:groupmode="layer"
     id="layer1"
     transform="translate(0,-752.36218)">
    <rect
       style="fill:#ffffff;stroke:none"
       id="rect5598"
       width="204.38741"
       height="316.13028"
       x="-2.6911893"
       y="746.83875" />
    <text
       xml:space="preserve"
       style="font-size:33.21516418px;font-style:normal;font-weight:normal;line-height:125%;letter-spacing:0px;word-spacing:0px;fill:#000000;fill-opacity:1;stroke:none;font-family:Sans"
       x="53.833275"
       y="1055.0206"
       id="text5494"
       sodipodi:linespacing="125%"
       transform="scale(1.0637976,0.94002845)"><tspan
         sodipodi:role="line"
         id="tspan5496"
         x="53.833275"
         y="1055.0206">Needle</tspan></text>
    <g
       id="g3960">
      <path
         sodipodi:nodetypes="cccccccccccccccccccccccc"
         inkscape:connector-curvature="0"
         id="path5245"
         d="m 10.654447,774.96282 c 1.419565,1.40693 2.021785,1.58785 2.985978,2.31173 -0.665172,-1.05954 -1.425073,-2.11909 -1.348506,-3.17863 3.787852,-0.94024 5.934369,-1.11375 7.994716,0.28897 l -3.660232,5.20138 c -1.015395,0.46757 -1.275769,-0.95242 -1.830115,-1.63747 l 0.385287,2.69701 -1.252184,0.67426 c 0.514184,1.55333 2.084664,2.4177 3.852875,2.2154 l 8.187361,-2.2154 c 2.273415,-0.44549 4.629531,-0.9338 6.74253,2.40804 l 0.770575,-3.9492 c 0.194589,-2.05292 3.34522,-1.1498 5.394025,-1.3485 l -4.430807,-4.23817 c -0.128535,-1.99075 2.997599,-1.40109 4.527129,-1.73379 l -6.357244,-3.66023 c -0.343233,-0.94016 1.55759,-1.5063 2.60069,-2.2154 l -7.705752,-2.21541 c 0.939944,-0.92985 0.249367,-2.09263 -0.577928,-3.27494 -1.448786,1.25162 -2.639344,2.54013 -2.311727,4.04552 -3.03039,-1.09674 -7.309712,3.47812 -11.751268,4.71977 -4.1050849,2.22005 -4.874905,-0.21935 -6.0682779,3.0823 0.3660527,1.00541 1.2255651,2.07623 3.2749439,2.60069 z"
         style="fill:#d38d5f;stroke:none" />
      <path
         transform="matrix(0.25199966,0,0,0.25199966,-3.9864781,738.18064)"
         d="m 106.64222,121.88074 c 0,2.7443 -2.13913,4.96899 -4.77788,4.96899 -2.638747,0 -4.777876,-2.22469 -4.777876,-4.96899 0,-2.7443 2.139129,-4.96899 4.777876,-4.96899 2.63875,0 4.77788,2.22469 4.77788,4.96899 z"
         sodipodi:ry="4.9689922"
         sodipodi:rx="4.7778773"
         sodipodi:cy="121.88074"
         sodipodi:cx="101.86434"
         id="path5247"
         style="fill:#ffffff;stroke:none"
         sodipodi:type="arc" />
    </g>
    <use
       x="0"
       y="0"
       xlink:href="#g3960"
       id="use3964"
       transform="matrix(-0.99689071,-0.07879671,0.07879671,-0.99689071,138.16759,1801.3474)"
       width="200"
       height="300" />
    <path
       style="fill:none;stroke:#aa4400;stroke-width:3;stroke-linecap:butt;stroke-linejoin:miter;stroke-opacity:1"
       d="m 117.12336,178.98749 c -7.72065,8.89171 -16.32269,12.07484 -42.182395,10.75454 -22.51909,3.40465 -10.141722,-19.56312 -30.57936,-28.42588 -23.532945,-2.32167 -27.837184,8.46713 -26.272407,23.25754 7.397859,8.55469 13.898303,19.50249 24.549627,19.38128"
       id="path4226"
       inkscape:connector-curvature="0"
       transform="translate(0,752.36218)"
       sodipodi:nodetypes="ccccc" />
    <path
       style="fill:#e9ddaf;stroke:none;stroke-width:1px;stroke-linecap:butt;stroke-linejoin:miter;stroke-opacity:1"
       d="m 27.564493,59.672079 c 27.431895,27.840654 58.64161,51.903491 80.970697,84.846951 7.91833,3.60527 16.6193,5.25395 22.39615,14.21294 9.19806,12.87073 6.68752,21.35074 7.32182,31.01006 -9.2524,1.09378 -21.88346,-8.3164 -31.44075,-15.93572 -2.7843,-6.06018 -4.35548,-14.54657 -6.02973,-22.82685 C 72.31833,125.63754 51.536602,90.652561 27.564493,59.672079 z"
       id="path4220"
       inkscape:connector-curvature="0"
       transform="translate(0,752.36218)"
       sodipodi:nodetypes="ccccccc" />
    <path
       style="fill:#ffffff;stroke:none"
       d="m 113.27284,155.28641 c 5.16834,1.20885 10.33668,2.79751 15.50502,10.76738 l 2.58418,15.50503 c -6.13163,-2.89442 -12.60511,-4.42145 -17.65851,-11.62877 -4.39464,-4.88121 -1.36989,-9.76243 -0.43069,-14.64364 z"
       id="path4222"
       inkscape:connector-curvature="0"
       transform="translate(0,752.36218)"
       sodipodi:nodetypes="ccccc" />
    <path
       style="fill:none;stroke:#aa4400;stroke-width:3;stroke-linecap:butt;stroke-linejoin:miter;stroke-opacity:1"
       d="m 119.59184,175.86336 c 7.37115,-10.7292 26.98809,-6.22438 40.62677,-3.77983 8.82245,2.21756 12.75009,13.07349 10.76738,22.39615"
       id="path4224"
       inkscape:connector-curvature="0"
       transform="translate(0,752.36218)"
       sodipodi:nodetypes="ccc" />
  </g>
</svg>
