<?xml version="1.0" encoding="UTF-8" standalone="no"?>
<!-- Created with Inkscape (http://www.inkscape.org/) -->

<svg
   xmlns:dc="http://purl.org/dc/elements/1.1/"
   xmlns:cc="http://creativecommons.org/ns#"
   xmlns:rdf="http://www.w3.org/1999/02/22-rdf-syntax-ns#"
   xmlns:svg="http://www.w3.org/2000/svg"
   xmlns="http://www.w3.org/2000/svg"
   xmlns:xlink="http://www.w3.org/1999/xlink"
   xmlns:sodipodi="http://sodipodi.sourceforge.net/DTD/sodipodi-0.dtd"
   xmlns:inkscape="http://www.inkscape.org/namespaces/inkscape"
   width="200"
   height="300"
   id="svg2"
   version="1.1"
   inkscape:version="0.48.3.1 r9886"
   sodipodi:docname="nemesis.svg">
  <defs
     id="defs4">
    <pattern
       inkscape:collect="always"
       xlink:href="#Strips1_10white"
       id="pattern5201"
       patternTransform="matrix(1.3476986,0,0,25.329768,0,751.88041)" />
    <pattern
       inkscape:stockid="Stripes 1:10 white"
       id="Strips1_10white"
       patternTransform="translate(0,0) scale(10,10)"
       height="1"
       width="11"
       patternUnits="userSpaceOnUse"
       inkscape:collect="always">
      <rect
         id="rect4523"
         height="2"
         width="1"
         y="-0.5"
         x="0"
         style="fill:white;stroke:none" />
    </pattern>
  </defs>
  <sodipodi:namedview
     id="base"
     pagecolor="#ffffff"
     bordercolor="#666666"
     borderopacity="1.0"
     inkscape:pageopacity="0.0"
     inkscape:pageshadow="2"
     inkscape:zoom="2.6162246"
     inkscape:cx="100"
     inkscape:cy="153.5847"
     inkscape:document-units="px"
     inkscape:current-layer="layer1"
     showgrid="false"
     inkscape:showpageshadow="false"
     inkscape:window-width="787"
     inkscape:window-height="998"
     inkscape:window-x="134"
     inkscape:window-y="0"
     inkscape:window-maximized="0" />
  <metadata
     id="metadata7">
    <rdf:RDF>
      <cc:Work
         rdf:about="">
        <dc:format>image/svg+xml</dc:format>
        <dc:type
           rdf:resource="http://purl.org/dc/dcmitype/StillImage" />
        <dc:title></dc:title>
      </cc:Work>
    </rdf:RDF>
  </metadata>
  <g
     inkscape:label="Layer 1"
     inkscape:groupmode="layer"
     id="layer1"
     transform="translate(0,-752.36218)">
    <rect
       style="fill:#666666;fill-rule:evenodd;stroke:none"
       id="rect2985"
       width="200"
       height="300.29602"
       x="0"
       y="752.43585" />
    <rect
       style="fill:url(#pattern5201);fill-opacity:1;stroke:#ffffff;stroke-width:1.00080168"
       id="rect2987"
       width="189.20393"
       height="290.19516"
       x="4.5867624"
       y="757.18945"
       ry="15.696573" />
    <path
       style="fill:#666666;stroke:#ffffff;stroke-width:1.00080167999999992px;stroke-linecap:butt;stroke-linejoin:miter;stroke-opacity:1"
       d="M 98.233157,755.66236 C 37.449906,755.51198 3.7198512,834.81582 2.2933811,904.96694 1.8881446,972.87893 39.268139,1051.1845 102.81992,1050.8247 c 61.91417,-0.5778 94.16896,-91.42558 94.02862,-148.15666 -0.0884,-56.3611 -31.64357,-147.41709 -98.615383,-147.00568 z"
       id="path2989"
       inkscape:connector-curvature="0"
       sodipodi:nodetypes="ccccc" />
    <g
       id="g5357"
       transform="translate(0.38223018,19.87597)">
      <path
         sodipodi:nodetypes="cccccccccc"
         transform="translate(0,752.36218)"
         inkscape:connector-curvature="0"
         id="path5305"
         d="m 72.241505,170.04174 -1.14669,-11.08468 c -3.058709,-8.27212 -4.445972,-14.67194 -11.466906,-25.60943 -5.190684,-6.48917 -7.648876,-14.41431 -4.204532,-27.52056 2.582894,-31.722341 26.927315,-32.820071 44.338701,-32.489569 25.580442,0.165588 47.305632,8.887551 45.867622,31.342879 4.59667,26.52111 -1.00175,26.53636 -6.49792,32.87179 -8.56235,10.44961 -13.7303,19.21647 -16.43589,28.28503 l -2.67561,7.26238 z"
         style="fill:#ffffff;stroke:none" />
      <path
         sodipodi:nodetypes="ccccc"
         inkscape:connector-curvature="0"
         id="path5307"
         d="m 78.357188,855.13141 c -5.97188,-0.0888 -9.060468,2.129 -9.937985,6.11568 0.256811,11.46093 6.939867,14.34558 13.760287,16.05367 8.47367,-0.82727 15.284795,-3.31708 15.671438,-12.23137 -1.230646,-4.93336 -5.123894,-9.04745 -19.49374,-9.93798 z"
         style="fill:#666666;stroke:none" />
      <path
         inkscape:transform-center-y="20.64043"
         inkscape:transform-center-x="-14.715867"
         sodipodi:nodetypes="ccccc"
         inkscape:connector-curvature="0"
         id="path5307-9"
         d="m 125.94485,856.27938 c 5.97188,-0.0888 9.06047,2.129 9.93798,6.11568 -0.25681,11.46093 -6.93986,14.34558 -13.76028,16.05367 -8.47367,-0.82727 -15.2848,-3.31708 -15.67144,-12.23137 1.23065,-4.93336 5.1239,-9.04745 19.49374,-9.93798 z"
         style="fill:#666666;stroke:none" />
      <path
         sodipodi:nodetypes="cccc"
         inkscape:connector-curvature="0"
         id="path5338"
         d="m 92.117475,896.03004 c -2.915813,-3.53824 7.890145,-18.23819 9.555755,-14.90698 8.80879,1.37081 6.71645,10.52815 9.17352,16.4359 -9.25562,-7.13719 -14.530072,-5.51584 -18.729275,-1.52892 z"
         style="fill:#666666;stroke:none" />
      <g
         id="g5350">
        <path
           style="fill:none;stroke:#666666;stroke-width:1px;stroke-linecap:butt;stroke-linejoin:miter;stroke-opacity:1"
           d="m 78.357188,160.10375 -0.764461,14.90698"
           id="path5340"
           inkscape:connector-curvature="0"
           transform="translate(0,752.36218)" />
        <path
           style="fill:none;stroke:#666666;stroke-width:1px;stroke-linecap:butt;stroke-linejoin:miter;stroke-opacity:1"
           d="m 85.619561,161.63267 1.146691,13.76029"
           id="path5342"
           inkscape:connector-curvature="0"
           transform="translate(0,752.36218)" />
        <path
           style="fill:none;stroke:#666666;stroke-width:1px;stroke-linecap:butt;stroke-linejoin:miter;stroke-opacity:1"
           d="m 94.793086,162.77936 -0.38223,14.52475"
           id="path5344"
           inkscape:connector-curvature="0"
           transform="translate(0,752.36218)" />
        <path
           style="fill:none;stroke:#666666;stroke-width:1px;stroke-linecap:butt;stroke-linejoin:miter;stroke-opacity:1"
           d="m 104.73107,163.16159 0,12.23137"
           id="path5346"
           inkscape:connector-curvature="0"
           transform="translate(0,752.36218)" />
        <path
           style="fill:none;stroke:#666666;stroke-width:1px;stroke-linecap:butt;stroke-linejoin:miter;stroke-opacity:1"
           d="m 113.52236,164.30828 -1.14669,13.76029"
           id="path5348"
           inkscape:connector-curvature="0"
           transform="translate(0,752.36218)" />
      </g>
    </g>
  </g>
</svg>
