<?xml version="1.0" encoding="UTF-8" standalone="no"?>
<!-- Created with Inkscape (http://www.inkscape.org/) -->

<svg
   xmlns:dc="http://purl.org/dc/elements/1.1/"
   xmlns:cc="http://creativecommons.org/ns#"
   xmlns:rdf="http://www.w3.org/1999/02/22-rdf-syntax-ns#"
   xmlns:svg="http://www.w3.org/2000/svg"
   xmlns="http://www.w3.org/2000/svg"
   xmlns:xlink="http://www.w3.org/1999/xlink"
   xmlns:sodipodi="http://sodipodi.sourceforge.net/DTD/sodipodi-0.dtd"
   xmlns:inkscape="http://www.inkscape.org/namespaces/inkscape"
   width="200"
   height="300"
   id="svg5382"
   version="1.1"
   inkscape:version="0.48.3.1 r9886"
   sodipodi:docname="oktoberfest.svg">
  <defs
     id="defs5384" />
  <sodipodi:namedview
     id="base"
     pagecolor="#ffffff"
     bordercolor="#666666"
     borderopacity="1.0"
     inkscape:pageopacity="0"
     inkscape:pageshadow="2"
     inkscape:zoom="2.3218276"
     inkscape:cx="82.553195"
     inkscape:cy="147.4583"
     inkscape:document-units="px"
     inkscape:current-layer="layer1"
     showgrid="false"
     inkscape:showpageshadow="false"
     inkscape:window-width="733"
     inkscape:window-height="945"
     inkscape:window-x="267"
     inkscape:window-y="0"
     inkscape:window-maximized="0"
     borderlayer="true" />
  <metadata
     id="metadata5387">
    <rdf:RDF>
      <cc:Work
         rdf:about="">
        <dc:format>image/svg+xml</dc:format>
        <dc:type
           rdf:resource="http://purl.org/dc/dcmitype/StillImage" />
        <dc:title />
      </cc:Work>
    </rdf:RDF>
  </metadata>
  <g
     inkscape:label="Layer 1"
     inkscape:groupmode="layer"
     id="layer1"
     transform="translate(0,-752.36218)">
    <rect
       style="fill:#ffffff;stroke:none"
       id="rect5598"
       width="204.38741"
       height="316.13028"
       x="-2.6911893"
       y="746.83875" />
    <text
       xml:space="preserve"
       style="font-size:30.76507759px;font-style:normal;font-weight:normal;line-height:125%;letter-spacing:0px;word-spacing:0px;fill:#000000;fill-opacity:1;stroke:none;font-family:Sans"
       x="10.761749"
       y="964.46674"
       id="text5494"
       sodipodi:linespacing="125%"
       transform="scale(0.9853275,1.014891)"><tspan
         sodipodi:role="line"
         id="tspan5496"
         x="10.761749"
         y="964.46674">Oktoberfest</tspan></text>
    <path
       sodipodi:type="star"
       style="fill:#afdde9;stroke:#afdde9"
       id="path3826"
       sodipodi:sides="5"
       sodipodi:cx="11.62877"
       sodipodi:cy="11.003522"
       sodipodi:r1="11.912441"
       sodipodi:r2="5.9562201"
       sodipodi:arg1="0.70862627"
       sodipodi:arg2="1.3369448"
       inkscape:flatsided="false"
       inkscape:rounded="0"
       inkscape:randomized="0"
       d="M 20.67337,18.756036 13.008981,16.79762 7.0506259,22.001106 6.5447633,14.106655 -0.24527837,10.047889 7.1064704,7.1272652 8.8683484,-0.58467595 13.917842,5.5047303 21.796784,4.797255 l -4.23099,6.684084 z"
       transform="translate(10.336685,763.12956)"
       inkscape:transform-center-x="0.85301709"
       inkscape:transform-center-y="-0.29530691" />
    <use
       x="0"
       y="0"
       xlink:href="#path3826"
       inkscape:transform-center-x="6.4283571"
       inkscape:transform-center-y="-14.89743"
       id="use3828"
       transform="matrix(0.88745042,0.46090319,-0.46090319,0.88745042,516.04566,334.56013)"
       width="200"
       height="300" />
    <g
       id="g3232"
       transform="matrix(-0.87003928,-0.4929824,0.4929824,-0.87003928,-236.06061,1765.8781)">
      <path
         inkscape:transform-center-x="-3.404105"
         style="fill:#800000;stroke:none"
         d="m 143.72288,808.79245 -4.11347,4.96656 6.80821,0.99857 z"
         id="path3230"
         inkscape:connector-curvature="0" />
      <path
         sodipodi:nodetypes="ccccc"
         transform="translate(0,752.36218)"
         inkscape:connector-curvature="0"
         id="path3226"
         d="m 133.08482,54.073041 c -30.53102,1.902933 -61.213913,7.299167 -92.599471,28.856579 -9.299005,5.110638 -4.246858,18.572 2.153476,13.782246 38.034311,-26.725577 56.979239,-29.556183 97.018545,-30.255701 6.47579,-3.151888 3.42084,-10.645365 -6.57255,-12.383124 z"
         style="fill:#a02c2c;stroke:none" />
      <path
         transform="translate(0,752.36218)"
         inkscape:connector-curvature="0"
         id="path3228"
         d="m 37.54428,92.535485 -6.149494,1.941945 5.178522,4.531207 z"
         style="fill:#800000;stroke:none" />
    </g>
    <g
       transform="matrix(0.53613953,0,0,0.56535036,15.634252,389.4009)"
       id="g3133">
      <path
         sodipodi:nodetypes="ccccc"
         transform="translate(0,752.36218)"
         inkscape:connector-curvature="0"
         id="path3123"
         d="m 61.424332,106.82493 -0.890209,93.91692 c 29.14764,15.30499 55.855447,11.90463 81.454007,-1e-5 l 0,-93.47181 z"
         style="fill:#ffdd55;stroke:none" />
      <path
         sodipodi:nodetypes="cccccc"
         transform="translate(0,752.36218)"
         inkscape:connector-curvature="0"
         id="path3127"
         d="m 144.21365,116.17211 0.89021,92.5816 c -35.83577,17.19266 -74.107806,9.43055 -87.685463,0.89021 l 0.445104,-100.59347 85.459939,-0.89021 z"
         style="fill:none;stroke:#e6e6e6;stroke-width:1px;stroke-linecap:butt;stroke-linejoin:miter;stroke-opacity:1" />
      <path
         sodipodi:nodetypes="ccccccccccccc"
         transform="translate(0,752.36218)"
         inkscape:connector-curvature="0"
         id="path3125"
         d="M 79.228485,88.130567 C 72.947158,86.350509 63.539634,87.250049 48.961424,92.581605 l 4.005934,17.359055 15.133531,6.23145 12.908012,-5.78635 c 5.514393,12.68531 16.207306,9.83506 24.925819,12.90801 l 8.90207,-7.12166 c 9.57625,3.49316 11.48611,-0.68007 12.90802,-5.34125 1.07815,11.07153 7.78223,7.14056 12.0178,9.79229 l 4.89614,-2.22552 c 8.95013,-21.091228 -0.64266,-19.003794 -4.89614,-23.590505 -6.01622,-9.35178 -20.69616,-6.574339 -32.04748,-8.456973 -9.495548,-3.645402 -18.991097,-0.18544 -28.486645,1.780415 z"
         style="fill:#f9f9f9;stroke:none" />
      <path
         sodipodi:nodetypes="cccc"
         transform="translate(0,752.36218)"
         inkscape:connector-curvature="0"
         id="path3129"
         d="m 144.65875,125.51929 c 8.60515,-6.23283 17.37398,-11.31984 27.15134,-9.34718 8.60421,2.6589 4.00309,51.84844 -1.33532,66.76558 -2.25235,6.79621 -19.98805,12.63841 -25.81602,9.79228"
         style="fill:none;stroke:#e6e6e6;stroke-width:1px;stroke-linecap:butt;stroke-linejoin:miter;stroke-opacity:1" />
      <path
         sodipodi:nodetypes="cccc"
         transform="translate(0,752.36218)"
         inkscape:connector-curvature="0"
         id="path3131"
         d="m 144.21365,138.87241 c 5.49011,-1.93864 11.28668,-10.00655 16.46884,-5.78635 4.27069,12.45114 2.41549,26.32628 0,39.61424 -4.50577,8.20348 -9.95485,9.99251 -16.02374,7.56676"
         style="fill:none;stroke:#e6e6e6;stroke-width:1px;stroke-linecap:butt;stroke-linejoin:miter;stroke-opacity:1" />
    </g>
    <use
       x="0"
       y="0"
       xlink:href="#g3133"
       id="use3224"
       transform="translate(73.218184,14.212942)"
       width="200"
       height="300" />
    <use
       x="0"
       y="0"
       xlink:href="#g3232"
       id="use3237"
       transform="matrix(-0.9938334,0.11088362,-0.11088362,-0.9938334,320.22795,1820.659)"
       width="200"
       height="300" />
  </g>
</svg>
