<?xml version="1.0" encoding="UTF-8" standalone="no"?>
<!-- Created with Inkscape (http://www.inkscape.org/) -->

<svg
   xmlns:dc="http://purl.org/dc/elements/1.1/"
   xmlns:cc="http://creativecommons.org/ns#"
   xmlns:rdf="http://www.w3.org/1999/02/22-rdf-syntax-ns#"
   xmlns:svg="http://www.w3.org/2000/svg"
   xmlns="http://www.w3.org/2000/svg"
   xmlns:xlink="http://www.w3.org/1999/xlink"
   xmlns:sodipodi="http://sodipodi.sourceforge.net/DTD/sodipodi-0.dtd"
   xmlns:inkscape="http://www.inkscape.org/namespaces/inkscape"
   width="200"
   height="300"
   id="svg5382"
   version="1.1"
   inkscape:version="0.48.3.1 r9886"
   sodipodi:docname="sigil.svg">
  <defs
     id="defs5384" />
  <sodipodi:namedview
     id="base"
     pagecolor="#ffffff"
     bordercolor="#666666"
     borderopacity="1.0"
     inkscape:pageopacity="0"
     inkscape:pageshadow="2"
     inkscape:zoom="2.3218276"
     inkscape:cx="99.502513"
     inkscape:cy="147.4583"
     inkscape:document-units="px"
     inkscape:current-layer="layer1"
     showgrid="false"
     inkscape:showpageshadow="false"
     inkscape:window-width="733"
     inkscape:window-height="945"
     inkscape:window-x="220"
     inkscape:window-y="0"
     inkscape:window-maximized="0"
     borderlayer="true"
     showguides="true"
     inkscape:guide-bbox="true" />
  <metadata
     id="metadata5387">
    <rdf:RDF>
      <cc:Work
         rdf:about="">
        <dc:format>image/svg+xml</dc:format>
        <dc:type
           rdf:resource="http://purl.org/dc/dcmitype/StillImage" />
        <dc:title />
      </cc:Work>
    </rdf:RDF>
  </metadata>
  <g
     inkscape:label="Layer 1"
     inkscape:groupmode="layer"
     id="layer1"
     transform="translate(0,-752.36218)">
    <rect
       style="fill:#ffffff;stroke:none"
       id="rect5598"
       width="204.38741"
       height="316.13028"
       x="-2.6911893"
       y="746.83875" />
    <text
       xml:space="preserve"
       style="font-size:33.21516418000000215px;font-style:normal;font-weight:normal;line-height:125%;letter-spacing:0px;word-spacing:0px;fill:#800000;fill-opacity:1;stroke:none;font-family:Sans"
       x="78.934952"
       y="1055.4788"
       id="text5494"
       sodipodi:linespacing="125%"
       transform="scale(1.0637976,0.94002845)"><tspan
         sodipodi:role="line"
         id="tspan5496"
         x="78.934952"
         y="1055.4788">Sigil</tspan></text>
    <g
       id="g3960">
      <path
         sodipodi:nodetypes="cccccccccccccccccccccccc"
         inkscape:connector-curvature="0"
         id="path5245"
         d="m 10.654447,774.96282 c 1.419565,1.40693 2.021785,1.58785 2.985978,2.31173 -0.665172,-1.05954 -1.425073,-2.11909 -1.348506,-3.17863 3.787852,-0.94024 5.934369,-1.11375 7.994716,0.28897 l -3.660232,5.20138 c -1.015395,0.46757 -1.275769,-0.95242 -1.830115,-1.63747 l 0.385287,2.69701 -1.252184,0.67426 c 0.514184,1.55333 2.084664,2.4177 3.852875,2.2154 l 8.187361,-2.2154 c 2.273415,-0.44549 4.629531,-0.9338 6.74253,2.40804 l 0.770575,-3.9492 c 0.194589,-2.05292 3.34522,-1.1498 5.394025,-1.3485 l -4.430807,-4.23817 c -0.128535,-1.99075 2.997599,-1.40109 4.527129,-1.73379 l -6.357244,-3.66023 c -0.343233,-0.94016 1.55759,-1.5063 2.60069,-2.2154 l -7.705752,-2.21541 c 0.939944,-0.92985 0.249367,-2.09263 -0.577928,-3.27494 -1.448786,1.25162 -2.639344,2.54013 -2.311727,4.04552 -3.03039,-1.09674 -7.309712,3.47812 -11.751268,4.71977 -4.1050849,2.22005 -4.874905,-0.21935 -6.0682779,3.0823 0.3660527,1.00541 1.2255651,2.07623 3.2749439,2.60069 z"
         style="fill:#d38d5f;stroke:none" />
      <path
         transform="matrix(0.25199966,0,0,0.25199966,-3.9864781,738.18064)"
         d="m 106.64222,121.88074 c 0,2.7443 -2.13913,4.96899 -4.77788,4.96899 -2.638747,0 -4.777876,-2.22469 -4.777876,-4.96899 0,-2.7443 2.139129,-4.96899 4.777876,-4.96899 2.63875,0 4.77788,2.22469 4.77788,4.96899 z"
         sodipodi:ry="4.9689922"
         sodipodi:rx="4.7778773"
         sodipodi:cy="121.88074"
         sodipodi:cx="101.86434"
         id="path5247"
         style="fill:#ffffff;stroke:none"
         sodipodi:type="arc" />
    </g>
    <use
       x="0"
       y="0"
       xlink:href="#g3960"
       id="use3964"
       transform="matrix(-0.99689071,-0.07879671,0.07879671,-0.99689071,138.16759,1801.3474)"
       width="200"
       height="300" />
    <path
       style="opacity:0.75;fill:#d40000;stroke:none"
       d="m 100.78268,812.46495 c 14.78569,10.10076 26.37807,16.95114 30.14866,35.31701 1.94863,5.57376 -20.94484,43.89152 -36.609091,61.58941 -18.235264,5.86204 -29.6345,6.33811 -34.024921,1.29209 -0.474644,-15.64263 18.006619,-64.90683 28.425883,-74.94096 17.655909,1.07525 54.656759,31.61183 65.465669,46.94577 2.28462,4.18515 5.78172,18.64561 1.29208,38.33187 -2.91429,5.9357 -8.54734,8.51517 -7.32181,4.30696 3.17782,-13.63793 2.99856,-28.75469 -2.34427,-39.65742 -3.62002,-9.37458 -46.022721,-44.52579 -54.507498,-39.5905 -14.051147,14.57726 -21.008832,42.47986 -21.965455,57.28246 1.474199,8.07778 14.772057,4.56249 21.53476,0.86139 7.890241,-7.36154 30.519783,-40.92466 32.302143,-58.14385 -0.57503,-8.77453 -13.16034,-18.68504 -21.60168,-27.40716 -7.294369,-4.54337 -7.763936,-6.67799 -0.79447,-6.18707 z"
       id="path3598"
       inkscape:connector-curvature="0"
       sodipodi:nodetypes="ccccccccccccccc" />
    <path
       sodipodi:type="arc"
       style="opacity:0.75;fill:#d40000;fill-opacity:1;stroke:none"
       id="path3600"
       sodipodi:cx="70.404427"
       sodipodi:cy="139.83977"
       sodipodi:rx="7.6304235"
       sodipodi:ry="36.814827"
       d="m 78.03485,139.83977 a 7.6304235,36.814827 0 1 1 -15.260847,0 7.6304235,36.814827 0 1 1 15.260847,0 z"
       transform="translate(25.841712,752.36218)" />
    <path
       style="opacity:0.75;fill:#d40000;stroke:none"
       d="m 73.197537,922.25166 4.090536,12.27161 c 3.643066,7.15921 5.717396,6.99766 8.181073,8.65306 -2.552579,-6.1993 -3.685821,-14.76416 -5.034507,-22.96994 -4.1149,-4.18262 -6.041696,-2.11352 -7.237102,2.04527 z"
       id="path3602"
       inkscape:connector-curvature="0"
       sodipodi:nodetypes="ccccc" />
    <path
       sodipodi:nodetypes="ccccc"
       inkscape:connector-curvature="0"
       id="path3604"
       d="m 119.56358,929.98225 -6.96699,10.8989 c -5.28302,6.0511 -7.25489,5.38724 -10.04855,6.38998 3.99093,-5.38697 7.18402,-13.41475 10.49822,-21.04166 5.01272,-3.0495 6.3751,-0.57207 6.51732,3.75278 z"
       style="opacity:0.75;fill:#d40000;stroke:none" />
  </g>
</svg>
