<?xml version="1.0" encoding="UTF-8" standalone="no"?>
<!-- Created with Inkscape (http://www.inkscape.org/) -->

<svg
   xmlns:dc="http://purl.org/dc/elements/1.1/"
   xmlns:cc="http://creativecommons.org/ns#"
   xmlns:rdf="http://www.w3.org/1999/02/22-rdf-syntax-ns#"
   xmlns:svg="http://www.w3.org/2000/svg"
   xmlns="http://www.w3.org/2000/svg"
   xmlns:xlink="http://www.w3.org/1999/xlink"
   xmlns:sodipodi="http://sodipodi.sourceforge.net/DTD/sodipodi-0.dtd"
   xmlns:inkscape="http://www.inkscape.org/namespaces/inkscape"
   width="200"
   height="300"
   id="svg5382"
   version="1.1"
   inkscape:version="0.48.3.1 r9886"
   sodipodi:docname="skin.svg">
  <defs
     id="defs5384" />
  <sodipodi:namedview
     id="base"
     pagecolor="#ffffff"
     bordercolor="#666666"
     borderopacity="1.0"
     inkscape:pageopacity="0"
     inkscape:pageshadow="2"
     inkscape:zoom="2.3218276"
     inkscape:cx="99.502513"
     inkscape:cy="147.4583"
     inkscape:document-units="px"
     inkscape:current-layer="layer1"
     showgrid="false"
     inkscape:showpageshadow="false"
     inkscape:window-width="733"
     inkscape:window-height="945"
     inkscape:window-x="249"
     inkscape:window-y="0"
     inkscape:window-maximized="0"
     borderlayer="true" />
  <metadata
     id="metadata5387">
    <rdf:RDF>
      <cc:Work
         rdf:about="">
        <dc:format>image/svg+xml</dc:format>
        <dc:type
           rdf:resource="http://purl.org/dc/dcmitype/StillImage" />
        <dc:title></dc:title>
      </cc:Work>
    </rdf:RDF>
  </metadata>
  <g
     inkscape:label="Layer 1"
     inkscape:groupmode="layer"
     id="layer1"
     transform="translate(0,-752.36218)">
    <rect
       style="fill:#ffffff;stroke:none"
       id="rect5598"
       width="204.38741"
       height="316.13028"
       x="-2.6911893"
       y="746.83875" />
    <text
       xml:space="preserve"
       style="font-size:33.21516418px;font-style:normal;font-weight:normal;line-height:125%;letter-spacing:0px;word-spacing:0px;fill:#000000;fill-opacity:1;stroke:none;font-family:Sans"
       x="89.056595"
       y="1061.4351"
       id="text5494"
       sodipodi:linespacing="125%"
       transform="scale(1.0637976,0.94002845)"><tspan
         sodipodi:role="line"
         id="tspan5496"
         x="89.056595"
         y="1061.4351">Skin</tspan></text>
    <g
       id="g3960">
      <path
         sodipodi:nodetypes="cccccccccccccccccccccccc"
         inkscape:connector-curvature="0"
         id="path5245"
         d="m 10.654447,774.96282 c 1.419565,1.40693 2.021785,1.58785 2.985978,2.31173 -0.665172,-1.05954 -1.425073,-2.11909 -1.348506,-3.17863 3.787852,-0.94024 5.934369,-1.11375 7.994716,0.28897 l -3.660232,5.20138 c -1.015395,0.46757 -1.275769,-0.95242 -1.830115,-1.63747 l 0.385287,2.69701 -1.252184,0.67426 c 0.514184,1.55333 2.084664,2.4177 3.852875,2.2154 l 8.187361,-2.2154 c 2.273415,-0.44549 4.629531,-0.9338 6.74253,2.40804 l 0.770575,-3.9492 c 0.194589,-2.05292 3.34522,-1.1498 5.394025,-1.3485 l -4.430807,-4.23817 c -0.128535,-1.99075 2.997599,-1.40109 4.527129,-1.73379 l -6.357244,-3.66023 c -0.343233,-0.94016 1.55759,-1.5063 2.60069,-2.2154 l -7.705752,-2.21541 c 0.939944,-0.92985 0.249367,-2.09263 -0.577928,-3.27494 -1.448786,1.25162 -2.639344,2.54013 -2.311727,4.04552 -3.03039,-1.09674 -7.309712,3.47812 -11.751268,4.71977 -4.1050849,2.22005 -4.874905,-0.21935 -6.0682779,3.0823 0.3660527,1.00541 1.2255651,2.07623 3.2749439,2.60069 z"
         style="fill:#d38d5f;stroke:none" />
      <path
         transform="matrix(0.25199966,0,0,0.25199966,-3.9864781,738.18064)"
         d="m 106.64222,121.88074 a 4.7778773,4.9689922 0 1 1 -9.555756,0 4.7778773,4.9689922 0 1 1 9.555756,0 z"
         sodipodi:ry="4.9689922"
         sodipodi:rx="4.7778773"
         sodipodi:cy="121.88074"
         sodipodi:cx="101.86434"
         id="path5247"
         style="fill:#ffffff;stroke:none"
         sodipodi:type="arc" />
    </g>
    <use
       x="0"
       y="0"
       xlink:href="#g3960"
       id="use3964"
       transform="matrix(-0.99689071,-0.07879671,0.07879671,-0.99689071,138.16759,1801.3474)"
       width="200"
       height="300" />
    <path
       style="fill:#deaa87;stroke:none;stroke-width:1px;stroke-linecap:butt;stroke-linejoin:miter;stroke-opacity:1"
       d="M 34.455617,91.543522 C 47.950586,108.16121 61.8868,126.7144 62.450805,144.51903 c 2.434758,24.61264 -19.55908,37.9934 -29.71797,56.42107 l 34.886312,9.4753 c 5.16561,-2.15575 13.241717,-12.72526 25.411017,-9.0446 l 4.306952,15.93572 3.876254,-15.50503 c 14.18513,-0.78213 17.56858,6.78157 22.39615,11.19807 l 39.62396,-11.62876 c -7.7544,-17.94563 -23.08309,-40.62892 -23.25754,-53.8369 -2.02519,-12.05947 6.55008,-40.91605 14.64364,-61.158721 L 130.93134,70.439456 c -4.53407,4.332743 -12.0629,15.327078 -17.6585,9.0446 l 0,-10.76738 -29.717971,2.584171 -0.430694,10.76738 c -8.28286,1.678866 -15.33293,-5.196875 -18.519894,-8.613904 z"
       id="path3966"
       inkscape:connector-curvature="0"
       transform="translate(0,752.36218)"
       sodipodi:nodetypes="cccccccccccccccccc" />
    <path
       style="fill:#e9c6af;stroke:none"
       d="m 98.208927,852.9503 -21.975876,7.95129 23.518042,2.3854 24.289127,-6.36104 z"
       id="path3968"
       inkscape:connector-curvature="0" />
    <path
       inkscape:connector-curvature="0"
       id="path3970"
       d="m 96.906421,867.16324 -24.549627,8.6139 26.272408,2.58418 27.133798,-6.89113 z"
       style="fill:#e9c6af;stroke:none" />
    <path
       style="fill:#e9c6af;stroke:none"
       d="m 96.906421,883.52965 -24.549627,8.6139 26.272408,2.58418 27.133798,-6.89113 z"
       id="path3972"
       inkscape:connector-curvature="0" />
    <path
       inkscape:connector-curvature="0"
       id="path3974"
       d="m 98.302707,901.61885 -23.361742,7.61999 25.001163,2.286 25.820882,-6.096 z"
       style="fill:#e9c6af;stroke:none" />
    <path
       style="fill:#e9c6af;stroke:none"
       d="m 98.90707,917.55457 -21.381934,6.95738 22.882424,2.08722 23.63267,-5.56591 z"
       id="path3976"
       inkscape:connector-curvature="0" />
  </g>
</svg>
