<?xml version="1.0" encoding="UTF-8" standalone="no"?>
<!-- Created with Inkscape (http://www.inkscape.org/) -->

<svg
   xmlns:dc="http://purl.org/dc/elements/1.1/"
   xmlns:cc="http://creativecommons.org/ns#"
   xmlns:rdf="http://www.w3.org/1999/02/22-rdf-syntax-ns#"
   xmlns:svg="http://www.w3.org/2000/svg"
   xmlns="http://www.w3.org/2000/svg"
   xmlns:xlink="http://www.w3.org/1999/xlink"
   xmlns:sodipodi="http://sodipodi.sourceforge.net/DTD/sodipodi-0.dtd"
   xmlns:inkscape="http://www.inkscape.org/namespaces/inkscape"
   width="200"
   height="300"
   id="svg5382"
   version="1.1"
   inkscape:version="0.48.3.1 r9886"
   sodipodi:docname="steamengine.svg">
  <defs
     id="defs5384">
    <filter
       inkscape:collect="always"
       id="filter4818"
       x="-0.066545458"
       width="1.1330909"
       y="-0.6099997"
       height="2.2199994">
      <feGaussianBlur
         inkscape:collect="always"
         stdDeviation="1.9422568"
         id="feGaussianBlur4820" />
    </filter>
    <filter
       inkscape:collect="always"
       id="filter4834">
      <feGaussianBlur
         inkscape:collect="always"
         stdDeviation="0.37529618"
         id="feGaussianBlur4836" />
    </filter>
  </defs>
  <sodipodi:namedview
     id="base"
     pagecolor="#ffffff"
     bordercolor="#666666"
     borderopacity="1.0"
     inkscape:pageopacity="0"
     inkscape:pageshadow="2"
     inkscape:zoom="2.2173352"
     inkscape:cx="99.978465"
     inkscape:cy="150.71064"
     inkscape:document-units="px"
     inkscape:current-layer="layer1"
     showgrid="false"
     inkscape:showpageshadow="false"
     inkscape:window-width="727"
     inkscape:window-height="885"
     inkscape:window-x="220"
     inkscape:window-y="42"
     inkscape:window-maximized="0"
     borderlayer="true" />
  <metadata
     id="metadata5387">
    <rdf:RDF>
      <cc:Work
         rdf:about="">
        <dc:format>image/svg+xml</dc:format>
        <dc:type
           rdf:resource="http://purl.org/dc/dcmitype/StillImage" />
        <dc:title />
      </cc:Work>
    </rdf:RDF>
  </metadata>
  <g
     inkscape:label="Layer 1"
     inkscape:groupmode="layer"
     id="layer1"
     transform="translate(0,-752.36218)">
    <rect
       style="fill:#ffffff;stroke:none"
       id="rect5598"
       width="203.35323"
       height="303.96848"
       x="-1.698148"
       y="749.6673" />
    <text
       xml:space="preserve"
       style="font-size:33.21516418px;font-style:normal;font-weight:normal;line-height:125%;letter-spacing:0px;word-spacing:0px;fill:#000000;fill-opacity:1;stroke:none;font-family:Sans"
       x="38.201412"
       y="1046.0182"
       id="text5494"
       sodipodi:linespacing="125%"
       transform="scale(1.0637976,0.94002845)"><tspan
         sodipodi:role="line"
         id="tspan5496"
         x="38.201412"
         y="1046.0182">Steam</tspan><tspan
         sodipodi:role="line"
         x="38.201412"
         y="1087.5371"
         id="tspan4804">engine</tspan></text>
    <g
       id="g5280"
       transform="matrix(0.3658131,0,0,0.36284405,-18.689034,452.89915)"
       style="fill:#ffe680;stroke:#ffffff">
      <path
         sodipodi:nodetypes="cccccc"
         transform="translate(0,752.36218)"
         inkscape:connector-curvature="0"
         id="path5272"
         d="M 65.743592,166.21944 71.859275,105.82707 110.46452,86.715557 105.1133,118.82289 87.530712,185.33094 z"
         style="fill:#ffe680;stroke:#ffffff;stroke-width:1px;stroke-linecap:butt;stroke-linejoin:miter;stroke-opacity:1" />
      <path
         transform="translate(0,752.36218)"
         inkscape:connector-curvature="0"
         id="path5274"
         d="m 110.08229,87.862248 -6.11568,32.107332 18.34705,-9.93798 z"
         style="fill:#ffe680;stroke:#ffffff;stroke-width:1px;stroke-linecap:butt;stroke-linejoin:miter;stroke-opacity:1" />
      <path
         sodipodi:nodetypes="ccccc"
         transform="translate(0,752.36218)"
         inkscape:connector-curvature="0"
         id="path5276"
         d="m 104.34884,118.82289 16.81813,-7.6446 -16.05367,59.62791 -16.818127,13.76028 z"
         style="fill:#ffe680;stroke:#ffffff;stroke-width:1px;stroke-linecap:butt;stroke-linejoin:miter;stroke-opacity:1" />
      <path
         sodipodi:nodetypes="cc"
         transform="translate(0,752.36218)"
         inkscape:connector-curvature="0"
         id="path5278"
         d="m 73.388195,105.82707 30.578415,12.61359"
         style="fill:#ffe680;stroke:#ffffff;stroke-width:1px;stroke-linecap:butt;stroke-linejoin:miter;stroke-opacity:1" />
    </g>
    <use
       x="0"
       y="0"
       xlink:href="#g5280"
       id="use5571"
       transform="matrix(-1,0,0,-1,198.25878,1803.0886)"
       width="200"
       height="300" />
    <path
       style="fill:#cccccc;stroke:none;stroke-width:1px;stroke-linecap:butt;stroke-linejoin:miter;stroke-opacity:1"
       d="m 139.35647,69.092197 -0.90199,26.157524 7.66686,0.450992 0,-27.5105 z"
       id="path4840"
       inkscape:connector-curvature="0"
       transform="translate(0,752.36218)" />
    <g
       id="g4822">
      <path
         sodipodi:nodetypes="ccccc"
         transform="translate(0,752.36218)"
         inkscape:connector-curvature="0"
         id="path4046"
         d="m 66.652312,92.825936 1.273611,37.359254 80.662037,0 0.42454,-38.208328 z"
         style="fill:#ffe680;stroke:none" />
      <path
         transform="translate(0,752.36218)"
         inkscape:connector-curvature="0"
         id="path4048"
         d="m 73.444904,119.14723 69.199536,-0.42454 0.42453,7.21713 -70.048603,0.42454 z"
         style="fill:#ffd42a;stroke:none;stroke-width:1px;stroke-linecap:butt;stroke-linejoin:miter;stroke-opacity:1;filter:url(#filter4818)" />
    </g>
    <path
       style="opacity:0.75;fill:#b3b3b3;fill-opacity:1;stroke:none"
       d="m 60.404007,851.25855 c -16.060874,0 -29.09375,12.55654 -29.09375,28.03125 0,15.47471 13.032876,28 29.09375,28 16.060874,0 29.0625,-12.52529 29.0625,-28 0,-15.47471 -13.001626,-28.03125 -29.0625,-28.03125 z m 3.78125,4.71875 14.125,9 -15.6875,11.34375 1.5625,-20.34375 z m -8.6875,0.96875 2.96875,18.96875 -17.40625,-9.8125 14.4375,-9.15625 z m 26.40625,11.1875 1.8125,16.65625 -18.625,-5.125 16.8125,-11.53125 z m -44.5625,7.34375 18.625,5.1875 -16.875,11.46875 -1.75,-16.65625 z m 21.0625,8.59375 -1.4375,20.34375 -14.15625,-8.9375 15.59375,-11.40625 z m 4.15625,0.375 17.46875,9.75 -14.40625,9.21875 -3.0625,-18.96875 z"
       id="path4031"
       inkscape:connector-curvature="0" />
    <path
       style="fill:#999999;stroke:none;stroke-width:1px;stroke-linecap:butt;stroke-linejoin:miter;stroke-opacity:1"
       d="m 63.589844,100.66162 41.942236,15.33372 -2.25496,4.50992 -41.942235,-15.78471 z"
       id="path4826"
       inkscape:connector-curvature="0"
       transform="translate(0,752.36218)" />
    <path
       sodipodi:type="arc"
       style="opacity:0.75000000000000000;fill:#ffeeaa;fill-opacity:1;stroke:none"
       id="path4828"
       sodipodi:cx="62.462364"
       sodipodi:cy="102.46559"
       sodipodi:rx="3.8334303"
       sodipodi:ry="3.1569426"
       d="m 66.295794,102.46559 a 3.8334303,3.1569426 0 1 1 -7.66686,0 3.8334303,3.1569426 0 1 1 7.66686,0 z"
       transform="translate(0,752.36218)" />
    <path
       style="fill:#ffe680;stroke:none"
       d="m 102.37514,110.58344 -3.988382,12.43755 40.067722,11.91601 3.60794,-11.72579 z"
       id="path4830"
       inkscape:connector-curvature="0"
       transform="translate(0,752.36218)"
       sodipodi:nodetypes="ccccc" />
    <path
       style="fill:#ffffff;stroke:none;stroke-width:1px;stroke-linecap:butt;stroke-linejoin:miter;stroke-opacity:1;filter:url(#filter4834)"
       d="m 103.72811,112.38741 -0.33844,2.48087 35.12108,11.71864 0.7189,-2.42459 z"
       id="path4832"
       inkscape:connector-curvature="0"
       transform="translate(0,752.36218)"
       sodipodi:nodetypes="ccccc" />
    <path
       sodipodi:type="arc"
       style="opacity:0.75;fill:#ffffff;fill-opacity:1;stroke:none"
       id="path4838"
       sodipodi:cx="61.785877"
       sodipodi:cy="127.27014"
       sodipodi:rx="2.7059507"
       sodipodi:ry="2.7059507"
       d="m 64.491828,127.27014 a 2.7059507,2.7059507 0 1 1 -5.411902,0 2.7059507,2.7059507 0 1 1 5.411902,0 z"
       transform="translate(0,752.36218)" />
  </g>
</svg>
