<?xml version="1.0" encoding="UTF-8" standalone="no"?>
<!-- Created with Inkscape (http://www.inkscape.org/) -->

<svg
   xmlns:dc="http://purl.org/dc/elements/1.1/"
   xmlns:cc="http://creativecommons.org/ns#"
   xmlns:rdf="http://www.w3.org/1999/02/22-rdf-syntax-ns#"
   xmlns:svg="http://www.w3.org/2000/svg"
   xmlns="http://www.w3.org/2000/svg"
   xmlns:xlink="http://www.w3.org/1999/xlink"
   xmlns:sodipodi="http://sodipodi.sourceforge.net/DTD/sodipodi-0.dtd"
   xmlns:inkscape="http://www.inkscape.org/namespaces/inkscape"
   width="200"
   height="300"
   id="svg5382"
   version="1.1"
   inkscape:version="0.48.2 r9819"
   sodipodi:docname="tablet.svg">
  <defs
     id="defs5384" />
  <sodipodi:namedview
     id="base"
     pagecolor="#ffffff"
     bordercolor="#666666"
     borderopacity="1.0"
     inkscape:pageopacity="0"
     inkscape:pageshadow="2"
     inkscape:zoom="4.3172379"
     inkscape:cx="97.856647"
     inkscape:cy="169.82658"
     inkscape:document-units="px"
     inkscape:current-layer="layer1"
     showgrid="false"
     inkscape:showpageshadow="false"
     inkscape:window-width="674"
     inkscape:window-height="885"
     inkscape:window-x="220"
     inkscape:window-y="42"
     inkscape:window-maximized="0"
     borderlayer="true" />
  <metadata
     id="metadata5387">
    <rdf:RDF>
      <cc:Work
         rdf:about="">
        <dc:format>image/svg+xml</dc:format>
        <dc:type
           rdf:resource="http://purl.org/dc/dcmitype/StillImage" />
        <dc:title />
      </cc:Work>
    </rdf:RDF>
  </metadata>
  <g
     inkscape:label="Layer 1"
     inkscape:groupmode="layer"
     id="layer1"
     transform="translate(0,-752.36218)">
    <rect
       style="fill:#ffffff;stroke:none"
       id="rect5598"
       width="203.35323"
       height="303.96848"
       x="-1.698148"
       y="749.6673" />
    <text
       xml:space="preserve"
       style="font-size:33.21516418px;font-style:normal;font-weight:normal;line-height:125%;letter-spacing:0px;word-spacing:0px;fill:#000000;fill-opacity:1;stroke:none;font-family:Sans"
       x="58.155254"
       y="1061.825"
       id="text5494"
       sodipodi:linespacing="125%"
       transform="scale(1.0637976,0.94002845)"><tspan
         sodipodi:role="line"
         id="tspan5496"
         x="58.155254"
         y="1061.825">Tablet</tspan></text>
    <g
       id="g5280"
       transform="matrix(0.3658131,0,0,0.36284405,-18.689034,452.89915)"
       style="fill:#ffe680;stroke:#ffffff">
      <path
         sodipodi:nodetypes="cccccc"
         transform="translate(0,752.36218)"
         inkscape:connector-curvature="0"
         id="path5272"
         d="M 65.743592,166.21944 71.859275,105.82707 110.46452,86.715557 105.1133,118.82289 87.530712,185.33094 z"
         style="fill:#ffe680;stroke:#ffffff;stroke-width:1px;stroke-linecap:butt;stroke-linejoin:miter;stroke-opacity:1" />
      <path
         transform="translate(0,752.36218)"
         inkscape:connector-curvature="0"
         id="path5274"
         d="m 110.08229,87.862248 -6.11568,32.107332 18.34705,-9.93798 z"
         style="fill:#ffe680;stroke:#ffffff;stroke-width:1px;stroke-linecap:butt;stroke-linejoin:miter;stroke-opacity:1" />
      <path
         sodipodi:nodetypes="ccccc"
         transform="translate(0,752.36218)"
         inkscape:connector-curvature="0"
         id="path5276"
         d="m 104.34884,118.82289 16.81813,-7.6446 -16.05367,59.62791 -16.818127,13.76028 z"
         style="fill:#ffe680;stroke:#ffffff;stroke-width:1px;stroke-linecap:butt;stroke-linejoin:miter;stroke-opacity:1" />
      <path
         sodipodi:nodetypes="cc"
         transform="translate(0,752.36218)"
         inkscape:connector-curvature="0"
         id="path5278"
         d="m 73.388195,105.82707 30.578415,12.61359"
         style="fill:#ffe680;stroke:#ffffff;stroke-width:1px;stroke-linecap:butt;stroke-linejoin:miter;stroke-opacity:1" />
    </g>
    <use
       x="0"
       y="0"
       xlink:href="#g5280"
       id="use5571"
       transform="matrix(-1,0,0,-1,198.25878,1803.0886)"
       width="200"
       height="300" />
    <path
       style="fill:#e6e6e6;stroke:none;stroke-width:1px;stroke-linecap:butt;stroke-linejoin:miter;stroke-opacity:1"
       d="m 39.90648,64.806493 c -2.485124,43.302777 -2.727722,89.152767 6.792592,133.729157 33.236826,7.92705 71.560578,5.68526 107.832398,2.12269 4.02252,-42.46038 4.69265,-90.12007 -5.51898,-139.672681 -34.27691,-5.741504 -68.779655,-7.59381 -109.10601,3.820834 z"
       id="path4144"
       inkscape:connector-curvature="0"
       transform="translate(0,752.36218)"
       sodipodi:nodetypes="ccccc" />
    <path
       style="fill:#b3b3b3;stroke:none"
       d="m 48.589335,831.31556 -0.222517,-6.40403 c 0.832885,2.75626 6.526127,3.5794 12.291675,4.72205 -4.473212,-0.0633 -11.414383,-1.07087 -12.069158,1.68198 z"
       id="path4146"
       inkscape:connector-curvature="0"
       sodipodi:nodetypes="cccc" />
    <path
       sodipodi:nodetypes="cccc"
       inkscape:connector-curvature="0"
       id="path4148"
       d="m 52.489303,835.65926 -0.250641,-6.40299 c 0.844982,2.75258 6.541784,3.5507 12.312295,4.66802 -4.473446,-0.0436 -11.418976,-1.02073 -12.061654,1.73497 z"
       style="fill:#b3b3b3;stroke:none" />
    <path
       style="fill:#b3b3b3;stroke:none"
       d="m 48.572695,839.53118 -0.758773,-6.36281 c 1.06109,2.67671 6.803306,3.01952 12.644368,3.67465 -4.462761,0.31207 -11.46398,-0.1099 -11.885595,2.68816 z"
       id="path4150"
       inkscape:connector-curvature="0"
       sodipodi:nodetypes="cccc" />
    <path
       sodipodi:nodetypes="cccc"
       inkscape:connector-curvature="0"
       id="path4152"
       d="m 50.872358,839.90151 6.350828,-0.85327 c -2.660642,1.10076 -2.918061,6.84744 -3.486297,12.69759 -0.37837,-4.45763 -0.06051,-11.46434 -2.864531,-11.84432 z"
       style="fill:#b3b3b3;stroke:none" />
    <path
       style="fill:#b3b3b3;stroke:none"
       d="m 56.053639,839.46974 6.350828,-0.85327 c -2.660642,1.10076 -2.918061,6.84744 -3.486297,12.69759 -0.37837,-4.45763 -0.06051,-11.46434 -2.864531,-11.84432 z"
       id="path4154"
       inkscape:connector-curvature="0"
       sodipodi:nodetypes="cccc" />
    <path
       sodipodi:nodetypes="cccc"
       inkscape:connector-curvature="0"
       id="path4156"
       d="m 78.468545,836.35133 -0.758773,-6.36281 c 1.06109,2.67671 6.803306,3.01952 12.644368,3.67465 -4.462761,0.31207 -11.46398,-0.1099 -11.885595,2.68816 z"
       style="fill:#b3b3b3;stroke:none" />
    <path
       style="fill:#b3b3b3;stroke:none"
       d="m 72.892802,839.03796 6.350828,-0.85327 c -2.660642,1.10076 -2.918061,6.84744 -3.486297,12.69759 -0.37837,-4.45763 -0.06051,-11.46434 -2.864531,-11.84432 z"
       id="path4158"
       inkscape:connector-curvature="0"
       sodipodi:nodetypes="cccc" />
    <path
       sodipodi:nodetypes="cccc"
       inkscape:connector-curvature="0"
       id="path4160"
       d="m 78.074083,838.60619 6.350828,-0.85327 c -2.660642,1.10076 -2.918061,6.84744 -3.486297,12.69759 -0.37837,-4.45763 -0.06051,-11.46434 -2.864531,-11.84432 z"
       style="fill:#b3b3b3;stroke:none" />
    <path
       sodipodi:nodetypes="cccc"
       inkscape:connector-curvature="0"
       id="path4162"
       d="m 72.772262,836.17146 -0.758773,-5.93104 c 1.06109,2.49507 6.803306,2.81462 12.644368,3.42529 -4.462761,0.2909 -11.46398,-0.10244 -11.885595,2.50575 z"
       style="fill:#b3b3b3;stroke:none" />
    <path
       sodipodi:nodetypes="cccc"
       inkscape:connector-curvature="0"
       id="path4164"
       d="m 95.360871,839.50122 6.350829,-0.85327 c -2.660643,1.10076 -2.918062,6.84744 -3.486298,12.69759 -0.37837,-4.45763 -0.06051,-11.46434 -2.864531,-11.84432 z"
       style="fill:#b3b3b3;stroke:none" />
    <path
       style="fill:#b3b3b3;stroke:none"
       d="m 100.54215,839.06945 6.35083,-0.85327 c -2.66064,1.10076 -2.91806,6.84744 -3.4863,12.69759 -0.37837,-4.45763 -0.0605,-11.46434 -2.86453,-11.84432 z"
       id="path4166"
       inkscape:connector-curvature="0"
       sodipodi:nodetypes="cccc" />
    <path
       style="fill:#b3b3b3;stroke:none"
       d="m 94.545443,834.78168 -0.758773,-5.93104 c 1.06109,2.49507 6.80331,2.81462 12.64437,3.42529 -4.46276,0.2909 -11.463982,-0.10244 -11.885597,2.50575 z"
       id="path4168"
       inkscape:connector-curvature="0"
       sodipodi:nodetypes="cccc" />
    <path
       style="fill:#b3b3b3;stroke:none"
       d="m 96.500872,826.0288 5.856988,-1.20359 c -2.408009,1.2461 -2.29391,6.99607 -2.462649,12.86654 -0.626392,-4.42814 -0.761793,-11.4391 -3.394339,-11.66295 z"
       id="path4170"
       inkscape:connector-curvature="0"
       sodipodi:nodetypes="cccc" />
    <path
       sodipodi:nodetypes="cccc"
       inkscape:connector-curvature="0"
       id="path4172"
       d="m 120.3945,837.33793 -0.22251,-6.40403 c 0.83288,2.75626 6.52612,3.5794 12.29167,4.72205 -4.47321,-0.0633 -11.41438,-1.07087 -12.06916,1.68198 z"
       style="fill:#b3b3b3;stroke:none" />
    <path
       style="fill:#b3b3b3;stroke:none"
       d="m 120.12514,844.92445 -0.25064,-6.40299 c 0.84498,2.75258 6.54178,3.5507 12.3123,4.66802 -4.47345,-0.0436 -11.41898,-1.02073 -12.06166,1.73497 z"
       id="path4174"
       inkscape:connector-curvature="0"
       sodipodi:nodetypes="cccc" />
    <path
       sodipodi:nodetypes="cccc"
       inkscape:connector-curvature="0"
       id="path4187"
       d="m 114.79961,828.81355 5.85699,-2.1353 c -2.40801,2.21071 -2.29391,12.41177 -2.46265,22.82661 -0.62639,-7.85599 -0.76179,-20.29418 -3.39434,-20.69131 z"
       style="fill:#b3b3b3;stroke:none" />
    <path
       style="fill:#b3b3b3;stroke:none"
       d="M 81.765243,866.59525 71.341912,879.33488 83.38665,893.00102 C 78.509346,884.4542 76.205848,875.75599 81.765243,866.59525 z"
       id="path4189"
       inkscape:connector-curvature="0"
       sodipodi:nodetypes="cccc" />
    <path
       style="fill:#b3b3b3;stroke:none"
       d="m 87.532421,876.69806 6.371553,-0.94889 c -2.689395,1.43214 -3.101894,9.42136 -3.82789,17.54293 -0.257867,-6.21889 0.249072,-15.9597 -2.543663,-16.59404 z"
       id="path4191"
       inkscape:connector-curvature="0"
       sodipodi:nodetypes="cccc" />
    <path
       style="fill:#b3b3b3;stroke:none"
       d="m 87.781434,868.77003 5.939815,-0.95619 c -2.507769,1.4352 -2.897009,9.42483 -3.578549,17.54715 -0.236697,-6.21852 0.241613,-15.95984 -2.361266,-16.59096 z"
       id="path4193"
       inkscape:connector-curvature="0"
       sodipodi:nodetypes="cccc" />
    <path
       sodipodi:nodetypes="cccc"
       inkscape:connector-curvature="0"
       id="path4195"
       d="m 96.797604,876.46643 6.371556,-0.94889 c -2.6894,1.43214 -3.1019,9.42136 -3.827893,17.54293 -0.257867,-6.21889 0.249072,-15.9597 -2.543663,-16.59404 z"
       style="fill:#b3b3b3;stroke:none" />
    <path
       sodipodi:nodetypes="cccc"
       inkscape:connector-curvature="0"
       id="path4197"
       d="m 97.046617,868.5384 5.939813,-0.95619 c -2.50777,1.4352 -2.89701,9.42483 -3.578547,17.54715 -0.236697,-6.21852 0.241613,-15.95984 -2.361266,-16.59096 z"
       style="fill:#b3b3b3;stroke:none" />
    <path
       style="fill:#b3b3b3;stroke:none"
       d="m 106.29442,875.77154 6.37155,-0.94889 c -2.6894,1.43214 -3.1019,9.42136 -3.82789,17.54293 -0.25787,-6.21889 0.24907,-15.9597 -2.54366,-16.59404 z"
       id="path4199"
       inkscape:connector-curvature="0"
       sodipodi:nodetypes="cccc" />
    <path
       style="fill:#b3b3b3;stroke:none"
       d="m 106.54343,867.84351 5.93981,-0.95619 c -2.50777,1.4352 -2.89701,9.42483 -3.57854,17.54715 -0.2367,-6.21852 0.24161,-15.95984 -2.36127,-16.59096 z"
       id="path4201"
       inkscape:connector-curvature="0"
       sodipodi:nodetypes="cccc" />
    <path
       sodipodi:nodetypes="cccc"
       inkscape:connector-curvature="0"
       id="path4203"
       d="m 86.210743,932.31788 12.116472,11.14159 14.338865,-11.23548 c -8.8142,4.37562 -17.630913,6.173 -26.455337,0.0939 z"
       style="fill:#b3b3b3;stroke:none" />
    <path
       sodipodi:nodetypes="cccc"
       inkscape:connector-curvature="0"
       id="path4205"
       d="m 90.015244,922.39495 5.856988,-0.74857 c -2.408009,0.77501 -2.29391,4.35119 -2.462649,8.00232 -0.626392,-2.75407 -0.761793,-7.11453 -3.394339,-7.25375 z"
       style="fill:#b3b3b3;stroke:none" />
    <path
       style="fill:#b3b3b3;stroke:none"
       d="m 101.36509,922.62658 5.85699,-0.74857 c -2.40801,0.77501 -2.29391,4.35119 -2.46265,8.00232 -0.62639,-2.75407 -0.76179,-7.11453 -3.39434,-7.25375 z"
       id="path4207"
       inkscape:connector-curvature="0"
       sodipodi:nodetypes="cccc" />
  </g>
</svg>
