<?xml version="1.0" encoding="UTF-8" standalone="no"?>
<!-- Created with Inkscape (http://www.inkscape.org/) -->

<svg
   xmlns:dc="http://purl.org/dc/elements/1.1/"
   xmlns:cc="http://creativecommons.org/ns#"
   xmlns:rdf="http://www.w3.org/1999/02/22-rdf-syntax-ns#"
   xmlns:svg="http://www.w3.org/2000/svg"
   xmlns="http://www.w3.org/2000/svg"
   xmlns:xlink="http://www.w3.org/1999/xlink"
   xmlns:sodipodi="http://sodipodi.sourceforge.net/DTD/sodipodi-0.dtd"
   xmlns:inkscape="http://www.inkscape.org/namespaces/inkscape"
   width="200"
   height="300"
   id="svg5382"
   version="1.1"
   inkscape:version="0.48.3.1 r9886"
   sodipodi:docname="telescope.svg">
  <defs
     id="defs5384">
    <filter
       inkscape:collect="always"
       id="filter5508">
      <feGaussianBlur
         inkscape:collect="always"
         stdDeviation="1.2162985"
         id="feGaussianBlur5510" />
    </filter>
  </defs>
  <sodipodi:namedview
     id="base"
     pagecolor="#ffffff"
     bordercolor="#666666"
     borderopacity="1.0"
     inkscape:pageopacity="0"
     inkscape:pageshadow="2"
     inkscape:zoom="2.2173352"
     inkscape:cx="99.978465"
     inkscape:cy="150.71064"
     inkscape:document-units="px"
     inkscape:current-layer="layer1"
     showgrid="false"
     inkscape:showpageshadow="false"
     inkscape:window-width="727"
     inkscape:window-height="885"
     inkscape:window-x="220"
     inkscape:window-y="42"
     inkscape:window-maximized="0"
     borderlayer="true" />
  <metadata
     id="metadata5387">
    <rdf:RDF>
      <cc:Work
         rdf:about="">
        <dc:format>image/svg+xml</dc:format>
        <dc:type
           rdf:resource="http://purl.org/dc/dcmitype/StillImage" />
        <dc:title />
      </cc:Work>
    </rdf:RDF>
  </metadata>
  <g
     inkscape:label="Layer 1"
     inkscape:groupmode="layer"
     id="layer1"
     transform="translate(0,-752.36218)">
    <rect
       style="fill:#ffffff;stroke:none"
       id="rect5598"
       width="203.35323"
       height="303.96848"
       x="-1.698148"
       y="749.6673" />
    <text
       xml:space="preserve"
       style="font-size:33.21516418px;font-style:normal;font-weight:normal;line-height:125%;letter-spacing:0px;word-spacing:0px;fill:#000000;fill-opacity:1;stroke:none;font-family:Sans"
       x="16.651262"
       y="1061.3733"
       id="text5494"
       sodipodi:linespacing="125%"
       transform="scale(1.0637976,0.94002845)"><tspan
         sodipodi:role="line"
         id="tspan5496"
         x="16.651262"
         y="1061.3733">Telescope</tspan></text>
    <g
       id="g5280"
       transform="matrix(0.3658131,0,0,0.36284405,-18.689034,452.89915)"
       style="fill:#ffe680;stroke:#ffffff">
      <path
         sodipodi:nodetypes="cccccc"
         transform="translate(0,752.36218)"
         inkscape:connector-curvature="0"
         id="path5272"
         d="M 65.743592,166.21944 71.859275,105.82707 110.46452,86.715557 105.1133,118.82289 87.530712,185.33094 z"
         style="fill:#ffe680;stroke:#ffffff;stroke-width:1px;stroke-linecap:butt;stroke-linejoin:miter;stroke-opacity:1" />
      <path
         transform="translate(0,752.36218)"
         inkscape:connector-curvature="0"
         id="path5274"
         d="m 110.08229,87.862248 -6.11568,32.107332 18.34705,-9.93798 z"
         style="fill:#ffe680;stroke:#ffffff;stroke-width:1px;stroke-linecap:butt;stroke-linejoin:miter;stroke-opacity:1" />
      <path
         sodipodi:nodetypes="ccccc"
         transform="translate(0,752.36218)"
         inkscape:connector-curvature="0"
         id="path5276"
         d="m 104.34884,118.82289 16.81813,-7.6446 -16.05367,59.62791 -16.818127,13.76028 z"
         style="fill:#ffe680;stroke:#ffffff;stroke-width:1px;stroke-linecap:butt;stroke-linejoin:miter;stroke-opacity:1" />
      <path
         sodipodi:nodetypes="cc"
         transform="translate(0,752.36218)"
         inkscape:connector-curvature="0"
         id="path5278"
         d="m 73.388195,105.82707 30.578415,12.61359"
         style="fill:#ffe680;stroke:#ffffff;stroke-width:1px;stroke-linecap:butt;stroke-linejoin:miter;stroke-opacity:1" />
    </g>
    <use
       x="0"
       y="0"
       xlink:href="#g5280"
       id="use5571"
       transform="matrix(-1,0,0,-1,198.25878,1803.0886)"
       width="200"
       height="300" />
    <g
       id="g5528"
       transform="translate(18.039672,-1.8039672)">
      <path
         sodipodi:nodetypes="ccccc"
         transform="translate(0,752.36218)"
         inkscape:connector-curvature="0"
         id="path5526"
         d="m 19.392648,170.11436 -7.215869,3.60794 c -8.8815886,9.48518 5.084916,25.21535 17.58868,18.03966 l 4.509918,-9.01983 z"
         style="fill:#b3b3b3;stroke:none" />
      <g
         transform="matrix(0.60201495,0,0,0.5852718,-5.5780416,397.41648)"
         id="g5520">
        <path
           sodipodi:nodetypes="ccccc"
           transform="translate(0,752.36218)"
           inkscape:connector-curvature="0"
           id="path5522"
           d="M 44.576387,140.37408 131.41624,58.003732 c -15.63479,13.606058 11.83092,41.802082 25.67941,29.50024 L 67.501386,167.54445 c -22.036329,7.30658 -34.01148,-16.30141 -22.924999,-27.17037 z"
           style="fill:#ffe680;stroke:none" />
        <path
           transform="translate(0,752.36218)"
           inkscape:connector-curvature="0"
           id="path5524"
           d="m 45.000924,144.19491 c 1.273611,-1.69814 78.114806,-75.992121 78.114806,-75.992121 l -1.27361,7.641666 -78.114807,75.143055 z"
           style="fill:#f9f9f9;stroke:none;filter:url(#filter5508)" />
      </g>
      <g
         id="g5516">
        <path
           style="fill:#ffe680;stroke:none"
           d="M 44.576387,140.37408 131.41624,58.003732 c -15.63479,13.606058 11.83092,41.802082 25.67941,29.50024 L 67.501386,167.54445 c -22.036329,7.30658 -34.01148,-16.30141 -22.924999,-27.17037 z"
           id="path4992"
           inkscape:connector-curvature="0"
           transform="translate(0,752.36218)"
           sodipodi:nodetypes="ccccc" />
        <path
           style="fill:#f9f9f9;stroke:none;filter:url(#filter5508)"
           d="m 45.000924,144.19491 c 1.273611,-1.69814 78.114806,-75.992121 78.114806,-75.992121 l -1.27361,7.641666 -78.114807,75.143055 z"
           id="path4994"
           inkscape:connector-curvature="0"
           transform="translate(0,752.36218)" />
      </g>
      <path
         transform="matrix(0.64199232,-0.76671107,0.76671107,0.64199232,-9.4475207,887.22744)"
         d="m 166.82611,78.179405 c 0,11.053178 -8.07046,20.013548 -18.02588,20.013548 -9.95542,0 -18.02588,-8.96037 -18.02588,-20.013548 0,-11.053177 8.07046,-20.013548 18.02588,-20.013548 9.95542,0 18.02588,8.960371 18.02588,20.013548 z"
         sodipodi:ry="20.013548"
         sodipodi:rx="18.025877"
         sodipodi:cy="78.179405"
         sodipodi:cx="148.80023"
         id="path5512"
         style="opacity:0.75;fill:#f9f9f9;fill-opacity:1;stroke:none"
         sodipodi:type="arc" />
    </g>
  </g>
</svg>
