<?xml version="1.0" encoding="UTF-8" standalone="no"?>
<!-- Created with Inkscape (http://www.inkscape.org/) -->

<svg
   xmlns:dc="http://purl.org/dc/elements/1.1/"
   xmlns:cc="http://creativecommons.org/ns#"
   xmlns:rdf="http://www.w3.org/1999/02/22-rdf-syntax-ns#"
   xmlns:svg="http://www.w3.org/2000/svg"
   xmlns="http://www.w3.org/2000/svg"
   xmlns:xlink="http://www.w3.org/1999/xlink"
   xmlns:sodipodi="http://sodipodi.sourceforge.net/DTD/sodipodi-0.dtd"
   xmlns:inkscape="http://www.inkscape.org/namespaces/inkscape"
   width="200"
   height="300"
   id="svg5382"
   version="1.1"
   inkscape:version="0.48.3.1 r9886"
   sodipodi:docname="treefarm.svg">
  <defs
     id="defs5384">
    <filter
       inkscape:collect="always"
       id="filter6107"
       x="-0.065606063"
       width="1.1312121"
       y="-0.70216186"
       height="2.4043237">
      <feGaussianBlur
         inkscape:collect="always"
         stdDeviation="4.8182493"
         id="feGaussianBlur6109" />
    </filter>
  </defs>
  <sodipodi:namedview
     id="base"
     pagecolor="#ffffff"
     bordercolor="#666666"
     borderopacity="1.0"
     inkscape:pageopacity="0"
     inkscape:pageshadow="2"
     inkscape:zoom="2.0844066"
     inkscape:cx="101.69149"
     inkscape:cy="143.84673"
     inkscape:document-units="px"
     inkscape:current-layer="layer1"
     showgrid="false"
     inkscape:showpageshadow="false"
     inkscape:window-width="727"
     inkscape:window-height="885"
     inkscape:window-x="310"
     inkscape:window-y="29"
     inkscape:window-maximized="0"
     borderlayer="true" />
  <metadata
     id="metadata5387">
    <rdf:RDF>
      <cc:Work
         rdf:about="">
        <dc:format>image/svg+xml</dc:format>
        <dc:type
           rdf:resource="http://purl.org/dc/dcmitype/StillImage" />
        <dc:title />
      </cc:Work>
    </rdf:RDF>
  </metadata>
  <g
     inkscape:label="Layer 1"
     inkscape:groupmode="layer"
     id="layer1"
     transform="translate(0,-752.36218)">
    <rect
       style="fill:#ffffff;stroke:none"
       id="rect5598"
       width="204.38741"
       height="316.13028"
       x="-2.6911893"
       y="746.83875" />
    <text
       xml:space="preserve"
       style="font-size:33.21516418px;font-style:normal;font-weight:normal;line-height:125%;letter-spacing:0px;word-spacing:0px;fill:#000000;fill-opacity:1;stroke:none;font-family:Sans"
       x="31.034481"
       y="1046.1792"
       id="text5494"
       sodipodi:linespacing="125%"
       transform="scale(1.0637976,0.94002845)"><tspan
         sodipodi:role="line"
         id="tspan5496"
         x="31.034481"
         y="1046.1792">Forestry</tspan></text>
    <path
       style="fill:#aad400;stroke:none;stroke-width:1px;stroke-linecap:butt;stroke-linejoin:miter;stroke-opacity:1;filter:url(#filter6107)"
       d="m 24.480712,182.04748 165.133528,-4.00594 4.89614,13.79822 -176.261122,2.67063 z"
       id="path5597"
       inkscape:connector-curvature="0"
       transform="translate(0,752.36218)" />
    <path
       style="fill:#808000;stroke:none;stroke-width:1px;stroke-linecap:butt;stroke-linejoin:miter;stroke-opacity:1"
       d="m 37.388723,91.691398 c -9.739401,8.047127 -18.158662,16.974342 -17.35905,32.047482 1.771243,11.00645 8.8484,14.84991 16.913947,17.35905 -4.532166,5.44905 -12.542286,9.15912 -4.451039,20.91988 16.66768,7.4338 33.570164,10.79767 51.186943,1.78041 9.51735,-12.59013 9.084402,-32.40269 0.445104,-35.60831 C 85.572164,116.25271 69.107162,117.20012 70.856099,115.46837 79.338963,107.06886 66.320474,92.136502 66.320474,92.136502 59.175001,81.369749 49.279195,82.291906 37.388723,91.691398 z"
       id="path6113"
       inkscape:connector-curvature="0"
       transform="translate(0,752.36218)"
       sodipodi:nodetypes="ccccccscc" />
    <path
       style="fill:#d3bc5f;stroke:none;stroke-width:1px;stroke-linecap:butt;stroke-linejoin:miter;stroke-opacity:1"
       d="m 47.626112,183.82789 0.445104,-59.64391 -6.676558,-30.267063 12.462908,29.821963 0,26.70623 14.688427,-10.23739 -13.353115,15.57863 0,29.37686 z"
       id="path6111"
       inkscape:connector-curvature="0"
       transform="translate(0,752.36218)" />
    <path
       style="fill:#88aa00;stroke:none"
       d="m 84.292322,842.64647 c -9.7394,8.04713 -18.15866,16.97434 -17.35905,32.04748 1.77125,11.00645 8.8484,14.84991 16.91395,17.35905 -4.53217,5.44905 -12.54229,9.15912 -4.45104,20.91988 16.66768,7.4338 33.570168,10.79767 51.186938,1.78041 9.51735,-12.59013 9.08441,-32.40269 0.44511,-35.60831 1.44753,-11.9372 -15.01747,-10.98979 -13.26853,-12.72154 8.48286,-8.39951 -4.53563,-23.33187 -4.53563,-23.33187 -7.14547,-10.76675 -17.041268,-9.84459 -28.931748,-0.4451 z"
       id="path6119"
       inkscape:connector-curvature="0"
       sodipodi:nodetypes="ccccccscc" />
    <path
       sodipodi:nodetypes="ccccccscc"
       inkscape:connector-curvature="0"
       id="path6115"
       d="m 134.01014,842.64647 c -9.7394,8.04713 -18.15866,16.97434 -17.35905,32.04748 1.77125,11.00645 8.8484,14.84991 16.91395,17.35905 -4.53217,5.44905 -12.54229,9.15912 -4.45104,20.91988 16.66768,7.4338 33.57017,10.79767 51.18694,1.78041 9.51735,-12.59013 9.08441,-32.40269 0.44511,-35.60831 1.44753,-11.9372 -15.01747,-10.98979 -13.26853,-12.72154 8.48286,-8.39951 -4.53563,-23.33187 -4.53563,-23.33187 -7.14547,-10.76675 -17.04127,-9.84459 -28.93175,-0.4451 z"
       style="fill:#808000;stroke:none" />
    <path
       inkscape:connector-curvature="0"
       id="path6117"
       d="m 144.24753,934.78296 0.44511,-59.64391 -6.67656,-30.26706 12.46291,29.82196 0,26.70623 14.68842,-10.23739 -13.35311,15.57863 0,29.37686 z"
       style="fill:#d3bc5f;stroke:none" />
    <path
       style="fill:#d3bc5f;stroke:none"
       d="m 94.529712,934.78296 0.44511,-59.64391 -6.67656,-30.26706 12.462908,29.82196 0,26.70623 14.68842,-10.23739 -13.35311,15.57863 0,29.37686 z"
       id="path6121"
       inkscape:connector-curvature="0" />
    <path
       sodipodi:type="star"
       style="fill:#afdde9;stroke:#afdde9"
       id="path3826"
       sodipodi:sides="5"
       sodipodi:cx="11.62877"
       sodipodi:cy="11.003522"
       sodipodi:r1="11.912441"
       sodipodi:r2="5.9562201"
       sodipodi:arg1="0.70862627"
       sodipodi:arg2="1.3369448"
       inkscape:flatsided="false"
       inkscape:rounded="0"
       inkscape:randomized="0"
       d="M 20.67337,18.756036 13.008981,16.79762 7.0506259,22.001106 6.5447633,14.106655 -0.24527837,10.047889 7.1064704,7.1272652 8.8683484,-0.58467595 13.917842,5.5047303 21.796784,4.797255 l -4.23099,6.684084 z"
       transform="translate(7.2707933,761.2474)"
       inkscape:transform-center-x="0.85301709"
       inkscape:transform-center-y="-0.29530691" />
    <use
       x="0"
       y="0"
       xlink:href="#path3826"
       inkscape:transform-center-x="6.4283571"
       inkscape:transform-center-y="-14.89743"
       id="use3828"
       transform="matrix(0.88745042,0.46090319,-0.46090319,0.88745042,518.55036,338.69158)"
       width="200"
       height="300" />
  </g>
</svg>
