<?xml version="1.0" encoding="UTF-8" standalone="no"?>
<!-- Created with Inkscape (http://www.inkscape.org/) -->

<svg
   xmlns:dc="http://purl.org/dc/elements/1.1/"
   xmlns:cc="http://creativecommons.org/ns#"
   xmlns:rdf="http://www.w3.org/1999/02/22-rdf-syntax-ns#"
   xmlns:svg="http://www.w3.org/2000/svg"
   xmlns="http://www.w3.org/2000/svg"
   xmlns:xlink="http://www.w3.org/1999/xlink"
   xmlns:sodipodi="http://sodipodi.sourceforge.net/DTD/sodipodi-0.dtd"
   xmlns:inkscape="http://www.inkscape.org/namespaces/inkscape"
   width="200"
   height="300"
   id="svg5382"
   version="1.1"
   inkscape:version="0.48.3.1 r9886"
   sodipodi:docname="winter.svg">
  <defs
     id="defs5384">
    <linearGradient
       inkscape:collect="always"
       id="linearGradient4920">
      <stop
         style="stop-color:#000080;stop-opacity:1;"
         offset="0"
         id="stop4922" />
      <stop
         style="stop-color:#000080;stop-opacity:0;"
         offset="1"
         id="stop4924" />
    </linearGradient>
    <linearGradient
       inkscape:collect="always"
       id="linearGradient4882">
      <stop
         style="stop-color:#000000;stop-opacity:1;"
         offset="0"
         id="stop4884" />
      <stop
         style="stop-color:#000000;stop-opacity:0;"
         offset="1"
         id="stop4886" />
    </linearGradient>
    <filter
       inkscape:collect="always"
       id="filter4872">
      <feGaussianBlur
         inkscape:collect="always"
         stdDeviation="2.3709733"
         id="feGaussianBlur4874" />
    </filter>
    <filter
       inkscape:collect="always"
       id="filter4876">
      <feGaussianBlur
         inkscape:collect="always"
         stdDeviation="1.3022774"
         id="feGaussianBlur4878" />
    </filter>
    <radialGradient
       inkscape:collect="always"
       xlink:href="#linearGradient4882"
       id="radialGradient4896"
       cx="119.40064"
       cy="141.48932"
       fx="119.40064"
       fy="141.48932"
       r="81.710846"
       gradientTransform="matrix(1,0,0,1.005631,0,-0.79672592)"
       gradientUnits="userSpaceOnUse" />
    <linearGradient
       inkscape:collect="always"
       xlink:href="#linearGradient4920"
       id="linearGradient4926"
       x1="101.6861"
       y1="63.269238"
       x2="99.845627"
       y2="187.041"
       gradientUnits="userSpaceOnUse" />
  </defs>
  <sodipodi:namedview
     id="base"
     pagecolor="#ffffff"
     bordercolor="#666666"
     borderopacity="1.0"
     inkscape:pageopacity="0"
     inkscape:pageshadow="2"
     inkscape:zoom="2.1733551"
     inkscape:cx="99.978461"
     inkscape:cy="149.99905"
     inkscape:document-units="px"
     inkscape:current-layer="layer1"
     showgrid="false"
     inkscape:showpageshadow="false"
     inkscape:window-width="727"
     inkscape:window-height="863"
     inkscape:window-x="318"
     inkscape:window-y="40"
     inkscape:window-maximized="0"
     borderlayer="true" />
  <metadata
     id="metadata5387">
    <rdf:RDF>
      <cc:Work
         rdf:about="">
        <dc:format>image/svg+xml</dc:format>
        <dc:type
           rdf:resource="http://purl.org/dc/dcmitype/StillImage" />
        <dc:title></dc:title>
      </cc:Work>
    </rdf:RDF>
  </metadata>
  <g
     inkscape:label="Layer 1"
     inkscape:groupmode="layer"
     id="layer1"
     transform="translate(0,-752.36218)">
    <rect
       style="fill:#ffffff;stroke:#000000;stroke-width:3.92711401"
       id="rect5598"
       width="198.74867"
       height="296.06989"
       x="0.60412431"
       y="754.32819" />
    <text
       xml:space="preserve"
       style="font-size:33.21516418px;font-style:normal;font-weight:normal;line-height:125%;letter-spacing:0px;word-spacing:0px;fill:#ff0000;fill-opacity:1;stroke:none;font-family:Sans"
       x="44.500042"
       y="1058.406"
       id="text5494"
       sodipodi:linespacing="125%"
       transform="scale(1.0637976,0.94002845)"><tspan
         sodipodi:role="line"
         id="tspan5496"
         x="44.500042"
         y="1058.406">Winter</tspan></text>
    <g
       id="g4773"
       transform="matrix(0.29965369,0,0,0.29965369,4.840269,529.26179)">
      <path
         sodipodi:nodetypes="cccccccccc"
         inkscape:connector-curvature="0"
         id="path5305"
         d="m 36.680435,883.17926 -1.14669,-11.08468 c -3.058709,-8.27212 -4.445972,-14.67194 -11.466906,-25.60943 -5.190684,-6.48917 -7.648876,-14.41431 -4.204532,-27.52056 2.582894,-31.72234 26.927315,-32.82007 44.338701,-32.48957 25.580442,0.16559 47.305632,8.88755 45.867622,31.34288 4.59667,26.52111 -1.00175,26.53636 -6.49792,32.87179 -8.56235,10.44961 -13.7303,19.21647 -16.43589,28.28503 l -2.67561,7.26238 z"
         style="fill:#1a1a1a;stroke:none" />
      <path
         sodipodi:nodetypes="ccccc"
         inkscape:connector-curvature="0"
         id="path5307"
         d="m 42.796118,815.90675 c -5.97188,-0.0888 -9.060468,2.129 -9.937985,6.11568 0.256811,11.46093 6.939867,14.34558 13.760287,16.05367 8.47367,-0.82727 15.284795,-3.31708 15.671438,-12.23137 -1.230646,-4.93336 -5.123894,-9.04745 -19.49374,-9.93798 z"
         style="fill:#ffffff;stroke:none" />
      <path
         inkscape:transform-center-y="20.64043"
         inkscape:transform-center-x="-14.715867"
         sodipodi:nodetypes="ccccc"
         inkscape:connector-curvature="0"
         id="path5307-9"
         d="m 90.38378,817.05472 c 5.97188,-0.0888 9.06047,2.129 9.93798,6.11568 -0.25681,11.46093 -6.93986,14.34558 -13.76028,16.05367 -8.47367,-0.82727 -15.2848,-3.31708 -15.67144,-12.23137 1.23065,-4.93336 5.1239,-9.04745 19.49374,-9.93798 z"
         style="fill:#ffffff;stroke:none" />
      <path
         sodipodi:nodetypes="cccc"
         inkscape:connector-curvature="0"
         id="path5338"
         d="m 56.556405,856.80538 c -2.915813,-3.53824 7.890145,-18.23819 9.555755,-14.90698 8.80879,1.37081 6.71645,10.52815 9.17352,16.4359 -9.25562,-7.13719 -14.530072,-5.51584 -18.729275,-1.52892 z"
         style="fill:#ffffff;stroke:none" />
      <g
         style="fill:#ffffff;stroke:#ffffff"
         transform="translate(-35.56107,-39.224656)"
         id="g5350">
        <path
           style="fill:#ffffff;stroke:#ffffff;stroke-width:1px;stroke-linecap:butt;stroke-linejoin:miter;stroke-opacity:1"
           d="m 78.357188,160.10375 -0.764461,14.90698"
           id="path5340"
           inkscape:connector-curvature="0"
           transform="translate(0,752.36218)" />
        <path
           style="fill:#ffffff;stroke:#ffffff;stroke-width:1px;stroke-linecap:butt;stroke-linejoin:miter;stroke-opacity:1"
           d="m 85.619561,161.63267 1.146691,13.76029"
           id="path5342"
           inkscape:connector-curvature="0"
           transform="translate(0,752.36218)" />
        <path
           style="fill:#ffffff;stroke:#ffffff;stroke-width:1px;stroke-linecap:butt;stroke-linejoin:miter;stroke-opacity:1"
           d="m 94.793086,162.77936 -0.38223,14.52475"
           id="path5344"
           inkscape:connector-curvature="0"
           transform="translate(0,752.36218)" />
        <path
           style="fill:#ffffff;stroke:#ffffff;stroke-width:1px;stroke-linecap:butt;stroke-linejoin:miter;stroke-opacity:1"
           d="m 104.73107,163.16159 0,12.23137"
           id="path5346"
           inkscape:connector-curvature="0"
           transform="translate(0,752.36218)" />
        <path
           style="fill:#ffffff;stroke:#ffffff;stroke-width:1px;stroke-linecap:butt;stroke-linejoin:miter;stroke-opacity:1"
           d="m 113.52236,164.30828 -1.14669,13.76029"
           id="path5348"
           inkscape:connector-curvature="0"
           transform="translate(0,752.36218)" />
      </g>
    </g>
    <use
       x="0"
       y="0"
       xlink:href="#g4773"
       id="use4785"
       transform="matrix(-0.99841403,0.05629759,-0.05629759,-0.99841403,246.44528,1804.3429)"
       width="200"
       height="300" />
    <path
       style="fill:url(#linearGradient4926);fill-opacity:1;stroke:none"
       d="m 21.165432,61.198711 164.262158,-0.460118 0,135.734837 -163.341922,2.30059 z"
       id="path4410"
       inkscape:connector-curvature="0"
       transform="translate(0,752.36218)"
       sodipodi:nodetypes="ccccc" />
    <path
       style="fill:#f9f9f9;stroke:none"
       d="m 15.644015,181.28953 c 19.260853,-5.732 38.867133,-11.98214 53.373699,-10.58271 l 30.827912,12.8833 c 21.535994,-7.35573 42.407534,-16.37258 66.257004,-17.9446 l 23.00591,10.58271 0.46011,29.44756 -175.304989,0.46012 z"
       id="path4928"
       inkscape:connector-curvature="0"
       transform="translate(0,752.36218)"
       sodipodi:nodetypes="cccccccc" />
    <g
       transform="matrix(0.81148262,0,0,0.72364811,54.398843,261.61173)"
       id="g4930">
      <path
         style="opacity:0.25;fill:#ffffff;stroke:none"
         d="m 100.25,109.65625 c -4.902111,0.12658 -10.572773,1.40125 -11.25,9.71875 -1.03211,3.92734 -0.274158,6.3055 1.28125,8.25 2.103849,3.27746 2.520947,5.20873 3.4375,7.6875 l 0.34375,3.3125 14.3125,0.9375 0.78125,-2.1875 c 0.81074,-2.71743 2.37176,-5.33749 4.9375,-8.46875 1.64695,-1.89843 3.31491,-1.92785 1.9375,-9.875 0.43091,-6.72882 -6.05348,-9.32538 -13.71875,-9.375 -0.65217,-0.0124 -1.3622,-0.0181 -2.0625,0 z m -4.375,8.8125 c 4.30598,0.26685 5.47498,1.49045 5.84375,2.96875 -0.11586,2.6712 -2.148334,3.43961 -4.6875,3.6875 -2.043764,-0.51184 -4.048046,-1.37819 -4.125,-4.8125 0.262951,-1.19462 1.179254,-1.87036 2.96875,-1.84375 z m 14.28125,0.34375 c 1.7895,-0.0266 2.7058,0.64913 2.96875,1.84375 -0.0769,3.43431 -2.08124,4.30066 -4.125,4.8125 -2.53917,-0.24789 -4.57164,-1.0163 -4.6875,-3.6875 0.36877,-1.4783 1.53777,-2.7019 5.84375,-2.96875 z m -7.59375,7.3125 c 0.1346,-0.027 0.25011,2.2e-4 0.3125,0.125 2.63959,0.41077 2.01373,3.16722 2.75,4.9375 -2.77348,-2.13869 -4.36669,-1.66345 -5.625,-0.46875 -0.764517,-0.92772 1.6203,-4.40485 2.5625,-4.59375 z"
         transform="matrix(3.3371857,0,0,3.3371857,-277.18779,420.53702)"
         id="path4932"
         inkscape:connector-curvature="0" />
      <g
         id="g4940"
         transform="translate(-35.56107,-39.224656)"
         style="fill:#ffffff;stroke:#ffffff">
        <path
           transform="translate(0,752.36218)"
           inkscape:connector-curvature="0"
           id="path4942"
           d="m 78.357188,160.10375 -0.764461,14.90698"
           style="fill:#ffffff;stroke:#ffffff;stroke-width:1px;stroke-linecap:butt;stroke-linejoin:miter;stroke-opacity:1" />
        <path
           transform="translate(0,752.36218)"
           inkscape:connector-curvature="0"
           id="path4944"
           d="m 85.619561,161.63267 1.146691,13.76029"
           style="fill:#ffffff;stroke:#ffffff;stroke-width:1px;stroke-linecap:butt;stroke-linejoin:miter;stroke-opacity:1" />
        <path
           transform="translate(0,752.36218)"
           inkscape:connector-curvature="0"
           id="path4946"
           d="m 94.793086,162.77936 -0.38223,14.52475"
           style="fill:#ffffff;stroke:#ffffff;stroke-width:1px;stroke-linecap:butt;stroke-linejoin:miter;stroke-opacity:1" />
        <path
           transform="translate(0,752.36218)"
           inkscape:connector-curvature="0"
           id="path4948"
           d="m 104.73107,163.16159 0,12.23137"
           style="fill:#ffffff;stroke:#ffffff;stroke-width:1px;stroke-linecap:butt;stroke-linejoin:miter;stroke-opacity:1" />
        <path
           transform="translate(0,752.36218)"
           inkscape:connector-curvature="0"
           id="path4950"
           d="m 113.52236,164.30828 -1.14669,13.76029"
           style="fill:#ffffff;stroke:#ffffff;stroke-width:1px;stroke-linecap:butt;stroke-linejoin:miter;stroke-opacity:1" />
      </g>
    </g>
  </g>
</svg>
